<svg width="84" height="121" viewBox="0 0 84 121" fill="none" xmlns="http://www.w3.org/2000/svg">
<path d="M29.7627 115.964V119.108H29.6049L27.5253 115.964H26.8813V120.429H27.197V116.771L29.6329 120.429H30.0961L30.1012 115.964H29.7627Z" fill="black"/>
<path d="M33.9981 115.964H33.2854V120.429H33.9981V115.964Z" fill="black"/>
<path d="M7.79894 118.021V116.204H8.15529C8.76871 116.204 9.15051 116.588 9.15051 117.084C9.15051 117.581 8.76871 118.021 8.15529 118.021H7.79894ZM9.77921 117.097C9.77921 116.384 9.13524 115.962 8.35637 115.962H7.08624V120.426H7.79894V118.237H7.89312L9.31341 120.426H10.1203L8.67962 118.235C9.25996 118.161 9.77667 117.792 9.77667 117.094" fill="black"/>
<path d="M1.00795 118.675L1.7181 116.629L2.4868 118.675H1.00795ZM1.50684 115.964L0 120.429H0.399618L0.903595 118.996H2.60643L3.14349 120.429H3.88164L2.21954 115.964H1.5043H1.50684Z" fill="black"/>
<path d="M21.335 118.675L22.0452 116.629L22.8139 118.675H21.335ZM21.8339 115.964L20.3271 120.429H20.7267L21.2307 118.996H22.9335L23.4706 120.429H24.2087L22.5466 115.964H21.8314H21.8339Z" fill="black"/>
<path d="M72.0432 115.964V119.108H71.8829L69.8033 115.964H69.1594V120.429H69.4775V116.771L71.9134 120.429H72.3716L72.3792 115.964H72.0432Z" fill="black"/>
<path d="M40.6007 118.27H42.2093V117.942H40.6007V116.293H42.2628V115.964H39.888V120.426H42.329V120.098H40.6007V118.27Z" fill="black"/>
<path d="M82.1432 120.098V118.27H83.7518V117.942H82.1432V116.293H83.8053V115.964H81.4305V120.426H83.8715V120.098H82.1432Z" fill="black"/>
<path d="M59.4668 117.952H57.5272V115.964H56.8832V120.426H57.5272V118.25H59.4668V120.426H60.1133V115.964H59.4668V117.952Z" fill="black"/>
<path d="M52.6325 120.23C51.762 120.23 51.3191 119.128 51.3191 118.209C51.3191 117.29 51.7264 116.132 52.5943 116.132C53.106 116.132 53.5234 116.641 53.6837 117.005L54.2386 116.779C54.0045 116.428 53.6736 115.875 52.6045 115.875C51.2097 115.875 50.6039 117.003 50.6039 118.212C50.6039 119.421 51.3268 120.518 52.5842 120.518C53.2307 120.518 53.8772 120.274 54.2768 119.597L53.699 119.362C53.5208 119.719 53.1467 120.23 52.6351 120.23" fill="black"/>
<path d="M77.0041 116.135C77.5157 116.135 77.9332 116.644 78.0935 117.008L78.6484 116.779C78.4142 116.428 78.0834 115.875 77.0143 115.875C75.6195 115.875 75.0137 117.003 75.0137 118.212C75.0137 119.421 75.7365 120.518 76.9939 120.518C77.8823 120.518 78.6484 120.103 78.6484 120.103V118.324H78.0121V120.027C77.6761 120.129 77.1365 120.101 77.1365 120.101C76.2456 120.062 75.7264 119.131 75.7264 118.212C75.7264 117.293 76.1311 116.135 77.0016 116.135" fill="black"/>
<path d="M48.1502 115.964H47.7225L46.735 117.469L45.8441 115.964H45.0143L46.3048 118.125L44.803 120.426H45.2459L46.5313 118.484L47.6538 120.426H48.4836L46.9589 117.817L48.1502 115.964Z" fill="black"/>
<path d="M63.7735 118.675L64.4836 116.629L65.2523 118.675H63.7735ZM64.2723 115.964L62.7655 120.429H63.1651L63.6691 118.996H65.3719L65.909 120.429H66.6471L64.985 115.964H64.2698H64.2723Z" fill="black"/>
<path d="M15.3051 119.054L14.1852 115.964H13.2994V120.429H13.6125L13.6023 116.814H13.7244L15.0277 120.429H15.1269L16.4887 116.814H16.6083L16.5981 120.429H17.3236V115.964H16.5116L15.3051 119.054Z" fill="black"/>
<path d="M44.7521 0.517944H43.9809V109.344H44.7521V0.517944Z" fill="black"/>
<path d="M15.7378 37.4101L22.8953 68.4327H9.76136L15.7378 37.4101ZM9.48392 69.8733H23.2287L28.2889 91.804H22.3684V93.2446H39.8982V91.804H36.3449L19.1969 15.9147H18.9195L4.29143 91.804H0.0407104V93.2446H10.1279V91.804H5.25611L9.48137 69.8733H9.48392Z" fill="black"/>
<path d="M63.8956 60.1222L71.2313 91.804H65.4432V93.2446H83.8613V91.804H79.2084L68.5612 44.9901L75.2377 18.8418H80.2902V17.4012H70.1852V18.8418H74.2348L68.0674 42.8164L62.6128 18.8418H65.7894V17.4012H49.097V18.8418H54.3404L63.4146 58.0375L54.7935 91.804H48.8374V93.2446H60.8947V91.804H55.8371L63.8956 60.1222Z" fill="black"/>
</svg>
