<svg width="222" height="17" viewBox="0 0 222 17" fill="none" xmlns="http://www.w3.org/2000/svg">
<path d="M9.72995 4.56997C9.72995 7.46997 6.68996 7.69997 5.36996 7.69997C4.72996 7.69997 4.23996 7.64997 4.23996 7.64997V1.85997C4.23996 1.85997 4.85995 1.80997 6.00995 1.80997C7.77995 1.80997 9.71994 2.56997 9.71994 4.56997M13.6899 12.21C13.6899 8.39997 8.35995 8.06997 8.35995 8.06997C8.35995 8.06997 11.99 7.14997 11.99 4.42997C11.99 1.33997 7.88997 0.849968 6.05997 0.849968H0.949951C1.42995 1.03997 1.69995 1.35997 1.69995 1.89997V15.51C1.69995 16.02 1.42995 16.34 0.949951 16.55H6.75995C12.5199 16.55 13.6899 14.01 13.6899 12.2M11.12 11.97C11.12 15.41 7.18994 15.62 5.49994 15.62C4.71994 15.62 4.23996 15.57 4.23996 15.57V8.71997C4.23996 8.71997 5.55995 8.66997 6.38995 8.66997C8.64995 8.66997 11.1299 9.26997 11.1299 11.97" fill="#252223"/>
<path d="M178.41 4.56997C178.41 7.46997 175.37 7.69997 174.05 7.69997C173.4 7.69997 172.92 7.64997 172.92 7.64997V1.85997C172.92 1.85997 173.54 1.80997 174.7 1.80997C176.47 1.80997 178.41 2.56997 178.41 4.56997ZM182.38 12.21C182.38 8.39997 177.05 8.06997 177.05 8.06997C177.05 8.06997 180.68 7.14997 180.68 4.42997C180.68 1.33997 176.57 0.849968 174.75 0.849968H169.63C170.11 1.03997 170.38 1.35997 170.38 1.89997V15.51C170.38 16.02 170.11 16.34 169.63 16.55H175.44C181.2 16.55 182.37 14.01 182.37 12.2M179.8 11.97C179.8 15.41 175.87 15.62 174.18 15.62C173.4 15.62 172.91 15.57 172.91 15.57V8.71997C172.91 8.71997 174.23 8.66997 175.06 8.66997C177.32 8.66997 179.8 9.26997 179.8 11.97Z" fill="#252223"/>
<path d="M24.9398 10.8901H18.8898C20.0698 8.4001 21.8998 4.44011 21.8998 4.44011C21.8998 4.44011 23.5398 7.9901 24.9398 10.8901ZM31.3398 16.5501C30.3998 16.1801 30.2098 15.9101 29.9998 15.4201C29.5698 14.5401 22.6398 0.490105 22.6398 0.490105C22.6398 0.490105 15.7298 14.5401 15.2798 15.4201C15.0398 15.8601 14.7998 16.1101 14.0398 16.5501H17.3198C16.6198 16.3201 16.5398 15.9501 16.7598 15.4201C16.8698 15.1401 17.5598 13.6201 18.4498 11.8901H25.4098C26.2398 13.6701 26.9898 15.1501 27.1598 15.4201C27.3798 15.9501 27.1898 16.2701 26.4898 16.5501H31.3498H31.3398Z" fill="#252223"/>
<path d="M47.2699 1.91V16.99C47.2699 16.99 34.4599 3.67 34.4599 3.43V15.51C34.4599 16.01 34.7299 16.34 35.2199 16.55H32.5099C32.9099 16.35 33.2099 16.02 33.2099 15.51V2.79C33.2099 2.12 33.2099 2.08 32.8899 1.71C32.5899 1.43 32.2699 1.11 31.6499 0.879997H35.3499L45.9899 12.11V1.92C45.9899 1.39 45.6899 1.07 45.2899 0.889997H47.9999C47.5699 1.07 47.2699 1.39 47.2699 1.92" fill="#252223"/>
<path d="M59.7298 10.8901H53.6798C54.8598 8.40011 56.6898 4.44011 56.6898 4.44011C56.6898 4.44011 58.3298 7.99011 59.7298 10.8901ZM66.1298 16.5601C65.1898 16.1901 64.9999 15.9101 64.7899 15.4301C64.3599 14.5501 57.4298 0.500114 57.4298 0.500114C57.4298 0.500114 50.5198 14.5501 50.0698 15.4301C49.8298 15.8601 49.5798 16.1201 48.8298 16.5601H52.1098C51.4098 16.3301 51.3298 15.9601 51.5498 15.4301C51.6598 15.1501 52.3498 13.6301 53.2398 11.9001H60.1998C61.0298 13.6801 61.7898 15.1501 61.9498 15.4301C62.1698 15.9601 61.9798 16.2801 61.2798 16.5601H66.1398H66.1298Z" fill="#252223"/>
<path d="M82.1698 1.92V17C82.1698 17 69.3597 3.67 69.3597 3.44V15.52C69.3597 16.03 69.6297 16.35 70.1097 16.56H67.3998C67.7998 16.36 68.0998 16.03 68.0998 15.52V2.79C68.0998 2.12 68.0998 2.08 67.7798 1.71C67.4798 1.43 67.1598 1.11 66.5398 0.879997H70.2397L80.8798 12.11V1.92C80.8798 1.39 80.5797 1.07 80.1797 0.879997H82.8898C82.4598 1.06 82.1598 1.39 82.1598 1.92" fill="#252223"/>
<path d="M94.35 10.8901H88.2999C89.4799 8.4001 91.3099 4.44011 91.3099 4.44011C91.3099 4.44011 92.95 7.9901 94.35 10.8901ZM100.75 16.5501C99.8099 16.1801 99.62 15.9001 99.41 15.4201C98.98 14.5401 92.0499 0.490105 92.0499 0.490105C92.0499 0.490105 85.1399 14.5401 84.6799 15.4201C84.4399 15.8601 84.1999 16.1201 83.4399 16.5501H86.72C86.02 16.3201 85.94 15.9501 86.16 15.4201C86.27 15.1401 86.97 13.6201 87.85 11.8901H94.8099C95.6499 13.6701 96.3999 15.1401 96.5599 15.4201C96.7699 15.9501 96.59 16.2801 95.89 16.5501H100.75Z" fill="#252223"/>
<path d="M117.77 4.77C117.77 7.19 115.75 8.23 113.71 8.23C113.01 8.23 112.15 8.19 112.15 8.19V1.86C112.15 1.86 112.96 1.78 114.16 1.78C117.01 1.78 117.77 3.7 117.77 4.78M124.6 16.56C124.6 16.56 123.47 16.19 122.88 15.64C121.72 14.56 118.84 10.33 118.84 10.33C118.43 9.82 117.68 8.85 116.23 8.59C117.9 8.47 120.16 7.2 120.16 4.71C120.16 3.26 119.32 0.879997 113.93 0.879997H108.88C109.28 1.06 109.6 1.36 109.6 1.89V15.52C109.6 16.03 109.28 16.35 108.88 16.56H112.89C112.49 16.35 112.14 16.03 112.14 15.52V9.17H113.7C115.1 9.17 115.66 10.16 116.36 11.09C117.3 12.38 118.27 13.79 119.65 15.53C120.05 16.01 120.8 16.64 121.86 16.61L124.6 16.56Z" fill="#252223"/>
<path d="M136.98 16.55H126.17C126.66 16.34 126.98 16.06 126.98 15.51V1.91999C126.98 1.37999 126.66 1.05999 126.23 0.869987H136.34L136.39 2.65999C135.85 2.12999 135.29 1.84999 134.13 1.84999H129.51V7.36999H133.89C134.26 7.36999 134.69 6.99999 134.83 6.71999V8.96999C134.7 8.68999 134.27 8.31999 133.89 8.31999H129.51V15.57H132.63C135.53 15.55 136.55 15.55 137.54 14.1L136.98 16.55Z" fill="#252223"/>
<path d="M149.41 5.20001C149.41 8.36001 146.28 8.80001 144.83 8.80001C144.27 8.80001 143.76 8.73001 143.52 8.64001V1.86001C143.52 1.86001 144.08 1.79001 145.32 1.79001C148.02 1.79001 149.42 3.11001 149.42 5.21001M151.72 5.17001C151.72 3.37001 150.76 0.890007 145.4 0.890007H140.26C140.66 1.08001 141.01 1.40001 141.01 1.94001V15.54C141.01 16.05 140.66 16.37 140.25 16.58H144.26C143.8 16.38 143.51 16.05 143.51 15.54V9.40001C145.57 10.12 148.01 9.59001 148.84 9.26001C149.67 8.94001 151.72 7.69001 151.72 5.18001" fill="#252223"/>
<path d="M167.15 1.91999V11.58C167.12 15.36 164.31 16.78 160.95 16.78C157.99 16.78 154.2 15.52 154.2 11.63V1.91999C154.2 1.38999 153.77 1.06999 153.37 0.879986H157.67C157.24 1.05999 156.78 1.38999 156.78 1.91999V11.67C156.78 13.26 157.42 15.7 161.21 15.7C165 15.7 165.98 13.75 165.95 11.67V1.90999C165.95 1.37999 165.67 1.05999 165.24 0.869987H167.86C167.43 1.04999 167.14 1.37999 167.14 1.90999" fill="#252223"/>
<path d="M195.4 16.55H184.7C185.16 16.34 185.45 16.01 185.45 15.51V1.92C185.45 1.39 185.16 1.07 184.7 0.879997H188.74C188.31 1.07 188.01 1.39 188.01 1.92V15.58H190.88C194.11 15.56 195.02 15.51 195.94 14.11L195.4 16.56V16.55Z" fill="#252223"/>
<path d="M198.29 16.55C198.72 16.34 199.02 16.02 199.02 15.51V1.90999C199.02 1.37999 198.72 1.05999 198.29 0.869987H202.27C201.86 1.04999 201.57 1.37999 201.57 1.90999V15.51C201.57 16.02 201.86 16.34 202.27 16.55H198.29Z" fill="#252223"/>
<path d="M221.56 15.19C219.33 16.35 216.8 16.77 214.79 16.77C209.47 16.77 204.78 13.58 204.78 8.75C204.78 4.82 208.26 0.629997 215.08 0.629997C217.31 0.629997 219.33 1.17 221.42 1.95C221.42 1.95 221.72 5.46 221.66 5.37C219.94 1.95 216.61 1.6 215.29 1.6C210.16 1.6 207.52 4.7 207.52 8.44C207.52 11.76 209.64 15.74 215.26 15.74C216.47 15.74 219.75 15.67 221.79 12C221.84 11.93 221.55 15.19 221.55 15.19" fill="#252223"/>
</svg>
