<svg width="184" height="29" viewBox="0 0 184 29" fill="none" xmlns="http://www.w3.org/2000/svg">
<path d="M117.9 15.92L114.42 19.84V28.53H111.23V1.04998H114.42V15.7L127.32 1.04998H131.13L120.1 13.47L131.13 28.53H127.46L117.9 15.92Z" fill="#252223"/>
<path d="M135.67 0.53997H132.78V28.53H135.67V0.53997Z" fill="#252223"/>
<path d="M141.53 17.06H154.75C154.17 14.16 152 11.49 148.15 11.49C144.3 11.49 142 14.31 141.52 17.06M148.22 28.97C142.58 28.97 138.4 24.61 138.4 18.9C138.4 13.19 142.61 8.82 148.14 8.82C153.67 8.82 158 13.33 157.85 19.63H141.33C141.55 23.33 144.37 26.26 148.22 26.26C152.07 26.26 153.94 23.95 154.71 22.34H157.6C156.87 24.98 154.01 28.97 148.22 28.97Z" fill="#252223"/>
<path d="M163.59 28.5299H160.7V9.25995H163.59V28.5299ZM163.63 5.88995H160.66V2.51995H163.63V5.88995Z" fill="#252223"/>
<path d="M170 28.53H167.11V9.26H170V12.48C170.37 11.42 172.05 8.82 176.04 8.82C181.43 8.82 183.95 12.78 183.95 17.65V28.53H181.02V17.72C181.02 14.09 179.08 11.57 175.56 11.57C172.04 11.57 169.99 14.17 169.99 17.87V28.53H170Z" fill="#252223"/>
<path d="M80.7104 28.5299H77.8204V9.25995H80.7104V28.5299ZM80.7504 5.88995H77.7804V2.51995H80.7504V5.88995Z" fill="#252223"/>
<path d="M87.1303 28.53H84.2404V9.26H87.1303V12.48C87.5003 11.42 89.1803 8.82 93.1703 8.82C98.5603 8.82 101.08 12.78 101.08 17.65V28.53H98.1503V17.72C98.1503 14.09 96.2103 11.57 92.6903 11.57C89.1703 11.57 87.1203 14.17 87.1203 17.87V28.53H87.1303Z" fill="#252223"/>
<path d="M3.70003 14.82C3.70003 21.23 8.31002 26.03 14.36 26.03C20 26.03 22.78 22.55 23.66 20.83H26.85C26.04 23.47 22.23 29 14.36 29C6.49002 29 0.400024 22.99 0.400024 14.79C0.400024 6.59 6.48002 0.57 14.36 0.57C22.24 0.57 26.05 5.99 26.93 8.81H23.63C22.64 7.01 19.89 3.53 14.36 3.53C8.31002 3.53 3.70003 8.33 3.70003 14.82Z" fill="#252223"/>
<path d="M45.3604 18.89C45.3604 14.75 42.4304 11.56 38.4404 11.56C34.4504 11.56 31.4804 14.71 31.4804 18.89C31.4804 23.07 34.4104 26.22 38.4404 26.22C42.4704 26.22 45.3604 23.03 45.3604 18.89ZM38.3304 28.96C32.8404 28.96 28.5104 24.64 28.5104 18.89C28.5104 13.14 32.8304 8.80999 38.3304 8.80999C42.6904 8.80999 44.7404 11.6 45.3304 12.88V9.24999H48.2204V28.52H45.3304V24.89C44.7104 26.21 42.6904 28.96 38.3304 28.96Z" fill="#252223"/>
<path d="M54.6201 0.53997H51.7301V28.53H54.6201V0.53997Z" fill="#252223"/>
<path d="M66.1302 25.5599L72.2502 9.25994H75.4402L67.9602 28.5299H64.3002L56.8302 9.25994H60.0102L66.1302 25.5599Z" fill="#252223"/>
</svg>
