<svg width="157" height="30" viewBox="0 0 157 30" fill="none" xmlns="http://www.w3.org/2000/svg">
<path d="M113.67 24.6302C115.28 24.6302 116.58 23.3302 116.58 21.7202C116.58 20.1102 115.28 18.8102 113.67 18.8102C112.06 18.8102 110.76 20.1102 110.76 21.7202C110.76 23.3302 112.06 24.6302 113.67 24.6302ZM113.67 10.8902C112.06 10.8902 110.76 9.59019 110.76 7.98019C110.76 6.37019 112.06 5.07019 113.67 5.07019C115.28 5.07019 116.58 6.37019 116.58 7.98019C116.58 9.59019 115.28 10.8902 113.67 10.8902Z" fill="#E6313E"/>
<path d="M156.46 28.93V0.760002H151.72V17.47L149.86 12.99L144.66 0.770004H140.13V28.94H144.95V12.45L146.94 16.93L152.39 28.94H156.45L156.46 28.93ZM131.69 22.21V7.49001C131.69 5.84001 130.72 4.74001 128.98 4.74001C127.24 4.74001 126.32 5.84001 126.32 7.49001V22.21C126.32 23.86 127.29 24.96 128.98 24.96C130.67 24.96 131.69 23.86 131.69 22.21ZM136.98 21.87C136.98 26.35 133.94 29.57 128.99 29.57C124.04 29.57 121 26.36 121 21.87V7.83C121 3.39 124.09 0.170006 128.99 0.170006C133.89 0.170006 136.98 3.38 136.98 7.83V21.87ZM108.86 28.93V0.760002H104.12V17.47L102.26 12.99L97.06 0.770004H92.53V28.94H97.35V12.45L99.34 16.93L104.8 28.94H108.86V28.93ZM84.09 22.21V7.49001C84.09 5.84001 83.11 4.74001 81.38 4.74001C79.65 4.74001 78.72 5.84001 78.72 7.49001V22.21C78.72 23.86 79.69 24.96 81.38 24.96C83.07 24.96 84.09 23.86 84.09 22.21ZM89.38 21.87C89.38 26.35 86.33 29.57 81.39 29.57C76.45 29.57 73.4 26.36 73.4 21.87V7.83C73.4 3.39 76.49 0.170006 81.39 0.170006C86.29 0.170006 89.38 3.38 89.38 7.83V21.87ZM70.98 5.42001V0.770004H55.33V5.42001H60.53V28.94H65.82V5.42001H70.98ZM52.93 5.42001V0.770004H37.28V5.42001H42.48V28.94H47.77V5.42001H52.93ZM29.59 22.21V7.49001C29.59 5.84001 28.62 4.74001 26.88 4.74001C25.14 4.74001 24.22 5.84001 24.22 7.49001V22.21C24.22 23.86 25.19 24.96 26.88 24.96C28.57 24.96 29.59 23.86 29.59 22.21ZM34.88 21.87C34.88 26.35 31.83 29.57 26.89 29.57C21.95 29.57 18.9 26.36 18.9 21.87V7.83C18.9 3.39 21.99 0.170006 26.89 0.170006C31.79 0.170006 34.88 3.38 34.88 7.83V21.87ZM15.73 22.21C15.73 26.44 13.11 29.57 8.12 29.57C3.13 29.57 0 26.19 0 21.83V7.87C0 3.51 3.09 0.130005 8.12 0.130005C13.15 0.130005 15.73 3.26001 15.73 7.49001V10.92H11.03V7.54C11.03 5.89 10.1 4.75 8.2 4.75C6.3 4.75 5.32 5.89001 5.32 7.46001V22.26C5.32 23.82 6.29 24.97 8.2 24.97C10.11 24.97 11.03 23.83 11.03 22.18V18.8H15.73V22.23V22.21Z" fill="#E6313E"/>
</svg>
