<svg width="111" height="81" viewBox="0 0 111 81" fill="none" xmlns="http://www.w3.org/2000/svg">
<path d="M19.193 25.8978C19.543 25.1178 19.873 24.5678 20.183 24.2478C20.733 23.6778 21.413 23.3378 22.233 23.2178C22.933 23.1178 23.613 23.2178 24.273 23.5178C24.873 23.7878 25.353 24.1878 25.723 24.7078C26.203 25.3978 26.423 26.1278 26.393 26.8978C26.373 27.3578 26.203 27.9378 25.893 28.6178L25.493 29.5078L27.883 30.5878L28.323 29.6178C28.723 28.7278 28.963 27.9278 29.043 27.2278C29.173 25.9178 28.843 24.6578 28.083 23.4478C27.413 22.3878 26.503 21.6078 25.353 21.0878C24.173 20.5578 22.953 20.4078 21.683 20.6378C20.333 20.8878 19.223 21.4678 18.363 22.3578C17.833 22.9078 17.363 23.6478 16.933 24.5778L16.543 25.4478L18.933 26.5278L19.213 25.9078L19.193 25.8978Z" fill="#0A2240"/>
<path d="M15.912 26.787L14.8062 29.2282L26.156 34.3695L27.2618 31.9283L15.912 26.787Z" fill="#0A2240"/>
<path d="M31.9033 11.2779C32.7733 11.4179 33.5133 11.8179 34.1133 12.4679C34.5233 12.9079 34.8133 13.4179 34.9833 14.0079C35.1533 14.5779 35.1833 15.1679 35.0733 15.7779C34.9833 16.3279 34.7533 16.8579 34.3933 17.3779L36.2433 19.3679C36.6233 18.9279 36.9133 18.4779 37.1333 18.0179C37.7433 16.7779 37.9433 15.4679 37.7333 14.0979C37.5333 12.7679 36.9733 11.6179 36.0633 10.6479C35.4133 9.94792 34.6433 9.41793 33.7633 9.04793C32.8833 8.68793 31.9733 8.52792 31.0433 8.55792C29.7233 8.60792 28.5033 9.03793 27.3833 9.81793L29.2333 11.8079C30.1333 11.3179 31.0333 11.1479 31.9233 11.2879" fill="#0A2240"/>
<path d="M26.4533 19.5578C27.1233 20.2778 27.9133 20.8178 28.8333 21.1878C29.7333 21.5378 30.6633 21.6878 31.6233 21.6378C32.9133 21.5678 34.0833 21.1478 35.1433 20.3878L33.2933 18.3978C32.4233 18.9078 31.5233 19.0778 30.5733 18.9178C29.7233 18.7678 29.0033 18.3778 28.4233 17.7478C27.9933 17.2778 27.6833 16.7378 27.5133 16.1178C27.3633 15.5578 27.3433 14.9978 27.4433 14.4378C27.5333 13.9178 27.7633 13.3778 28.1133 12.8178L26.2633 10.8278C25.8933 11.2778 25.5933 11.7378 25.3733 12.1878C24.7433 13.5078 24.5533 14.8578 24.8033 16.2378C25.0333 17.5078 25.5833 18.6078 26.4533 19.5478" fill="#0A2240"/>
<path d="M46.5731 4.70776L48.0231 2.45776C47.2731 1.93776 46.4531 1.59775 45.5531 1.43775C44.7131 1.29775 43.8531 1.31775 42.9731 1.49775L43.8431 4.06776C44.8131 3.92776 45.7131 4.14775 46.5631 4.71775" fill="#0A2240"/>
<path d="M46.3232 11.3279L47.1932 13.8979C48.8532 13.1079 49.9932 11.8179 50.6232 10.0279L48.0932 9.1579C47.7732 10.1079 47.1832 10.8279 46.3232 11.3279Z" fill="#0A2240"/>
<path d="M39.6834 12.5679C40.4034 13.2979 41.2534 13.8279 42.2334 14.1579C43.3434 14.5379 44.5333 14.6179 45.7833 14.3779L44.9134 11.8179C43.7934 11.9079 42.8333 11.6579 42.0433 11.0779C41.3933 10.5879 40.9333 9.96794 40.6733 9.20794C40.5033 8.69794 40.4334 8.15794 40.4834 7.59794C40.5334 7.01794 40.7033 6.48793 40.9733 5.99793C41.2933 5.43793 41.7733 4.94793 42.4233 4.52793L41.5533 1.95794C39.8433 2.83794 38.7033 4.13793 38.1233 5.83793C37.6433 7.24793 37.6533 8.64794 38.1233 10.0679C38.4433 11.0179 38.9634 11.8579 39.6634 12.5579" fill="#0A2240"/>
<path d="M53.1342 0.570011L52.4951 13.0136L55.1716 13.1511L55.8107 0.70747L53.1342 0.570011Z" fill="#0A2240"/>
<path d="M64.0734 1.13796L60.7834 0.977959L58.7134 3.56797L60.2634 5.88796L64.0734 1.13796Z" fill="#0A2240"/>
<path d="M63.5531 13.5877L57.7231 4.76775L55.9731 6.97775L60.2531 13.4177L63.5531 13.5877Z" fill="#0A2240"/>
<path d="M72.7997 9.64826L71.5244 11.9255L75.8084 14.3246L77.0837 12.0474L72.7997 9.64826Z" fill="#0A2240"/>
<path d="M71.5472 3.28342L65.459 14.1547L67.7973 15.4642L73.8855 4.59292L71.5472 3.28342Z" fill="#0A2240"/>
<path d="M75.2152 5.36432L73.9399 7.64153L78.2152 10.0358L79.4905 7.75856L75.2152 5.36432Z" fill="#0A2240"/>
<path d="M70.3998 13.9383L69.1245 16.2155L73.3998 18.6098L74.6751 16.3325L70.3998 13.9383Z" fill="#0A2240"/>
<path d="M85.8033 17.4878C86.1633 17.9078 86.3633 18.2578 86.4033 18.5378C86.4633 18.8978 86.3333 19.2078 86.0233 19.4778C85.6533 19.7978 85.2533 19.8578 84.8333 19.6478C84.6133 19.5378 84.3233 19.2878 83.9833 18.8878L83.4133 18.2278L81.4233 19.9378L82.0833 20.7078C82.6433 21.3578 83.1533 21.7978 83.6133 22.0278C84.3133 22.3778 85.0733 22.4878 85.8733 22.3478C86.5833 22.2278 87.2033 21.9378 87.7333 21.4778C88.3033 20.9878 88.6933 20.3778 88.9033 19.6578C89.1333 18.8578 89.0933 18.0678 88.7833 17.2878C88.6033 16.8478 88.2333 16.2978 87.6833 15.6578L87.1333 15.0178L85.1433 16.7378L85.7933 17.4978L85.8033 17.4878Z" fill="#0A2240"/>
<path d="M81.2834 21.4279L79.2734 24.9479L81.1234 27.0979L83.4534 23.0579C82.7234 22.7579 81.9934 22.2179 81.2834 21.4279Z" fill="#0A2240"/>
<path d="M84.3985 11.847L74.9536 19.9738L76.7016 22.0053L86.1465 13.8785L84.3985 11.847Z" fill="#0A2240"/>
<path d="M87.8333 26.5778C87.6633 27.1078 87.6333 27.7478 87.7533 28.5178L90.4533 28.6278C90.3733 28.2078 90.3233 27.9278 90.3233 27.8078C90.3233 27.3878 90.5033 27.0978 90.8633 26.9378C91.0833 26.8378 91.3033 26.8078 91.5333 26.8578C91.8433 26.9178 92.0733 27.1078 92.2133 27.4178C92.4433 27.9278 92.2533 28.3678 91.6533 28.7478L92.8033 31.2678C93.9733 30.6478 94.6733 29.7778 94.9033 28.6478C95.0533 27.8678 94.9533 27.1078 94.6033 26.3378C94.1433 25.3378 93.4233 24.6678 92.4333 24.3378C91.5333 24.0378 90.6333 24.0878 89.7433 24.4978C88.7733 24.9378 88.1333 25.6378 87.8133 26.5778" fill="#0A2240"/>
<path d="M85.2231 34.158C86.2531 34.488 87.2631 34.428 88.2631 33.968C89.8231 33.258 90.6031 31.988 90.5931 30.158L87.9131 30.0379C87.9131 30.3979 87.8731 30.678 87.7731 30.878C87.6331 31.178 87.4031 31.3979 87.0831 31.5379C86.7331 31.6979 86.3831 31.728 86.0231 31.618C85.6131 31.508 85.3231 31.248 85.1331 30.838C84.9431 30.428 84.9431 30.0279 85.1131 29.6479C85.2331 29.3679 85.4831 29.118 85.8531 28.878L84.7531 26.468C83.5031 27.128 82.7431 28.078 82.4731 29.318C82.2731 30.208 82.3631 31.078 82.7431 31.918C83.2431 33.018 84.0631 33.758 85.2031 34.138" fill="#0A2240"/>
<path d="M95.5332 31.5979H95.7432L96.0832 32.1479H96.3532L95.9832 31.5879C96.2632 31.5479 96.3232 31.3779 96.3232 31.2279C96.3232 30.9879 96.1732 30.8679 95.8632 30.8679H95.3032V32.1479H95.5232V31.5979H95.5332ZM95.5332 31.0579H95.8332C96.0232 31.0579 96.0932 31.1079 96.0932 31.2279C96.0932 31.3779 95.9932 31.3979 95.8232 31.3979H95.5332V31.0479V31.0579Z" fill="#0A2240"/>
<path d="M94.603 31.5278C94.603 32.1778 95.123 32.6978 95.773 32.6978C96.423 32.6978 96.943 32.1778 96.943 31.5278C96.943 30.8778 96.423 30.3578 95.773 30.3578C95.123 30.3578 94.603 30.8778 94.603 31.5278ZM95.773 30.5779C96.303 30.5779 96.693 30.9978 96.693 31.5278C96.693 32.0578 96.303 32.4678 95.773 32.4678C95.243 32.4678 94.853 32.0478 94.853 31.5278C94.853 31.0078 95.243 30.5779 95.773 30.5779Z" fill="#0A2240"/>
<path d="M70.353 33.3179C71.403 33.3179 72.243 32.4878 72.243 31.4678C72.243 30.4478 71.403 29.6078 70.353 29.6078C69.683 29.6078 69.093 29.9579 68.763 30.4879C67.683 30.4279 65.123 30.3878 63.603 30.3678C63.683 31.0378 63.723 31.7379 63.683 32.4379C65.593 32.4179 68.173 32.4079 68.743 32.4079C69.073 32.9479 69.663 33.3179 70.353 33.3179Z" fill="#0A2240"/>
<path d="M64.1233 63.3078C64.5233 64.0178 64.8533 64.8678 65.1233 65.8378C66.3233 65.2778 67.6233 64.5378 68.8333 63.6778C69.2633 63.3678 72.3033 60.7778 72.6933 60.4578C73.5433 59.7578 74.7733 59.9078 75.4133 60.2078C75.7333 60.3378 76.3533 60.7578 76.5833 60.9478L76.1133 52.7678L68.7033 55.0778C69.0333 55.3778 69.5233 55.8678 69.6633 56.1978C70.1133 56.9278 70.2233 58.2277 69.9433 58.8477C69.2833 60.1477 67.0933 62.1278 64.1133 63.2978" fill="#0A2240"/>
<path d="M40.2733 58.8578C39.9933 58.2478 40.1133 56.9378 40.5533 56.2078C40.6933 55.8778 41.1833 55.3878 41.5133 55.0878L34.1033 52.7778L33.6333 60.9578C33.8633 60.7678 34.4833 60.3478 34.8033 60.2178C35.4433 59.9178 36.6733 59.7678 37.5233 60.4678C37.9133 60.7878 40.9533 63.3778 41.3833 63.6878C47.9033 68.3878 55.0933 68.1078 55.0933 68.1078C55.0933 68.1078 57.5733 68.2978 61.2933 67.2278C61.1433 66.1578 60.7333 64.9678 60.2033 64.2778C59.3333 64.4078 58.3633 64.4978 57.5333 64.4978C57.4333 64.4978 57.2333 64.4378 57.2233 64.1978C57.2233 64.1678 57.2033 63.2678 57.1733 61.7978C56.2133 61.2978 54.8133 60.6178 53.0333 59.8478C52.9833 62.4478 52.9433 64.1578 52.9433 64.1978C52.9433 64.4378 52.7333 64.4978 52.6333 64.4978C51.4033 64.4978 49.8833 64.2978 48.8133 64.0778C48.0333 63.9178 47.2333 63.7478 46.1333 63.3478C43.1133 62.1778 40.8933 60.1778 40.2333 58.8678" fill="#0A2240"/>
<path d="M57.1834 32.5179H57.2034C57.4834 32.5179 57.9434 32.4979 58.4334 32.4779C58.8634 32.4779 59.3734 32.4779 59.9134 32.4679C59.9734 31.7479 59.9134 31.0279 59.7934 30.3279C58.6934 30.3279 57.7134 30.3279 57.2034 30.3279H57.1134C56.8034 30.3279 56.5534 30.0779 56.5534 29.7679V29.7479L56.4934 27.0479C56.4934 26.7379 55.8234 26.6079 55.1134 26.6179C54.4034 26.6079 53.7334 26.7379 53.7334 27.0479L53.6734 29.7479V29.7679C53.6734 30.0779 53.4234 30.3279 53.1134 30.3279H53.0234H52.8334C52.0434 30.3279 44.4134 30.3279 41.4534 30.4879C41.1234 29.9579 40.5334 29.6079 39.8534 29.6079C38.8234 29.6079 37.9834 30.4379 37.9834 31.4679C37.9834 32.4979 38.8234 33.3179 39.8534 33.3179C40.5434 33.3179 41.1434 32.9479 41.4734 32.4079C42.3834 32.4079 49.0534 32.4579 51.8034 32.4879C52.2934 32.4979 52.7534 32.5179 53.0334 32.5179H53.0534C53.3634 32.5179 53.6134 32.7679 53.6134 33.0779V33.1079C53.6134 33.2779 53.6134 33.6279 53.5934 34.1279L53.4934 38.8879C53.3934 43.6579 53.2534 50.4279 53.1434 55.7679C54.4334 56.3079 55.8334 56.9179 57.1134 57.5279C57.0034 51.9979 56.8434 44.1979 56.7334 38.8879L56.6334 34.1279C56.6334 33.6279 56.6234 33.2779 56.6134 33.1079V33.0779C56.6134 32.7679 56.8634 32.5179 57.1734 32.5179" fill="#0A2240"/>
<path d="M44.1833 34.0978C43.7533 34.0078 43.3433 34.2678 43.2433 34.6978C43.1533 35.1278 43.4133 35.5478 43.8433 35.6378C44.5933 35.8078 45.3533 35.9678 46.1133 36.1278C48.1933 36.5678 50.2933 37.0178 52.3433 37.6178L52.3733 35.9778C50.4133 35.4278 48.4133 35.0078 46.4433 34.5878C45.6833 34.4278 44.9333 34.2678 44.1933 34.1078" fill="#0A2240"/>
<path d="M58.4433 40.1278L59.5633 38.9678C59.8033 38.6978 60.0333 38.4178 60.2533 38.1278C62.3933 35.3478 63.4833 31.3578 61.7233 27.1078C61.6233 26.8778 61.5233 26.6378 61.4033 26.3978V26.3678C60.5633 24.6878 59.7233 23.7378 59.7233 23.7378L59.6033 23.5878C59.0233 22.8578 58.3433 22.1278 57.5633 21.3978C57.2433 21.0978 56.7433 21.1178 56.4533 21.4378C56.1533 21.7578 56.1733 22.2578 56.4933 22.5478C57.0933 23.1078 57.6633 23.7178 58.1933 24.3678L58.4633 24.7178C59.5933 26.2578 59.9033 27.0478 59.9033 27.0478L60.0133 27.2678C60.0933 27.4378 60.1633 27.6078 60.2333 27.7778C61.4333 30.6978 61.4033 33.9978 58.9933 37.1478C58.7233 37.4978 58.4433 37.8278 58.1433 38.1578L57.9033 38.4178C57.9133 38.9478 57.9233 39.9678 57.9333 40.5478C58.0933 40.3978 58.2633 40.2578 58.4233 40.1078" fill="#0A2240"/>
<path d="M60.9431 39.9279L59.9431 41.1479C61.4131 42.2779 62.3831 43.5579 62.8231 44.9779C64.0431 48.8779 61.5231 51.5879 58.2231 53.8279C58.2331 54.4579 58.2531 55.0779 58.2631 55.6879C62.3431 53.0879 65.9631 49.7479 64.3331 44.5079C63.8031 42.7879 62.6531 41.2579 60.9431 39.9379" fill="#0A2240"/>
<path d="M55.1234 25.418C55.9534 25.418 56.7434 25.198 57.4134 24.808L56.2034 23.578C55.8734 23.708 55.5034 23.778 55.1234 23.778C53.4834 23.778 52.1634 22.448 52.1634 20.818C52.1634 19.188 53.4934 17.858 55.1234 17.858C56.7534 17.858 58.0434 19.138 58.0834 20.748C58.0834 20.778 58.0834 20.798 58.0834 20.828L59.5234 22.168C59.6534 21.748 59.7234 21.298 59.7234 20.828C59.7234 18.288 57.6634 16.228 55.1234 16.228C52.5834 16.228 50.5234 18.288 50.5234 20.828C50.5234 23.368 52.5834 25.428 55.1234 25.428" fill="#0A2240"/>
<path d="M52.2032 59.4677L50.5932 58.7377C49.0732 59.8977 48.0232 61.2677 47.3232 62.5377C47.6932 62.6377 48.5032 62.8677 48.9232 62.9677C49.7432 61.5077 51.7332 59.7177 52.2032 59.4677Z" fill="#0A2240"/>
<path d="M109.793 37.388C109.553 37.148 109.343 36.998 109.033 36.978C109.033 36.978 80.0834 36.978 71.2234 36.978H70.5733C68.1033 36.978 66.1033 38.978 66.1033 41.438V41.908C66.1133 46.958 66.1033 57.9279 66.1033 60.8779C66.5033 60.6579 67.3433 60.1279 67.7333 59.7879C67.9933 59.5579 68.3633 59.138 68.5033 58.978C69.2533 58.138 68.8733 57.138 68.4533 56.548C68.1833 56.088 67.8834 55.758 67.4434 55.248L66.7433 54.4679C66.7433 54.4679 73.3433 52.408 75.8233 51.618H75.8433C76.2233 51.488 76.5134 51.398 76.6534 51.348L77.2634 51.1479L77.3433 52.658L77.9333 63.138L77.9133 63.118C77.9133 63.118 76.4033 61.968 75.7333 61.548C75.5333 61.428 75.3233 61.318 75.1133 61.238C74.7934 61.088 74.5133 61.038 74.2333 61.078C74.2033 61.078 74.1733 61.0879 74.1333 61.0979C74.0033 61.1179 73.8733 61.1579 73.7433 61.2179C73.6233 61.2779 73.4233 61.4279 73.1833 61.6279C73.1133 61.6879 73.0333 61.7479 72.9533 61.8179C72.9033 61.8679 72.8433 61.9179 72.7833 61.9679C72.0134 62.6279 71.0333 63.538 70.4533 64.048C70.3133 64.168 70.1634 64.2879 70.0134 64.4079C69.1433 65.0879 68.0633 65.8179 67.2234 66.3179C67.0534 66.4179 66.8734 66.518 66.6833 66.618L66.0834 66.9379V66.958C65.4134 67.288 64.7433 67.598 64.0533 67.868C64.0533 67.828 64.0533 67.798 64.0533 67.7579C64.0233 66.038 63.4833 64.288 62.4233 62.798C60.5833 60.208 57.5433 58.848 54.7633 57.698L52.9333 56.9379C52.7034 56.8379 52.4833 56.748 52.2633 56.648C51.7233 56.408 51.2633 56.178 50.8433 55.948C50.7034 55.868 50.5633 55.788 50.4233 55.708C48.8533 54.778 47.9333 53.808 47.6033 52.738C46.9333 50.548 48.3134 48.518 49.5933 47.208C50.3834 46.398 51.2533 45.668 52.1533 44.968C52.1633 44.288 52.1833 43.618 52.1933 42.968C50.9033 43.918 49.6133 44.928 48.4633 46.108C46.2034 48.428 45.3834 50.888 46.0933 53.208C46.5434 54.678 47.7034 55.9379 49.6233 57.0679C49.7733 57.1579 49.9333 57.248 50.0933 57.328C50.4633 57.528 50.8633 57.7279 51.3033 57.9379L53.0633 58.698C53.2633 58.778 53.4533 58.8579 53.6533 58.9379C56.5033 60.1079 59.4633 61.328 61.1533 63.708C62.0533 64.968 62.4933 66.4479 62.4933 67.8779C62.4933 68.0579 62.4733 68.238 62.4633 68.428C55.9533 70.468 48.9233 69.598 42.3333 65.858C41.6433 65.418 40.9133 64.918 40.2633 64.418C40.1133 64.298 39.9633 64.178 39.8233 64.058C39.2433 63.558 38.2533 62.638 37.4933 61.978C37.4333 61.928 37.3733 61.878 37.3233 61.828C37.2433 61.758 37.1633 61.698 37.0933 61.638C36.8533 61.438 36.6533 61.298 36.5333 61.228C36.4033 61.158 36.2733 61.128 36.1433 61.108C36.1133 61.108 36.0833 61.098 36.0433 61.088C35.7633 61.038 35.4833 61.098 35.1633 61.248C34.9534 61.328 34.7533 61.438 34.5433 61.558C33.8733 61.968 32.3633 63.1279 32.3633 63.1279L32.3433 63.148L32.9333 52.668L33.0133 51.158L33.6233 51.358C33.7633 51.408 34.0434 51.498 34.4333 51.618H34.4533C36.9333 52.408 43.5333 54.4679 43.5333 54.4679L42.8333 55.248C42.3933 55.748 42.1033 56.088 41.8233 56.548C41.4034 57.138 41.0233 58.128 41.7733 58.978C41.9133 59.138 42.2933 59.5579 42.5433 59.7879C42.9333 60.1279 43.7833 60.6579 44.1733 60.8779C44.1733 57.9279 44.1733 46.958 44.1733 41.908V41.438C44.1733 38.968 42.1833 36.968 39.7133 36.968H39.0633C30.2033 36.968 1.25335 36.968 1.25335 36.968C0.943347 36.988 0.733347 37.138 0.493347 37.378C-0.356653 38.198 0.113347 39.8279 0.283347 40.2579C0.803347 41.6679 2.32335 42.888 3.76335 43.098H23.7133C23.7833 43.098 24.1333 43.158 24.3333 43.458C24.4833 43.668 24.6633 43.968 24.6333 44.468L24.6133 44.908H9.62335C9.18335 44.928 8.87335 45.188 8.63335 45.548C7.96335 46.498 8.50335 47.958 8.68335 48.388C9.19335 49.648 10.5333 50.758 11.7933 51.028H26.4333C26.5033 51.028 26.8533 51.088 27.0633 51.388C27.2133 51.598 27.3933 51.8979 27.3633 52.3979L27.3433 52.838H17.9633C17.5233 52.858 17.2133 53.118 16.9733 53.478C16.3033 54.428 16.8433 55.8879 17.0233 56.3179C17.5333 57.5779 18.8733 58.6879 20.1333 58.9679H29.1833C29.2533 58.9679 29.6033 59.028 29.8033 59.328C29.9533 59.538 30.1333 59.838 30.1033 60.338L30.0833 60.778H26.9433C25.9233 60.778 25.6133 61.3579 25.3933 61.7879C25.0933 62.3579 25.0633 63.1379 25.4533 64.3179C25.9833 65.5779 27.2933 66.668 28.4633 66.898H31.9033L31.8333 69.108L23.8033 69.1279L25.1033 70.458C25.3333 70.698 30.8233 76.288 38.1433 80.118C38.3933 80.248 38.6534 80.308 38.9133 80.308C39.4934 80.308 40.0434 80.0079 40.3633 79.478C40.7034 78.8979 41.0633 78.298 41.4233 77.698C45.9433 79.548 50.7033 80.518 55.4433 80.518C60.1833 80.518 64.6634 79.588 68.9333 77.808C69.2733 78.368 69.6033 78.928 69.9333 79.478C70.2433 80.0079 70.8033 80.308 71.3833 80.308C71.6433 80.308 71.9134 80.248 72.1534 80.118C79.4834 76.288 84.9633 70.698 85.1934 70.458L86.4933 69.1279L78.4633 69.108L78.3933 66.898H81.8334C83.0033 66.668 84.3133 65.5779 84.8433 64.3179C85.2333 63.1379 85.2034 62.3579 84.9034 61.7879C84.6833 61.3679 84.3733 60.778 83.3533 60.778H80.2133L80.1934 60.338C80.1634 59.848 80.3433 59.538 80.4933 59.328C80.7033 59.028 81.0534 58.9779 81.1133 58.9679H90.1633C91.4133 58.6979 92.7533 57.5779 93.2733 56.3179C93.4633 55.8879 94.0033 54.438 93.3233 53.478C93.0834 53.118 92.7734 52.868 92.3334 52.838H82.9533L82.9333 52.3979C82.9034 51.9079 83.0833 51.598 83.2333 51.388C83.4433 51.088 83.7934 51.038 83.8633 51.028H98.5033C99.7533 50.758 101.093 49.648 101.613 48.388C101.803 47.958 102.343 46.508 101.663 45.548C101.423 45.188 101.113 44.938 100.673 44.908H85.6833L85.6633 44.468C85.6333 43.978 85.8133 43.668 85.9633 43.458C86.1733 43.158 86.5234 43.108 86.5834 43.098H106.533C107.973 42.888 109.493 41.6679 110.013 40.2579C110.183 39.8279 110.653 38.208 109.803 37.378M39.0233 78.648C39.0233 78.648 38.9333 78.7079 38.8933 78.6879C33.9133 76.0879 29.7233 72.5479 27.6433 70.6579L33.3733 70.638L33.5233 66.118C34.4034 66.758 35.6933 67.668 37.1833 68.648L34.8633 72.198C34.6133 72.578 34.5333 73.038 34.6233 73.488C34.7233 73.928 34.9833 74.308 35.3633 74.548C36.8633 75.488 38.4033 76.3079 39.9833 77.0379C39.5434 77.7679 39.1833 78.368 39.0233 78.648ZM69.5834 75.7879C69.1033 76.0079 68.6133 76.218 68.1233 76.418C64.1033 78.058 59.8233 78.9079 55.4633 78.9079C51.1033 78.9079 46.5434 78.018 42.2833 76.298C41.7933 76.098 41.3033 75.898 40.8133 75.678C39.2433 74.968 37.7033 74.148 36.2033 73.208C36.1833 73.198 36.1733 73.178 36.1633 73.148C36.1633 73.128 36.1633 73.0979 36.1833 73.0679L38.5133 69.518L39.3733 68.198L40.3833 66.6579C40.3833 66.6579 40.4333 66.618 40.4733 66.618C40.4933 66.618 40.5233 66.618 40.5433 66.638C50.0433 72.508 60.9833 72.5279 69.7934 66.6879C69.8434 66.6579 69.9133 66.648 69.9533 66.708L71.0033 68.1879L71.9133 69.478L74.3833 72.9679C74.3833 72.9679 74.4034 73.038 74.4034 73.048C74.4034 73.078 74.3833 73.098 74.3633 73.108C72.8334 74.138 71.2333 75.028 69.5933 75.7879M82.6934 70.6579C80.6133 72.5479 76.4234 76.0879 71.4434 78.6879C71.4434 78.6879 71.3433 78.688 71.3133 78.648C71.1533 78.378 70.8233 77.828 70.4133 77.138C72.0733 76.358 73.6933 75.4479 75.2433 74.4079C75.6133 74.1579 75.8733 73.768 75.9533 73.328C76.0333 72.888 75.9333 72.418 75.6733 72.048L73.2433 68.608C74.7033 67.638 75.9633 66.748 76.8233 66.118L76.9734 70.638L82.7033 70.6579H82.6934Z" fill="#0A2240"/>
<path d="M39.9731 73.5079L42.0931 74.4679L42.4531 73.6779L41.2031 73.1079L41.5531 72.338L42.4731 72.7579L42.8331 71.9679L41.9131 71.5479L42.2131 70.8879L43.4231 71.4379L43.7831 70.6479L41.7031 69.6979L39.9731 73.5079Z" fill="#0A2240"/>
<path d="M46.1733 71.3879C45.4033 71.1479 44.8033 71.4379 44.5833 72.1679C44.3833 72.8079 44.8233 73.248 45.2033 73.648C45.4933 73.938 45.7433 74.198 45.6533 74.458C45.5833 74.678 45.4033 74.778 45.1933 74.708C45.0133 74.658 44.8433 74.4379 44.8933 74.0179V73.9179L43.9333 73.838V73.9379C43.8833 74.9579 44.4433 75.338 44.9133 75.488C45.0933 75.548 45.2733 75.5679 45.4333 75.5679C45.6233 75.5679 45.8033 75.528 45.9633 75.458C46.2533 75.318 46.4733 75.058 46.5733 74.708C46.8033 73.948 46.3033 73.4479 45.9033 73.0379C45.6633 72.7879 45.4433 72.578 45.5033 72.398C45.5533 72.248 45.6533 72.0879 45.9133 72.1679C46.0633 72.2179 46.2033 72.318 46.2233 72.748V72.838L47.1233 72.8479V72.7579C47.1733 72.0879 46.8133 71.5779 46.1733 71.3779" fill="#0A2240"/>
<path d="M48.2832 72.9378L49.1632 73.1078L48.5632 76.3578L49.5032 76.5278L50.1032 73.2778L50.9732 73.4378L51.1332 72.5878L48.4432 72.0878L48.2832 72.9378Z" fill="#0A2240"/>
<path d="M51.5224 75.813L51.4233 76.788L52.3983 76.8871L52.4974 75.9121L51.5224 75.813Z" fill="#0A2240"/>
<path d="M57.3734 72.7179L57.3034 72.8279C57.1634 73.0479 57.0634 73.2079 56.5834 73.3379L56.5034 73.3579L56.5534 73.9679L57.1634 73.9179L57.4034 76.9579L58.2934 76.8879L57.9634 72.6679L57.3834 72.7179H57.3734Z" fill="#0A2240"/>
<path d="M62.6034 73.4078C62.5134 72.9678 62.3234 72.6278 62.0334 72.4278C61.7334 72.2178 61.3534 72.1478 60.9134 72.2378C60.4634 72.3278 60.1334 72.5378 59.9534 72.8578C59.7834 73.1578 59.7434 73.5278 59.8334 73.9678C59.9034 74.3078 60.0634 74.5978 60.2934 74.7878C60.5434 74.9978 60.8634 75.0678 61.2134 74.9978C61.4634 74.9478 61.7034 74.8278 61.9134 74.6378L61.9534 74.8178C62.0734 75.4278 61.9234 75.5678 61.5934 75.6378C61.3734 75.6778 61.1734 75.5578 61.1234 75.3478L61.1034 75.2578L60.1934 75.4378L60.2234 75.5378C60.3934 76.1478 60.8234 76.4778 61.4134 76.4778C61.5234 76.4778 61.6334 76.4678 61.7534 76.4478C62.1934 76.3578 62.5234 76.1578 62.7134 75.8478C62.9034 75.5478 62.9534 75.1578 62.8734 74.7178L62.6134 73.4078H62.6034ZM61.3034 74.2078C60.9934 74.2678 60.8034 74.1178 60.7334 73.7678C60.6934 73.5678 60.7034 73.3978 60.7634 73.2778C60.8234 73.1578 60.9234 73.0878 61.0734 73.0578C61.1334 73.0478 61.1834 73.0378 61.2334 73.0378C61.3334 73.0378 61.4034 73.0678 61.4734 73.1178C61.5834 73.2078 61.6634 73.3878 61.7134 73.6778L61.7434 73.8478C61.6134 74.0178 61.4734 74.1778 61.2934 74.2078" fill="#0A2240"/>
<path d="M66.1434 72.8878C66.3034 72.6278 66.3433 72.2878 66.2333 71.9578C66.1133 71.5978 65.8834 71.3478 65.5734 71.2378C65.2934 71.1378 64.9533 71.1478 64.5933 71.2678C64.2333 71.3878 63.9533 71.5878 63.7933 71.8378C63.6133 72.1178 63.5833 72.4578 63.7033 72.8078C63.8133 73.1378 64.0534 73.3878 64.3334 73.4978C64.0934 73.7778 64.0434 74.1378 64.1834 74.5678C64.3134 74.9478 64.5533 75.2178 64.8833 75.3478C65.0333 75.4078 65.1933 75.4278 65.3533 75.4278C65.5433 75.4278 65.7334 75.3978 65.9434 75.3278C66.3334 75.1978 66.6333 74.9778 66.8033 74.7078C66.9933 74.4078 67.0234 74.0478 66.8934 73.6578C66.7534 73.2278 66.4933 72.9678 66.1333 72.8878M64.7934 72.7978C64.6934 72.7478 64.6233 72.6678 64.5933 72.5678C64.5533 72.4578 64.5634 72.3478 64.6134 72.2578C64.6634 72.1578 64.7433 72.0878 64.8533 72.0478C65.0733 71.9778 65.2933 72.0878 65.3733 72.3078C65.4033 72.4078 65.4033 72.5178 65.3533 72.6178C65.3033 72.7178 65.2234 72.7878 65.1134 72.8178C65.0134 72.8478 64.9033 72.8478 64.8033 72.7978M65.6934 74.5378C65.3634 74.6478 65.1633 74.5578 65.0633 74.2478C65.0133 74.0978 65.0134 73.9578 65.0734 73.8478C65.1334 73.7378 65.2333 73.6478 65.3833 73.5978C65.6833 73.4978 65.9233 73.6278 66.0233 73.9278C66.1233 74.2478 66.0234 74.4378 65.6934 74.5478" fill="#0A2240"/>
<path d="M69.963 71.0577C69.663 70.9177 69.343 70.9277 69.013 71.0877C68.783 71.1977 68.583 71.3777 68.423 71.6177L68.343 71.4477C68.213 71.1877 68.173 70.9877 68.203 70.8577C68.233 70.7377 68.313 70.6477 68.483 70.5677C68.683 70.4677 68.913 70.5377 69.013 70.7277L69.053 70.8077L69.893 70.4077L69.843 70.3177C69.473 69.6677 68.833 69.4877 68.133 69.8177C67.733 70.0077 67.463 70.2977 67.353 70.6377C67.243 70.9777 67.293 71.3677 67.483 71.7677L68.063 72.9677C68.343 73.5477 68.773 73.8577 69.293 73.8577C69.513 73.8577 69.753 73.7977 69.993 73.6777C70.793 73.2877 71.023 72.5777 70.613 71.7277C70.463 71.4177 70.233 71.1677 69.963 71.0477M69.633 72.9277C69.333 73.0677 69.123 73.0377 68.853 72.4877L68.773 72.3277C68.853 72.1277 68.953 71.9477 69.113 71.8677C69.393 71.7377 69.623 71.8277 69.773 72.1577C69.863 72.3477 69.893 72.5077 69.873 72.6377C69.843 72.7677 69.763 72.8677 69.623 72.9277" fill="#0A2240"/>
</svg>
