<svg width="263" height="12" viewBox="0 0 263 12" fill="none" xmlns="http://www.w3.org/2000/svg">
<path d="M0.910583 0.257996L11.4406 0.268005V1.478H2.41058V4.998L11.0906 5.008V6.228L2.41058 6.218L2.40057 11.308H0.910583V0.257996Z" fill="#252223"/>
<path d="M15.0707 0.257996H23.9007C27.0907 0.257996 27.5907 1.318 27.5807 3.388V4.28799C27.5807 5.84799 26.7007 6.26801 25.5507 6.37801V6.408C27.0807 6.688 27.4507 7.47799 27.4507 8.48799V11.318H26.0507V8.888C26.0507 7.168 25.2107 6.948 23.8507 6.948H16.5607V11.308H15.0607V0.257996H15.0707ZM23.7307 5.728C25.4007 5.728 26.1007 5.28801 26.1007 4.12801V3.118C26.1007 1.878 25.5607 1.488 23.3707 1.478H16.5707V5.718H23.7307V5.728Z" fill="#252223"/>
<path d="M31.6606 0.268005H42.5106V1.48799H33.1606V5.008H42.1506V6.23799H33.1606L33.1506 10.098H42.5706V11.318H31.6606V0.268005Z" fill="#252223"/>
<path d="M46.2006 0.278015H48.4306L58.5406 9.98801L58.5506 0.278015H60.0406L60.0306 11.318H57.8006L47.6906 1.60802V11.318H46.2006V0.278015Z" fill="#252223"/>
<path d="M64.0308 4.28813C64.0308 1.49813 64.9708 0.158142 67.9708 0.158142H73.6908C76.4108 0.158142 77.1608 1.42814 77.1608 2.90814V3.84813H75.8408V3.34813C75.8408 1.46813 74.6908 1.37814 73.3108 1.37814H68.1208C66.6808 1.37814 65.5308 1.79814 65.5308 3.71814V7.86813C65.5308 9.78813 66.6908 10.2181 68.1208 10.2181H73.3608C75.3708 10.2181 75.9508 9.78814 75.9508 8.29814V7.60814H77.3508V8.35814C77.3508 10.3581 76.7108 11.4381 73.6108 11.4381H67.9608C64.9708 11.4381 64.0208 10.0981 64.0308 7.29814V4.27814V4.28813Z" fill="#252223"/>
<path d="M81.2106 0.278015H82.7106V5.02802L92.6807 5.03801L92.6907 0.298019L94.1807 0.28801V11.338H92.6807V6.25801L82.7106 6.24802V11.338L81.2106 11.328V0.278015Z" fill="#252223"/>
<path d="M107.081 4.30815C107.081 1.51815 108.031 0.168152 111.011 0.168152H116.731C119.441 0.168152 120.191 1.43815 120.191 2.91815V3.86815H118.881V3.36815C118.881 1.48815 117.721 1.39815 116.341 1.39815H111.151C109.721 1.39815 108.561 1.82815 108.561 3.74815V7.89815C108.561 9.81815 109.721 10.2482 111.151 10.2482H116.391C118.401 10.2482 118.981 9.82816 118.981 8.32816V7.64815H120.381V8.39815C120.381 10.3981 119.741 11.4781 116.641 11.4781H110.991C108.001 11.4781 107.061 10.1381 107.061 7.34814V4.32816L107.081 4.30815Z" fill="#252223"/>
<path d="M123.961 4.31792C123.961 1.52792 124.911 0.187927 127.901 0.187927H134.261C137.251 0.187927 138.191 1.53793 138.191 4.32793V7.34792C138.191 10.1379 137.241 11.4779 134.251 11.4779H127.891C124.901 11.4779 123.951 10.1379 123.951 7.33792V4.31792H123.961ZM136.701 3.74792C136.701 1.82792 135.541 1.40792 134.101 1.39792H128.051C126.611 1.39792 125.451 1.82792 125.451 3.74792V7.89792C125.451 9.81792 126.611 10.2479 128.041 10.2479H134.101C135.541 10.2479 136.691 9.81792 136.701 7.89792V3.73792V3.74792Z" fill="#252223"/>
<path d="M142.191 0.308044H144.421L154.541 10.0181V0.318039H156.031V11.358H153.801L143.681 1.64804V11.358H142.191V0.308044Z" fill="#252223"/>
<path d="M160.231 0.318054H162.451L172.561 10.0181L172.571 0.318054H174.071V11.3681H171.841L161.721 1.64806V11.3581H160.231V0.318054Z" fill="#252223"/>
<path d="M178.351 0.318054L189.201 0.328064V1.54807H179.841V5.05806L188.831 5.06805V6.28806H179.841V10.1481H189.261V11.3681H178.351V0.318054Z" fill="#252223"/>
<path d="M192.691 4.33794C192.691 1.53794 193.631 0.197937 196.621 0.197937H202.341C205.051 0.197937 205.801 1.46794 205.811 2.94794V3.89793H204.501V3.39793C204.501 1.51793 203.341 1.42793 201.961 1.42793H196.781C195.341 1.42793 194.181 1.85794 194.181 3.77794V7.92793C194.181 9.85793 195.341 10.2779 196.771 10.2779H202.011C204.021 10.2779 204.611 9.85794 204.611 8.35794V7.66794H206.011V8.40794C206.011 10.4179 205.371 11.4879 202.271 11.4879H196.621C193.631 11.4879 192.691 10.1479 192.691 7.35794V4.33794Z" fill="#252223"/>
<path d="M214.251 1.55806H208.661L208.671 0.328064L221.331 0.338058V1.55806H215.741V11.3781H214.241L214.251 1.55806Z" fill="#252223"/>
<path d="M226.031 0.338074H224.541V11.3781H226.031V0.338074Z" fill="#252223"/>
<path d="M230.161 4.34795C230.161 1.54795 231.111 0.217957 234.101 0.217957H240.461C243.451 0.217957 244.401 1.56796 244.401 4.35796V7.37796C244.401 10.168 243.451 11.518 240.461 11.518H234.101C231.121 11.518 230.161 10.168 230.161 7.36795V4.34795ZM242.901 3.78795C242.901 1.86795 241.741 1.43796 240.311 1.43796H234.251C232.811 1.43796 231.661 1.85795 231.661 3.77795V7.92795C231.661 9.84795 232.821 10.278 234.251 10.278H240.311C241.741 10.278 242.901 9.84795 242.901 7.92795V3.77795V3.78795Z" fill="#252223"/>
<path d="M248.401 0.348083H250.631L260.741 10.0481L260.751 0.348083H262.241V11.3981H260.011L249.891 1.6881V11.3881L248.401 11.3981V0.348083Z" fill="#252223"/>
</svg>
