<svg width="72" height="72" viewBox="0 0 72 72" fill="none" xmlns="http://www.w3.org/2000/svg">
<path d="M71.462 0.227936H0.172119V71.5179H71.462V0.227936Z" fill="#000D42"/>
<path d="M50.6019 21.8678H45.522V22.3078H46.8619V48.5378C46.8319 49.1078 46.612 49.3078 45.792 49.3378H45.522V49.8178H51.252V49.3378H50.652C49.692 49.3078 49.3319 48.9178 49.3219 48.0878V37.5378H50.9919C53.4219 37.5378 54.802 36.3778 54.802 34.8178V24.8278C54.802 23.2678 53.6119 21.8678 50.6119 21.8678M52.3619 35.3178C52.3619 36.1878 51.8019 36.9878 50.7219 36.9878H49.3219V22.3078H50.6019C51.8019 22.3078 52.3619 23.3278 52.3619 24.1078V35.3178ZM39.762 48.0578V48.0778L36.522 21.8578H34.3519L31.2019 47.8078C31.0119 48.7378 30.9219 49.3078 29.4419 49.3378V49.8178H33.262V49.3378C32.182 49.3378 31.692 48.7178 31.792 48.0478L33.0619 37.5178H36.032L37.3719 48.3978C37.3719 49.0478 37.302 49.2878 36.512 49.3378H36.132V49.8178H41.2319V49.3378H41.1019C40.1219 49.2878 39.8019 48.6878 39.7419 48.0578M33.1219 37.0178L34.4619 25.7678L35.9819 37.0178H33.1219Z" fill="white"/>
<path d="M23.712 22.2278C23.712 22.6778 23.422 22.6378 23.192 22.4978C22.362 21.9678 21.352 21.5878 20.442 21.5978C18.972 21.5978 16.842 22.2578 16.842 25.0778V45.8578C16.872 49.4678 18.7821 50.1378 20.6621 50.1578C22.1221 50.1578 22.8321 49.4678 23.4221 49.2278C23.7321 49.1078 24.082 49.3978 24.082 49.9278H24.692V37.5278H25.9221V37.0178H20.7521V37.5278H22.2521V48.0778C22.2521 48.9978 21.562 49.6978 20.702 49.6978C19.842 49.6978 19.222 48.9778 19.222 48.0778V24.2478C19.222 23.5978 19.352 22.0878 20.452 22.0978C21.362 22.0978 21.9921 22.9378 22.2821 24.1978C22.5921 25.5178 22.7821 28.7178 22.7821 30.0578C22.7821 30.5178 22.952 30.6678 23.452 30.6678H24.4121V21.8378H23.7321V22.2178L23.712 22.2278Z" fill="white"/>
</svg>
