<?xml version="1.0" encoding="utf-8"?>
<!-- Generator: Adobe Illustrator 27.1.0, SVG Export Plug-In . SVG Version: 6.00 Build 0)  -->
<svg version="1.1" id="Layer_1" xmlns="http://www.w3.org/2000/svg" xmlns:xlink="http://www.w3.org/1999/xlink" x="0px" y="0px"
	 viewBox="0 0 122 26" style="enable-background:new 0 0 122 26;" xml:space="preserve">
<style type="text/css">
	.st0{fill:#010101;}
</style>
<g>
	<path class="st0" d="M15.6,13.4l0.4,0c1.5,0.1,2.1,0.4,2.2,0.5c0.2,0.1,0.4,0.5,0.4,2.2v5.5c0,0.2,0,0.4-0.2,0.6
		c-0.1,0.1-0.4,0.3-1.4,0.6c-0.5,0.2-1,0.3-1.5,0.4c-0.5,0.1-1,0.1-1.4,0.1c-2.3,0-4.4-0.9-5.9-2.6c-1.6-1.7-2.4-4.1-2.4-7.2
		c0-3.8,0.8-6.5,2.4-8.1C9.7,3.9,11.7,3,13.8,3c2.1,0,3.8,0.7,5.1,2c0.9,1.1,1.6,2.3,2.1,3.7l0.1,0.3h1.5l-0.3-8.2h-1.5L20.7,1
		c-0.1,0.3-0.2,0.5-0.4,0.7c-0.2,0.1-0.5,0.2-0.8,0.2c-0.7-0.1-1.4-0.3-2.1-0.5c-1.3-0.4-2.7-0.6-4.1-0.6c-3.8,0-7,1.3-9.3,4
		c-2.1,2.4-3.2,5.4-3.2,8.6c0,3.8,1.4,6.9,4,9.1c2.4,2,5.4,3.1,8.9,3.1c2,0,4-0.4,5.9-1c2.7-0.9,3.3-1.5,3.3-2v-6.9
		c0-1,0.2-1.6,0.6-1.9c0.1-0.1,0.5-0.3,1.5-0.3l0.4,0v-1.5h-9.7L15.6,13.4L15.6,13.4z"/>
	<path class="st0" d="M44.3,2.6l0.4,0C45.8,2.8,46.7,3,47,3.4c0.2,0.2,0.6,1,0.6,3.3v9.1c0,2.1-0.3,3.7-0.8,4.7
		c-0.9,1.8-2.7,2.6-5.4,2.6c-2.4,0-4.1-0.8-4.9-2.6c-0.5-1-0.7-2.3-0.7-4.1V5.4c0-1.5,0.3-2,0.5-2.1c0.2-0.1,0.7-0.4,2.3-0.6l0.4,0
		V1.2H28.3v1.4l0.4,0c1.6,0.1,2.1,0.4,2.3,0.6c0.2,0.2,0.5,0.6,0.5,2.1v10.9c0,2.2,0.4,4,1.2,5.4c1.4,2.6,4.2,3.9,8.1,3.9
		s6.7-1.3,8.1-3.9c0.8-1.4,1.2-3.4,1.2-5.8V6.7c0-2.2,0.3-3,0.5-3.2c0.2-0.2,0.8-0.7,2.4-0.8l0.4,0V1.2h-8.9L44.3,2.6L44.3,2.6z"/>
	<path class="st0" d="M76.7,18.6c-0.8,1.9-1.8,3.1-2.8,3.5s-2.8,0.7-5,0.7c-2.7,0-3.5-0.1-3.8-0.2c-0.1,0-0.4-0.1-0.4-0.8v-8.2h5
		c1.8,0,2.3,0.3,2.5,0.5c0.2,0.3,0.6,0.9,0.9,2.5l0.1,0.4h1.6V8.1H73L73,8.5c-0.3,1.6-0.6,2.2-0.9,2.5c-0.2,0.2-0.8,0.5-2.5,0.5
		h-4.9V4.1c0-0.2,0-0.4,0.1-0.7c0,0,0.1-0.1,0.6-0.1h4.8c2.4,0,3.3,0.3,3.7,0.6s0.8,0.9,1.2,2.7L75,7h1.7l-0.1-5.8H57.2v1.5l0.4,0
		c1.5,0.1,2.1,0.4,2.2,0.6c0.2,0.2,0.4,0.7,0.4,2.1v15.5c0,1.6-0.3,2-0.4,2.1c-0.2,0.2-0.7,0.4-2.3,0.6l-0.4,0v1.4h19.6l1.8-6.7
		h-1.8L76.7,18.6L76.7,18.6z"/>
	<path class="st0" d="M94.2,11.5l-3.1-1.9c-0.9-0.5-1.7-1.2-2.4-1.9c-0.5-0.6-0.7-1.3-0.7-2c0-0.8,0.3-1.5,0.9-2
		c0.6-0.5,1.4-0.8,2.2-0.8c1.3,0,2.5,0.5,3.5,1.2c1.2,0.8,2,2.3,2.6,4.4l0.1,0.3h1.6L98,0.7h-1.4L96.5,1c-0.1,0.3-0.2,0.5-0.3,0.7
		c-0.2,0.1-0.4,0.2-0.6,0.2c-0.6-0.1-1.2-0.3-1.8-0.6c-1-0.4-2-0.6-3-0.6c-2,0-3.7,0.6-5,1.9C84.7,3.8,84,5.5,84,7.3
		c0,1.5,0.6,2.9,1.6,3.9c0.7,0.7,1.4,1.3,2.2,1.8l3,1.8c1.7,1.1,2.8,1.8,3.3,2.3c0.7,0.7,1.1,1.7,1.1,2.7c0.1,1-0.3,2-1.1,2.6
		c-0.7,0.6-1.7,1-2.6,1c-1.9,0-3.7-0.8-4.8-2.3c-0.9-1.1-1.5-2.3-2-3.6l-0.1-0.3H83l1.2,8.3h1.5l0.1-0.4c0-0.2,0.1-0.4,0.2-0.7
		c0.1-0.1,0.2-0.2,0.4-0.2c0.6,0.1,1.3,0.4,1.9,0.6c1.1,0.4,2.3,0.6,3.5,0.6c2.2,0,4.1-0.6,5.6-1.9c1.4-1.2,2.2-3,2.2-4.9
		c0-1.4-0.4-2.7-1.2-3.8C97.5,13.9,96.1,12.8,94.2,11.5L94.2,11.5z"/>
	<path class="st0" d="M120.2,14.9c-0.8-1-2.2-2.1-4.2-3.3l-3.1-1.9c-0.9-0.5-1.7-1.2-2.4-1.9c-0.5-0.6-0.7-1.3-0.7-2
		c0-0.8,0.3-1.5,0.9-2c0.6-0.5,1.4-0.8,2.2-0.8c1.3,0,2.5,0.5,3.5,1.2c1.2,0.8,2,2.3,2.6,4.4l0.1,0.3h1.6l-0.8-8.3h-1.4L118.3,1
		c-0.1,0.3-0.1,0.5-0.3,0.7c-0.2,0.1-0.4,0.2-0.6,0.2c-0.6-0.1-1.2-0.3-1.8-0.6c-1-0.4-2-0.6-3-0.6c-2,0-3.7,0.6-4.9,1.9
		c-1.2,1.2-1.9,2.9-1.9,4.7c0,1.5,0.6,2.9,1.6,3.9c0.7,0.7,1.4,1.3,2.2,1.8l3,1.8c1.7,1.1,2.8,1.8,3.3,2.3c0.7,0.7,1.1,1.7,1.1,2.7
		c0.1,1-0.3,2-1.1,2.6c-0.7,0.6-1.7,1-2.6,1c-1.9,0-3.7-0.8-4.8-2.3c-0.9-1.1-1.5-2.3-2-3.6l-0.1-0.3h-1.6l1.2,8.3h1.5l0.1-0.4
		c0-0.2,0.1-0.4,0.2-0.7c0.1-0.1,0.2-0.2,0.5-0.2c0.6,0.1,1.3,0.4,1.9,0.6c1.1,0.4,2.3,0.6,3.5,0.6c2.2,0,4.1-0.6,5.6-1.9
		c1.4-1.2,2.2-3,2.2-4.9C121.4,17.3,121,16,120.2,14.9L120.2,14.9z"/>
</g>
</svg>
