<svg width="110" height="49" viewBox="0 0 110 49" fill="none" xmlns="http://www.w3.org/2000/svg">
<path d="M21.6721 41.2979C21.6721 45.4979 24.7621 48.5179 29.0421 48.5179C31.2621 48.5179 33.2821 47.7679 35.0121 46.2979L35.0621 46.2279V40.0079H28.7321V43.028H31.7521V44.6479C31.0421 45.1179 30.1521 45.3579 29.1321 45.3579C26.8721 45.3579 25.222 43.6279 25.222 41.2079C25.222 38.9679 26.8821 37.1679 28.9321 37.1679C30.4421 37.1679 31.3521 37.658 32.3521 38.498L32.5121 38.6279L34.6621 36.0479L34.5121 35.8979C32.8921 34.5379 31.2921 33.9879 29.0021 33.9879C24.8921 34.0279 21.6721 37.2079 21.6721 41.2979Z" fill="#010101"/>
<mask id="mask0_32_1487" style="mask-type:luminance" maskUnits="userSpaceOnUse" x="21" y="33" width="15" height="16">
<path d="M21.6721 41.2979C21.6721 45.4979 24.7621 48.5179 29.0421 48.5179C31.2621 48.5179 33.2821 47.7679 35.0121 46.2979L35.0621 46.2279V40.0079H28.7321V43.028H31.7521V44.6479C31.0621 45.1179 30.1521 45.3579 29.1321 45.3579C26.8721 45.3579 25.222 43.6279 25.222 41.2079C25.222 38.9679 26.8821 37.1679 28.9321 37.1679C30.4421 37.1679 31.3521 37.658 32.3521 38.498L32.5121 38.6279L34.6621 36.0479L34.5121 35.8979C32.8921 34.5379 31.2921 33.9879 29.0021 33.9879C24.8921 34.0279 21.6721 37.2079 21.6721 41.2979Z" fill="white"/>
</mask>
<g mask="url(#mask0_32_1487)">
<path d="M32.5721 28.7979L16.0221 36.7279L24.1721 53.7579L40.722 45.8279" fill="#010101"/>
</g>
<path d="M52.5118 37.228H54.9518C56.0618 37.228 56.9019 37.758 56.9019 39.068C56.9019 40.378 56.0818 40.798 54.9518 40.798H52.5118V37.228ZM48.8918 34.338V48.258H52.5118V43.618H54.0619L57.3318 48.258H61.6218L58.0419 43.198C59.6019 42.578 60.5519 41.198 60.5519 38.828C60.5519 35.538 58.0918 34.348 55.5118 34.348L48.8918 34.328V34.338Z" fill="#010101"/>
<mask id="mask1_32_1487" style="mask-type:luminance" maskUnits="userSpaceOnUse" x="48" y="34" width="14" height="15">
<path d="M52.5118 37.228H54.9518C56.0618 37.228 56.9019 37.758 56.9019 39.068C56.9019 40.378 56.0818 40.798 54.9518 40.798H52.5118V37.228ZM48.8918 34.338V48.258H52.5118V43.618H54.0619L57.3318 48.258H61.6218L58.0419 43.198C59.6019 42.578 60.5519 41.198 60.5519 38.828C60.5519 35.538 58.0918 34.348 55.5118 34.348L48.8918 34.328V34.338Z" fill="white"/>
</mask>
<g mask="url(#mask1_32_1487)">
<path d="M59.2418 29.388L43.4918 36.938L51.2819 53.198L67.0319 45.648" fill="#010101"/>
</g>
<path d="M15.6019 38.188H15.652L17.182 43.048H14.032L15.5919 38.188H15.6019ZM13.802 34.328L9.76196 45.118H3.94202V34.328H0.322021V48.228H12.312L13.2019 45.738H18.042L18.892 48.228H22.662L17.4619 34.308H13.802V34.328Z" fill="#010101"/>
<mask id="mask2_32_1487" style="mask-type:luminance" maskUnits="userSpaceOnUse" x="0" y="34" width="23" height="15">
<path d="M15.6019 38.188H15.652L17.182 43.048H14.032L15.5919 38.188H15.6019ZM13.802 34.328L9.76196 45.118H3.94202V34.328H0.322021V48.228H12.312L13.2019 45.738H18.042L18.892 48.228H22.662L17.4619 34.308H13.802V34.328Z" fill="white"/>
</mask>
<g mask="url(#mask2_32_1487)">
<path d="M18.4919 25.618L-5.09802 36.928L4.49194 56.958L28.1019 45.658" fill="#010101"/>
</g>
<path d="M47.6318 45.118H39.9718V42.478H46.7719V39.658H39.9718V37.238H47.4119V34.328H36.3318V48.248H47.6318" fill="#010101"/>
<mask id="mask3_32_1487" style="mask-type:luminance" maskUnits="userSpaceOnUse" x="36" y="34" width="12" height="15">
<path d="M47.6321 45.118H39.962V42.478H46.7821V39.658H39.962V37.228H47.4121V34.328H36.342V48.228V48.248H47.6321V45.118Z" fill="white"/>
</mask>
<g mask="url(#mask3_32_1487)">
<path d="M45.5221 29.928L30.9121 36.928L38.4421 52.648L53.0521 45.648" fill="#010101"/>
</g>
<path d="M70.9718 42.878V40.078H65.2418V37.238H71.8618V34.328H61.6018V48.228L61.6218 48.248H65.2418V42.878" fill="#010101"/>
<mask id="mask4_32_1487" style="mask-type:luminance" maskUnits="userSpaceOnUse" x="61" y="34" width="11" height="15">
<path d="M70.9718 42.878V40.078H65.2418V37.228H71.8618V34.328H61.6018V48.228L61.6218 48.248H65.2418V42.878H70.9718Z" fill="white"/>
</mask>
<g mask="url(#mask4_32_1487)">
<path d="M69.9319 30.328L56.1819 36.918L63.5118 52.238L77.2618 45.648" fill="#010101"/>
</g>
<path d="M85.272 34.328V48.248H95.3719V45.138H88.892V34.348" fill="#010101"/>
<mask id="mask5_32_1487" style="mask-type:luminance" maskUnits="userSpaceOnUse" x="85" y="34" width="11" height="15">
<path d="M85.272 34.328V48.248H95.3719V45.118H88.892V34.328H85.272Z" fill="white"/>
</mask>
<g mask="url(#mask5_32_1487)">
<path d="M93.4719 30.398L79.8419 36.928L87.152 52.168L100.782 45.638" fill="#010101"/>
</g>
<path d="M100.002 37.438H101.712C104.202 37.438 105.572 38.658 105.572 41.188C105.572 43.968 104.482 45.048 101.712 45.118H100.002V37.438ZM96.3821 34.328V48.248H102.352C106.592 48.248 109.172 45.788 109.172 41.228C109.172 36.938 106.622 34.338 102.352 34.338H96.3821V34.328Z" fill="#010101"/>
<path d="M76.3419 45.118V42.478H83.162V39.658H76.3419V37.238H83.802V34.328H72.7019V48.248H83.9819V45.138" fill="#010101"/>
<mask id="mask6_32_1487" style="mask-type:luminance" maskUnits="userSpaceOnUse" x="72" y="34" width="13" height="15">
<path d="M76.3419 42.478H83.162V39.658H76.3419V37.228H83.812V34.328H72.7219V48.248H84.002V45.118H76.3419V42.478Z" fill="white"/>
</mask>
<g mask="url(#mask6_32_1487)">
<path d="M81.892 29.928L67.302 36.928L74.8319 52.628L89.422 45.638" fill="#010101"/>
</g>
<path d="M41.1219 9.44804H41.2119L44.7419 20.5981H37.502L41.1219 9.44804ZM65.062 7.24805H70.642C73.192 7.24805 75.1019 8.46804 75.1019 11.448C75.1019 14.428 73.232 15.4281 70.642 15.4281H65.062V7.23805V7.24805ZM85.7319 0.608047V31.168L78.252 20.638C81.512 19.088 83.402 15.998 83.402 10.868C83.402 3.31804 77.832 0.608047 71.892 0.608047H56.772V31.008L45.402 0.608047H36.9619L27.012 27.218L18.662 15.4081L30.522 0.618042H20.012L8.59192 14.918V0.598053H0.0419922V32.468H8.48193V29.978L8.72192 29.828C8.68192 29.738 8.67194 29.648 8.61194 29.588C8.46194 29.368 8.08196 29.278 7.63196 29.188C7.50196 29.148 7.142 29.138 6.922 29.138C6.922 29.138 6.03195 29.1581 5.50195 29.1581C5.12195 29.118 4.88199 28.9981 4.66199 28.7081C4.37199 28.2681 4.57194 27.778 4.61194 27.528C4.66194 27.258 4.50194 27.178 4.36194 26.968C4.18194 26.748 4.27201 26.5881 4.43201 26.5181C4.65201 26.3881 4.78194 26.428 4.36194 26.188C4.16194 26.0581 4.21201 25.858 4.31201 25.538C4.40201 25.188 4.56194 24.758 4.49194 24.608C4.44194 24.478 4.22191 24.4781 3.96191 24.298C3.67191 24.098 3.45196 23.9681 3.51196 23.5681C3.56196 23.0381 4.16199 22.7681 4.66199 22.0981C4.88199 22.7481 5.17201 23.368 5.93201 23.368H5.98193C6.27193 23.368 6.45194 22.748 6.49194 22.588H11.042C11.882 22.588 12.3719 22.968 12.3719 22.968H12.7019C12.0819 22.318 11.082 22.188 9.93201 22.078C8.82201 21.948 6.71191 21.728 6.58191 21.698C6.58191 21.608 6.56199 21.448 6.54199 21.278C6.50199 21.008 6.21194 20.8081 5.74194 20.5681C5.47194 20.4181 5.19196 20.328 5.01196 20.278C5.12196 19.838 5.17199 19.5281 5.41199 18.6581C5.61199 17.8581 5.90198 17.108 5.90198 17.108C5.90198 17.108 5.61202 16.8181 5.57202 16.548C5.55202 16.258 5.61201 15.728 5.93201 15.368C6.09201 15.168 6.44192 15.018 6.84192 14.948C7.09192 14.898 7.73198 14.8981 8.40198 14.9081C8.80198 14.9281 9.24193 14.9281 9.60193 14.9281C10.3819 14.8881 11.2019 14.8181 12.3519 14.8781C12.4419 14.8981 12.532 14.898 12.642 14.918C13.592 15.048 14.482 15.518 15.442 16.358C15.552 16.448 15.642 16.5181 15.752 16.5981C16.932 17.6881 17.062 19.038 17.172 19.578C17.262 20.088 17.2419 21.048 17.2119 21.638C17.1719 22.328 16.882 23.218 16.882 23.218C16.882 23.218 16.932 23.168 17.132 23.258C17.332 23.368 17.512 23.4781 17.642 23.5681C17.802 23.6581 17.892 23.7181 17.932 23.8181C17.952 23.9081 18.1119 23.978 18.1119 23.978C18.1119 23.978 19.7719 24.4481 20.6019 27.3481C21.2419 29.6081 20.422 31.418 19.762 32.438H33.532L35.552 26.728H46.662L48.6219 32.438H65.032V21.8181H69.252L76.782 32.438H108.852V25.288H93.9919V0.618042H85.7119L85.7319 0.608047Z" fill="#010101"/>
<path d="M15.8718 26.9982L17.1819 29.7082C17.1819 29.7082 18.0318 28.6382 17.8918 26.4382C17.8418 25.3482 17.3318 24.9781 17.3318 24.9781C17.3318 24.9781 17.1518 25.1082 16.8618 25.0682C16.4218 25.0482 16.3518 24.9582 16.3518 24.9582L15.8818 26.9982H15.8718Z" fill="#010101"/>
<mask id="mask7_32_1487" style="mask-type:luminance" maskUnits="userSpaceOnUse" x="15" y="24" width="3" height="6">
<path d="M15.8718 26.9982L17.1819 29.7082C17.1819 29.7082 18.0318 28.6382 17.8918 26.4382C17.8418 25.3482 17.3318 24.9781 17.3318 24.9781C17.3318 24.9781 17.1518 25.1082 16.8618 25.0682C16.4218 25.0482 16.3518 24.9582 16.3518 24.9582L15.8818 26.9982H15.8718Z" fill="white"/>
</mask>
<g mask="url(#mask7_32_1487)">
<path d="M17.6218 24.1282L14.0219 25.8582L16.2819 30.5482L19.8818 28.8182" fill="#010101"/>
</g>
</svg>
