<svg width="117" height="48" viewBox="0 0 117 48" fill="none" xmlns="http://www.w3.org/2000/svg">
<path d="M116.4 0.349998C116.4 0.349998 106.62 42.16 105.19 48C89.68 38.14 72.19 39.83 58.2 48C44.21 39.83 26.75 38.14 11.23 48C9.76 42.16 0 0.349998 0 0.349998H116.39H116.4Z" fill="#B22A2D"/>
<path fill-rule="evenodd" clip-rule="evenodd" d="M15.48 13.33H22.35V24.93H30.81V29.35H15.48V13.33Z" fill="white"/>
<path fill-rule="evenodd" clip-rule="evenodd" d="M49.3403 13.33H57.1703L62.2603 23.31L67.0103 13.33H71.7403L63.8203 29.35H58.0003L49.3403 13.33Z" fill="white"/>
<path d="M79.1002 13.33H72.4102V29.37H79.1002V13.33Z" fill="white"/>
<path fill-rule="evenodd" clip-rule="evenodd" d="M80.3101 11.9799H84.1001V15.3399L82.0901 17.5599H81.2501L82.1701 15.1499H80.3101V11.9799Z" fill="white"/>
<path fill-rule="evenodd" clip-rule="evenodd" d="M96.3803 18.01C96.3803 18.01 96.4803 16.98 94.9603 16.43C94.9603 16.43 93.3903 15.88 91.6303 16.31C91.6303 16.31 90.3803 16.57 90.3303 17.41C90.3303 17.41 90.2503 18.15 91.5603 18.48C91.5403 18.48 92.0603 18.65 94.4103 19.02C96.7503 19.42 98.0703 19.69 99.0503 20.1C100.05 20.51 100.94 20.91 101.69 22.23C101.69 22.23 102.53 23.56 101.97 25.45C101.97 25.43 101.52 26.81 100.37 27.7C99.2403 28.6 98.4603 29.06 96.1303 29.54C96.1703 29.54 92.1203 30.31 88.7603 29.22C85.4303 28.12 84.3903 25.76 84.3903 24.63H89.5403C89.5403 24.63 89.6503 25.58 90.7403 26.11C90.7403 26.11 91.2303 26.55 92.8103 26.55C94.3903 26.55 95.0203 26.15 95.2203 25.9C95.4203 25.65 95.5203 25.28 95.3003 24.88C95.1203 24.5 94.5303 24.13 93.1903 24C91.2403 23.81 90.4803 23.62 89.2303 23.32C87.9703 23 86.7303 22.75 85.4703 21.69C85.4703 21.69 83.5403 20.42 84.2903 17.39C84.2903 17.39 84.8003 14.69 88.9003 13.47C88.9003 13.48 92.1803 12.32 96.7403 13.47C96.7403 13.47 101.14 14.7 101.66 18.02H96.4003L96.3803 18.01Z" fill="white"/>
<path fill-rule="evenodd" clip-rule="evenodd" d="M51.3701 22.7C51.7301 17 47.5501 14.72 47.5301 14.69C44.7801 12.74 40.9801 12.96 40.9801 12.96C37.5601 12.96 36.1501 13.74 35.6401 13.92C34.1701 14.55 31.2201 16.65 30.9101 20.35C30.6301 23.65 31.5001 25.28 32.9601 26.8C34.6101 28.53 37.2001 29.28 37.7401 29.42C41.4201 30.35 44.8701 29.48 45.0801 29.42C49.8201 28.32 50.9001 24.65 50.9001 24.65H45.5501C43.8801 27.02 40.7601 26.2 40.7401 26.2C37.8001 25.34 37.9201 22.72 37.9201 22.72H51.3701V22.7ZM37.8901 19.51C37.8901 19.51 37.9101 16.32 41.1201 16.32C44.3301 16.32 44.4001 19.19 44.4001 19.51H37.8901Z" fill="white"/>
<path d="M103.25 4.38C103.25 4.38 105.72 4.31 105.72 1.82C105.72 1.82 105.68 0.709998 105.33 0.359998H102.61C103.09 0.359998 103.43 0.499998 103.43 0.499998C103.43 0.499998 104.21 0.779998 104.21 1.76C104.21 2.8 103.78 2.9 103.42 3.1C103.07 3.33 102.24 3.32 102.24 3.32H100.26V0.349998H98.8203V8.49H100.27V4.48H101.83L104.34 8.49H105.9L103.26 4.36L103.25 4.38Z" fill="white"/>
<path d="M109.19 0.349998H107.64C108.18 1.35 108.49 2.51 108.49 3.75C108.49 7.57 105.55 10.66 101.91 10.66C98.2701 10.66 95.3301 7.57 95.3301 3.75C95.3301 2.51 95.6401 1.35 96.1801 0.349998H94.6701C94.1701 1.39 93.8901 2.55 93.8901 3.78C93.8901 8.21 97.4801 11.78 101.92 11.78C106.36 11.78 109.93 8.2 109.93 3.78C109.93 2.55 109.65 1.39 109.18 0.349998" fill="white"/>
</svg>
