<svg width="146" height="26" viewBox="0 0 146 26" fill="none" xmlns="http://www.w3.org/2000/svg">
<path d="M15.5802 12.6001L17.7902 16.2001L22.2502 8.9201V25.0401H26.0902V1.58011H22.1702L15.5802 12.6001Z" fill="#221F1F"/>
<path d="M4.8201 1.59012H0.930084V25.0401H4.78009V8.92011L13.5201 23.2301L15.7401 19.5801L4.8201 1.59012Z" fill="#221F1F"/>
<path d="M49.1602 17.7701L52.7202 25.0401H57.3402L45.7401 1.58011H41.5602V1.59011L47.3701 14.0301H39.6502L41.6602 9.9801L39.5602 5.57011L29.7802 25.0401H34.1101L37.7602 17.7701H49.1602Z" fill="#221F1F"/>
<path d="M82.9803 1.59012H79.1303V12.9801L82.9803 16.9401V1.59012Z" fill="#221F1F"/>
<path d="M64.4002 1.59012H60.4801V25.0401H64.3302V7.51012L80.1101 25.0401H82.9801V22.1901L64.4002 1.59012Z" fill="#221F1F"/>
<path d="M109.87 8.10011C108.04 6.14011 105.21 4.90011 102.04 4.90011C96.9703 4.90011 92.8003 8.08011 92.1303 12.2201H87.8903C88.4403 5.81011 94.8403 1.08011 102.09 1.08011C106.4 1.08011 110.27 2.72011 112.88 5.37011L109.87 8.10011Z" fill="#221F1F"/>
<path d="M101.69 21.77C97.4601 21.77 93.8601 19.42 92.5201 16.14H88.2001C89.6201 21.8 95.2501 25.57 101.92 25.57C103.48 25.57 105.25 25.42 106.73 25.04C110.08 24.19 113.73 21.97 113.73 18.44V12.21H101.64L101.62 16.13H109.86V17.91C109.86 19.89 106.99 21.02 105.24 21.43C104.29 21.64 103.08 21.77 102.1 21.77H101.69Z" fill="#221F1F"/>
<path d="M145.54 13.34C145.54 6.33995 139.34 0.919952 131.74 0.919952C124.14 0.919952 117.9 6.09996 117.9 12.97C117.9 19.45 122.97 24.64 129.84 25.46V21.54C125.36 20.79 121.97 17.3499 121.97 13.2299C121.97 8.54995 126.33 4.74995 131.7 4.74995C137.07 4.74995 141.42 8.54995 141.42 13.2299C141.42 17.32 138.09 20.73 133.66 21.52V25.44C140.23 24.63 145.55 19.63 145.55 13.34" fill="#221F1F"/>
</svg>
