<svg width="164" height="26" viewBox="0 0 164 26" fill="none" xmlns="http://www.w3.org/2000/svg">
<path d="M31.1403 16.3599C31.1503 19.7499 33.2104 22.0199 35.9004 22.0099C38.5804 22.0099 40.6103 19.7899 40.6003 16.3299C40.6003 12.9099 38.5603 10.6399 35.8703 10.6499C33.1803 10.6499 31.1303 12.9699 31.1403 16.3599ZM35.9103 25.5699C30.9403 25.5899 27.3203 21.5799 27.3003 16.3799C27.2903 11.1699 30.8603 7.10993 35.8603 7.09993C40.8803 7.07993 44.4504 11.0999 44.4704 16.3299C44.4704 18.9599 43.6103 21.2099 42.0203 22.9199C40.4003 24.6399 38.2803 25.5599 35.9103 25.5699Z" fill="#316E84"/>
<path d="M47.3704 21.1999L47.3404 11.1299H45.3804V7.66994H47.3404L47.3304 3.67993H50.8204L50.8304 7.64993H53.3604V11.0999H50.8404L50.8704 20.8199C50.8704 21.6099 51.0604 21.7699 51.5904 21.7699H54.5504V25.5499H51.4904C48.6204 25.5699 47.3704 24.2799 47.3604 21.1899" fill="#316E84"/>
<path d="M66.8905 15.5299C66.8905 12.1699 65.9805 10.8899 63.8805 10.8899C61.4805 10.8899 60.3005 12.3499 60.3105 15.6799L60.3405 25.5599H56.6005L56.5305 0.119873H60.2805L60.3005 8.92987C61.4505 7.86987 62.7905 7.34987 64.3505 7.33987C68.1805 7.32987 70.6305 10.2799 70.6405 15.2599L70.6705 25.5299H66.9205L66.8905 15.5299Z" fill="#316E84"/>
<path d="M77.1704 14.4899L86.5904 14.4599C86.0904 12.1599 84.2704 10.6499 81.9304 10.6599C79.5604 10.6599 77.6304 12.2499 77.1604 14.4899M82.3004 21.9799C84.1704 21.9799 85.8604 21.1399 87.5304 19.0699L90.2504 21.3999C87.8604 24.3699 85.3604 25.5599 82.2404 25.5699C77.2204 25.5799 73.4004 21.8099 73.3904 16.4699C73.3804 10.8699 76.8904 7.10986 81.9404 7.08986C87.0904 7.07986 90.6904 11.0499 90.7104 17.0399V17.7599L77.1404 17.7999C77.5304 20.2999 79.5304 21.9799 82.3004 21.9699" fill="#316E84"/>
<path d="M96.6804 15.7499L96.7104 25.5599H93.2104L93.1604 7.94989H96.5305V9.22989C97.4305 8.16989 98.5904 7.63989 99.9904 7.63989C100.3 7.63989 100.65 7.63989 101.33 7.79989V11.7499C100.34 11.5199 99.9304 11.4599 99.6204 11.4599C97.6904 11.4599 96.6604 12.7499 96.6704 15.7499" fill="#316E84"/>
<path d="M102.1 16.37C102.08 11.07 105.57 7.10996 110.6 7.09996C112.91 7.08996 114.81 7.80995 116.69 9.64995L114.32 12.59C113.1 11.14 112.03 10.65 110.6 10.66C107.89 10.66 105.9 12.97 105.9 16.36C105.91 19.79 107.91 21.99 110.63 21.98C112.16 21.98 113.32 21.41 114.43 19.86L116.87 22.82C114.82 24.83 112.98 25.5599 110.64 25.57C105.65 25.58 102.11 21.68 102.09 16.37" fill="#316E84"/>
<path d="M121.101 16.5299C121.101 19.8599 123.241 22.0899 126.171 22.0799C129.071 22.0799 131.191 19.7899 131.181 16.4999C131.181 13.2099 129.041 10.9399 126.141 10.9499C123.211 10.9499 121.091 13.2299 121.101 16.5299ZM131.041 23.4199C129.701 24.8699 127.931 25.5699 125.771 25.5699C120.931 25.5799 117.311 21.5799 117.291 16.5099C117.281 11.1099 120.631 7.4199 125.721 7.3999C127.901 7.3999 129.781 8.1799 131.221 9.6599V7.7199L134.711 7.70991L134.761 25.3299H131.051V23.4299L131.041 23.4199Z" fill="#316E84"/>
<path d="M141.31 15.7499L141.331 25.5599H137.831L137.781 7.94988H141.151V9.21988C142.051 8.15988 143.21 7.62988 144.61 7.62988C144.92 7.62988 145.271 7.62988 145.951 7.78988V11.7399C144.961 11.5099 144.56 11.4499 144.24 11.4499C142.31 11.4499 141.28 12.7399 141.29 15.7399" fill="#316E84"/>
<path d="M149.98 14.4899L159.41 14.4599C158.9 12.1499 157.091 10.6499 154.751 10.6599C152.381 10.6599 150.45 12.2499 149.98 14.4899ZM155.121 21.9799C156.991 21.9799 158.67 21.1499 160.36 19.0699L163.081 21.3999C160.681 24.3699 158.191 25.5599 155.071 25.5699C150.041 25.5899 146.231 21.8099 146.211 16.4699C146.191 10.8699 149.711 7.10986 154.771 7.08986C159.921 7.07986 163.521 11.0599 163.531 17.0499V17.7699L149.951 17.8099C150.341 20.3099 152.33 21.9799 155.11 21.9799" fill="#316E84"/>
<path d="M20.8803 15.6698C20.8803 12.3798 19.8303 11.0898 17.9303 11.0998C15.5603 11.0998 14.4103 12.4898 14.4203 15.8198L14.4503 25.5298H10.8303L10.8003 15.6898C10.8003 12.4298 9.72031 11.1098 7.82031 11.1198C5.45031 11.1198 4.3003 12.5098 4.3103 15.8298L4.34033 25.5398H0.600281L0.550293 7.93984H4.26031V9.17984C5.44031 8.11984 6.7503 7.58984 8.3103 7.57984C10.2203 7.57984 11.7103 8.35984 12.9303 10.0098C14.3903 8.38984 16.1403 7.56984 18.2603 7.55984C22.0703 7.54984 24.5703 10.4698 24.5903 15.3498L24.6203 25.4898H20.9103L20.8803 15.6498V15.6698Z" fill="#316E84"/>
</svg>
