<svg width="141" height="46" viewBox="0 0 141 46" fill="none" xmlns="http://www.w3.org/2000/svg">
<path d="M70.6459 0.630005C32.0759 0.630005 0.795837 10.79 0.795837 23.31C0.795837 35.83 32.0759 46 70.6459 46C109.216 46 140.506 35.84 140.506 23.31C140.506 10.78 109.226 0.630005 70.6459 0.630005Z" fill="#224878"/>
<path d="M84.916 15.1202L80.496 31.5902H84.346L85.196 28.3902H90.476L91.3361 31.5902H95.106L90.676 15.1202H84.926H84.916ZM85.976 25.3902L87.796 18.4602L89.656 25.3902H85.9661H85.976Z" fill="white"/>
<path d="M103.466 31.5902L107.716 15.1202H103.546L100.956 26.6002L98.396 15.1202H94.216L98.446 31.5902H103.466Z" fill="white"/>
<path d="M74.6058 24.6702L69.3558 15.1202H65.5659V31.5902H69.3558L69.3658 22.1702L74.6058 31.5902H78.3859V15.1202H74.6058V24.6702Z" fill="white"/>
<path d="M118.086 31.5902V26.3402L123.016 15.1202H118.866L115.986 22.3202L113.106 15.1202H108.956L113.876 26.3402V31.5902H118.086Z" fill="white"/>
<path d="M51.5561 31.59C53.6161 31.59 55.2661 31.55 56.8161 29.78C58.2861 28.14 58.8661 25.83 58.8961 23.45V23.43C58.8961 23.43 58.8961 23.37 58.8961 23.35C58.8961 23.33 58.8961 23.3 58.8961 23.27C58.8761 20.88 58.2961 18.56 56.8261 16.91C55.2861 15.14 53.6361 15.13 51.5661 15.13H46.2861V31.6H51.5561V31.59ZM50.2561 18.31H51.1961C52.1961 18.31 53.2561 18.39 53.9461 19.54C54.5361 20.59 54.8461 21.9 54.8461 23.33C54.8461 24.76 54.5361 26.1 53.9361 27.15C53.2461 28.3 52.1761 28.39 51.1761 28.39H50.2461V18.31H50.2561Z" fill="white"/>
<path d="M38.206 15.1202H34.436V31.5902H44.176V28.3802H38.206V15.1202Z" fill="white"/>
<path d="M25.316 14.8302C20.966 14.8302 18.2861 18.2502 18.2761 23.3602C18.2761 23.3702 18.2761 23.3802 18.2761 23.4002C18.2761 28.2402 20.986 31.8102 25.296 31.8102C29.626 31.8102 32.326 28.2302 32.326 23.3802C32.326 18.2802 29.646 14.8502 25.306 14.8402M25.306 28.6002C23.046 28.6002 22.246 25.1802 22.246 23.4002C22.246 21.6202 22.706 17.9902 25.306 17.9902C27.916 17.9902 28.376 21.6102 28.376 23.4102C28.376 25.1902 27.576 28.6002 25.306 28.6002Z" fill="white"/>
</svg>
