<svg width="94" height="37" viewBox="0 0 94 37" fill="none" xmlns="http://www.w3.org/2000/svg">
<path d="M16.8358 0.150002H16.2959H16.2759H16.2258L15.4958 0.160002C10.9958 0.360002 7.15588 2.26 4.40588 5.64C1.71588 8.94 0.24585 13.53 0.24585 18.58C0.24585 23.63 1.72589 28.22 4.41589 31.52C7.22589 34.96 11.1459 36.86 15.7759 37H16.3959H17.0958C21.5858 36.81 25.4259 34.92 28.1859 31.53C30.8759 28.23 32.3558 23.63 32.3558 18.58C32.3558 13.53 30.8759 8.92 28.1859 5.63C25.3759 2.19 21.4558 0.300002 16.8458 0.160002L16.8358 0.150002ZM16.2959 32.55C9.6159 32.51 4.9458 26.76 4.9458 18.57C4.9458 10.38 9.61589 4.63 16.2859 4.59C22.9759 4.63 27.6359 10.38 27.6359 18.57C27.6359 26.76 22.9759 32.51 16.2859 32.55H16.2959Z" fill="#F5B819"/>
<path d="M48.8657 29.31L38.5857 0.920021H33.5657L46.4957 36.23H51.2057L64.2157 0.920021H59.2257L48.8657 29.31Z" fill="#F5B819"/>
<path d="M81.4258 16.1L80.6257 15.93C75.6857 14.92 71.4157 14.05 71.4157 10.17C71.4157 6.04999 75.5057 4.58999 79.0157 4.58999C84.6957 4.58999 87.9357 7.08999 88.1157 11.64L88.1657 12.94H92.8857L92.8156 11.52C92.4956 4.28999 87.4657 0.139992 79.0057 0.139992C75.7957 0.139992 72.8257 0.979992 70.6357 2.50999C68.0657 4.30999 66.7057 6.95999 66.7057 10.16C66.7057 17.65 73.7357 19.1 78.8757 20.16L79.3957 20.26C84.5157 21.3 88.9358 22.21 88.9358 26.45C88.9358 31.25 83.8457 32.53 80.8357 32.53C76.9857 32.53 73.9158 31.52 72.1858 29.67C70.9058 28.3 70.3157 26.44 70.4557 24.15L70.5357 22.72H65.7657L65.7457 24.06C65.7057 27.76 66.7857 30.75 68.9557 32.95C71.5457 35.58 75.6557 36.98 80.8357 36.98C83.8957 36.98 86.9257 36.15 89.1557 34.71C92.0857 32.81 93.6357 29.96 93.6357 26.45C93.6357 18.59 86.2858 17.08 81.4258 16.08V16.1Z" fill="#F5B819"/>
</svg>
