<svg width="72" height="72" viewBox="0 0 72 72" fill="none" xmlns="http://www.w3.org/2000/svg">
<path d="M71.632 0.357971H0.462036V71.518H71.632V0.357971Z" fill="#221F1F"/>
<path d="M20.0922 48.0881C20.0922 49.0181 19.5722 49.6881 18.7222 49.6881C17.8722 49.6881 17.3522 49.0181 17.3522 48.0881C17.3522 47.1581 17.8722 46.4881 18.7222 46.4881C19.5722 46.4881 20.0922 47.1581 20.0922 48.0881ZM20.6421 48.0881C20.6421 47.2381 20.1922 46.0181 18.7222 46.0181C17.2522 46.0181 16.8021 47.2381 16.8021 48.0881C16.8021 48.9381 17.2522 50.1681 18.7222 50.1681C20.1922 50.1681 20.6421 48.9381 20.6421 48.0881Z" fill="white"/>
<path d="M24.292 50.058H23.7321L22.702 46.118H23.282L24.012 49.328H24.022L24.912 46.118H25.4921L26.382 49.328L27.1219 46.118H27.712L26.672 50.058H26.1121L25.212 46.798H25.202L24.292 50.058Z" fill="white"/>
<path d="M32.752 46.118H33.272V50.058H32.672L30.662 46.878H30.652V50.058H30.142V46.118H30.772L32.7421 49.308H32.752V46.118Z" fill="white"/>
<path d="M36.5822 46.578H37.5721C38.3021 46.578 38.7521 47.078 38.7521 48.068C38.7521 49.058 38.3022 49.608 37.6122 49.608H36.5721V46.578H36.5822ZM36.0521 50.068H37.6321C38.9221 50.068 39.3121 48.928 39.3121 48.038C39.3121 46.898 38.6821 46.118 37.6521 46.118H36.0521V50.058V50.068Z" fill="white"/>
<path d="M42.4722 48.448L43.1022 46.708H43.1122L43.6921 48.448H42.4722ZM43.8921 48.918L44.2821 50.068H44.8622L43.4321 46.128H42.8221L41.3422 50.068H41.8921L42.3021 48.918H43.8821H43.8921Z" fill="white"/>
<path d="M48.412 50.058H47.8719V48.478L46.382 46.118H47.002L48.142 48.018L49.272 46.118H49.892L48.412 48.478V50.058Z" fill="white"/>
<path d="M54.692 47.2681C54.662 46.6581 54.162 46.4681 53.712 46.4681C53.382 46.4681 52.812 46.5581 52.812 47.1581C52.812 47.4981 53.052 47.6081 53.282 47.6581L54.402 47.9181C54.912 48.0381 55.302 48.3481 55.302 48.9681C55.302 49.8981 54.432 50.1581 53.762 50.1581C53.032 50.1581 52.742 49.9381 52.572 49.7781C52.242 49.4781 52.172 49.1481 52.172 48.7781H52.672C52.672 49.4881 53.262 49.6981 53.762 49.6981C54.142 49.6981 54.792 49.5981 54.792 49.0381C54.792 48.6281 54.602 48.4981 53.952 48.3381L53.152 48.1481C52.892 48.0881 52.312 47.9081 52.312 47.2181C52.312 46.6081 52.712 45.9981 53.672 45.9981C55.052 45.9981 55.192 46.8181 55.212 47.2581H54.712L54.692 47.2681Z" fill="white"/>
<path d="M52.642 39.778L52.692 39.528C53.092 37.398 53.302 35.218 53.302 33.058C53.302 30.898 53.092 28.718 52.692 26.588L52.642 26.338H19.222V39.778H52.642ZM36.392 26.948H52.1219C52.4919 28.958 52.682 31.018 52.682 33.058C52.682 35.098 52.4919 37.158 52.1219 39.168H36.392V26.948ZM19.832 26.948H35.782V39.168H19.832V26.948Z" fill="white"/>
</svg>
