<svg width="160" height="22" viewBox="0 0 160 22" fill="none" xmlns="http://www.w3.org/2000/svg">
<path d="M157.537 14.6079H150.107C146.767 14.2879 145.587 11.4179 145.587 8.52794C145.587 5.86794 146.777 3.34794 150.107 2.97794H159.557V0.567932H150.327C146.367 0.567932 143.447 3.43793 143.147 7.48793C143.007 8.39793 143.067 9.17794 143.147 9.93794C143.587 14.0579 146.197 17.0079 150.327 17.0079H157.207C157.777 17.0079 157.747 17.9879 157.237 17.9879H143.837V20.3879H157.587C160.757 20.3979 160.847 14.5979 157.527 14.5979" fill="#252223"/>
<path d="M133.277 0.577942H130.807V20.3879H133.277V0.577942Z" fill="#252223"/>
<path d="M110.787 19.0679C106.107 19.0679 102.357 15.6679 102.357 11.0379C102.357 6.40793 106.107 3.02794 110.787 3.02794C115.467 3.02794 119.277 6.41793 119.277 11.0379C119.277 15.6579 115.477 19.0679 110.787 19.0679ZM110.787 0.577942C104.727 0.577942 99.827 5.26793 99.827 11.0379C99.827 16.8079 104.737 21.5179 110.787 21.5179C116.837 21.5179 121.757 16.8179 121.757 11.0379C121.757 5.25793 116.847 0.577942 110.787 0.577942Z" fill="#252223"/>
<path d="M78.7767 20.3879V0.577942H95.2667V3.02794H81.3067V14.5979H86.6867V17.0079H81.3067V20.3879H78.7767Z" fill="#252223"/>
<path d="M9.74669 14.5779H2.78668V2.97794H9.74669C13.0767 3.33794 14.2767 5.85794 14.2767 8.52794C14.2767 11.4079 13.0867 14.2679 9.74669 14.5879M16.6967 7.49794C16.4067 3.44794 13.4867 0.577942 9.51669 0.577942H0.296692V20.3679H2.77669V16.9879H9.52669C13.6567 16.9879 16.2667 14.0679 16.7067 9.94794C16.7867 9.17794 16.8467 8.40794 16.7067 7.49794" fill="#252223"/>
<path d="M62.0569 14.0979C61.1669 14.4679 60.2469 14.5779 59.6769 14.6079H53.4669V2.99794H59.7669C59.7669 2.99794 59.8669 2.99793 59.9169 3.00793C59.9169 3.00793 62.5869 2.97793 63.9269 4.81793C63.9269 4.81793 63.9369 4.83793 63.9469 4.84793C64.6469 5.71793 64.9969 6.88794 64.9969 8.41794V9.68794C64.9969 11.8379 63.8969 13.2979 62.0669 14.0979M63.8069 16.1079C66.3069 14.4579 67.4869 12.8279 67.4869 8.70793C67.4869 6.10793 66.8069 4.07793 65.5069 2.64793C65.1069 2.20793 64.5869 1.82793 63.9969 1.50793C63.9669 1.48793 63.9369 1.47793 63.9069 1.45793C63.7869 1.39793 63.6569 1.33794 63.5369 1.27794C63.5069 1.26794 63.4769 1.24793 63.4469 1.23793C63.3769 1.20793 63.3169 1.18794 63.2369 1.15794C61.9369 0.637944 60.6669 0.577932 60.2869 0.567932H50.9969V20.3779H53.4769V16.9979C53.8769 16.9879 56.2269 16.9879 56.5969 16.9879C61.5269 17.0179 64.0869 18.2379 65.7569 20.3779H68.5569C67.6569 18.9279 66.5169 17.6579 63.8169 16.0879" fill="#252223"/>
<path d="M27.7971 15.3879L32.4871 5.22794L37.1571 15.3879H27.7971ZM32.4871 0.577942L22.6771 21.1779H25.1571L26.6871 17.7979H38.2571L39.8171 21.1779H42.2971L32.4871 0.577942Z" fill="#252223"/>
</svg>
