<svg width="151" height="58" viewBox="0 0 151 58" fill="none" xmlns="http://www.w3.org/2000/svg">
<path d="M32.7119 43.2379V42.7579H35.3918V13.1579H32.7119V12.6779H45.5319C52.6319 12.6779 56.4719 16.038 56.4719 20.668C56.4719 25.298 52.9019 28.228 45.5819 28.228H40.2219V42.748H44.3319V43.228H32.7219L32.7119 43.2379ZM40.2119 27.748H44.4119C49.2319 27.748 51.3718 25.808 51.3718 20.5079C51.3718 16.3579 49.4619 13.1579 44.8119 13.1579H40.2119V27.748Z" fill="#0F4F79"/>
<path d="M75.3717 11.968C82.1117 11.968 88.2318 18.238 88.2318 27.958C88.2318 37.678 82.1117 43.938 75.3717 43.938C68.6317 43.938 62.5117 37.668 62.5117 27.958C62.5117 18.248 68.6217 11.968 75.3717 11.968ZM75.3717 43.458C80.3317 43.458 82.6918 39.528 82.6918 27.958C82.6918 16.388 80.3317 12.448 75.3717 12.448C70.4117 12.448 68.0518 16.388 68.0518 27.958C68.0518 39.528 70.4217 43.458 75.3717 43.458Z" fill="#0F4F79"/>
<path d="M102.752 42.7579H109.362C112.302 42.7579 113.162 41.7379 115.842 30.9579H116.822V43.2379H95.252V42.7579H97.932V13.168H95.252V12.688H107.222V13.168H102.752V42.7579Z" fill="#0F4F79"/>
<path d="M137.192 11.968C143.932 11.968 150.042 18.238 150.042 27.958C150.042 37.678 143.922 43.938 137.192 43.938C130.462 43.938 124.332 37.668 124.332 27.958C124.332 18.248 130.452 11.968 137.192 11.968ZM137.192 43.458C142.142 43.458 144.512 39.528 144.512 27.958C144.512 16.388 142.142 12.448 137.192 12.448C132.242 12.448 129.862 16.388 129.862 27.958C129.862 39.528 132.232 43.458 137.192 43.458Z" fill="#0F4F79"/>
<path d="M36.7817 49.688H37.8917C39.2317 49.688 39.6517 50.548 39.6517 51.348C39.6517 52.478 38.9517 53.1379 37.5017 53.1379H36.7817V49.688ZM37.7118 57.348V57.098H36.7817V53.3279H36.8318L39.9218 57.348H41.8518V57.098H41.2517L38.3617 53.3279C40.1117 53.2279 41.0317 52.458 41.0317 51.348C41.0317 50.358 40.3117 49.438 38.2817 49.438H34.7417V49.688H35.4718V57.098H34.7417V57.348H37.7118Z" fill="#0F4F79"/>
<path d="M47.6218 50.5679H47.6418L48.8019 53.9079H46.4119L47.6318 50.5679H47.6218ZM46.4319 57.3379V57.0879H45.2618L46.3219 54.1678H48.8818L49.8818 57.0879H48.9819V57.3379H51.6819V57.0879H51.1919L48.5219 49.3479H47.7418L44.9219 57.0879H44.2219V57.3379H46.4319Z" fill="#0F4F79"/>
<path d="M56.902 57.088H58.692C59.492 57.088 59.722 56.9479 60.452 54.1679H60.722V57.348H54.8521V57.098H55.582V49.688H54.8521V49.438H58.1119V49.688H56.902V57.098V57.088Z" fill="#0F4F79"/>
<path d="M66.6018 49.688H67.8617C69.1217 49.688 69.6517 50.428 69.6517 51.498C69.6517 52.868 69.0617 53.2379 67.7517 53.2379H66.6018V49.6779V49.688ZM67.7218 57.348V57.098H66.6018V53.498H68.0618C70.0618 53.498 71.0317 52.698 71.0317 51.498C71.0317 50.298 69.9918 49.438 68.0618 49.438H64.5718V49.688H65.3018V57.098H64.5718V57.348H67.7318H67.7218Z" fill="#0F4F79"/>
<path d="M76.332 53.368V57.088H77.132V57.348H74.292V57.088H75.022V49.688H74.292V49.438H77.132V49.688H76.332V53.118H79.552V49.688H78.7419V49.438H81.592V49.688H80.8619V57.088H81.592V57.348H78.7419V57.088H79.552V53.368H76.332Z" fill="#0F4F79"/>
<path d="M94.6819 57.088H96.4819C97.2819 57.088 97.5118 56.9479 98.2418 54.1679H98.5118V57.348H92.6418V57.098H93.3718V49.688H92.6418V49.438H95.9019V49.688H94.6919V57.098L94.6819 57.088Z" fill="#0F4F79"/>
<path d="M104.832 50.5679H104.852L106.002 53.9079H103.612L104.832 50.5679ZM103.642 57.3379V57.0879H102.472L103.522 54.1678H106.092L107.092 57.0879H106.192V57.3379H108.892V57.0879H108.402L105.732 49.3479H104.952L102.132 57.0879H101.432V57.3379H103.642Z" fill="#0F4F79"/>
<path d="M114.832 49.438V49.688H113.952V55.4279C113.952 56.8179 114.792 57.2679 115.562 57.2679C116.722 57.2679 117.532 56.538 117.532 55.348V49.688H116.432V49.438H118.602V49.688H117.872V55.3579C117.872 56.6779 116.942 57.5179 115.512 57.5179C113.542 57.5179 112.642 56.7379 112.642 55.1679V49.688H111.912V49.438H114.832Z" fill="#0F4F79"/>
<path d="M124.052 49.688H125.162C126.502 49.688 126.932 50.548 126.932 51.348C126.932 52.478 126.222 53.1379 124.772 53.1379H124.052V49.688ZM124.972 57.348V57.098H124.052V53.3279H124.102L127.192 57.348H129.122V57.098H128.522L125.632 53.3279C127.382 53.2279 128.302 52.458 128.302 51.348C128.302 50.358 127.582 49.438 125.542 49.438H122.002V49.688H122.722V57.098H122.002V57.348H124.972Z" fill="#0F4F79"/>
<path d="M131.952 57.338V57.088H132.682V49.6779H131.952V49.4279H138.122V51.968H137.852C137.202 49.828 137.002 49.6779 136.402 49.6779H133.992V53.1079H134.942C135.552 53.1079 135.842 52.758 136.082 51.528H136.352V54.938H136.082C135.832 53.718 135.542 53.3579 134.942 53.3579H133.992V57.0779H136.132C137.002 57.0779 137.262 56.768 137.972 54.408H138.252V57.3279H131.952V57.338Z" fill="#0F4F79"/>
<path d="M143.062 49.9179H143.042V57.088H144.062V57.338H141.902V57.088H142.702V49.688H141.902V49.438H144.232L147.802 55.1479H147.832V49.688H146.852V49.438H148.972V49.688H148.162V57.338H147.752L143.062 49.9179Z" fill="#0F4F79"/>
<path d="M15.1919 40.5778C15.1819 40.4978 15.1618 40.4378 15.1418 40.3978C15.0318 40.1178 14.9818 39.9578 14.9918 39.9178L15.1518 39.4678V39.0278C15.1618 38.9478 15.3319 38.6778 15.4819 38.4878L14.9819 38.3778L14.6919 38.6478C14.6319 38.6878 14.6118 38.8078 14.6218 38.9678C14.6318 39.0878 14.6119 39.1778 14.5719 39.1878L14.3219 39.2378C14.2419 39.2478 14.1919 39.2978 14.1919 39.3678C14.1919 39.4078 14.1919 39.4478 14.2119 39.4778L14.4118 39.8878L14.6518 40.5978H15.2119L15.1919 40.5778ZM11.7918 40.5778C11.7918 40.5778 11.7918 40.4978 11.7918 40.4578C11.8018 40.3378 11.8418 40.2078 11.9118 40.0878C11.9918 39.9378 12.0118 39.9178 12.0518 39.9178C12.1918 39.9278 12.2718 40.1578 12.2418 40.4578C12.2418 40.4978 12.2419 40.5378 12.2319 40.5678H14.0318L13.9819 40.4478C13.9819 40.4478 13.9818 40.3478 13.9918 40.2478C14.0218 40.1178 13.9919 39.9878 13.9419 39.9078L13.7219 39.5678C13.6919 39.5078 13.6718 39.4578 13.6718 39.4078C13.6718 39.3878 13.7019 39.3378 13.7219 39.3178L13.3319 39.1178L13.1718 39.2478L13.0018 39.6278C12.9818 39.6778 12.9019 39.7078 12.8219 39.7078C12.7319 39.7078 12.6618 39.6278 12.6718 39.5578C12.6718 39.5278 12.6819 39.4878 12.7019 39.4478L12.8918 39.0478L12.3918 38.9278C12.3018 39.2478 12.1418 39.3878 11.8918 39.3978L11.5719 39.8178C11.5419 39.8678 11.2918 39.8678 11.1218 39.9978C11.0018 40.0978 10.9719 40.2278 10.9819 40.3078L11.0118 40.5678H11.8219L11.7918 40.5778ZM9.86178 40.5778L9.62179 40.2478L9.23189 39.6378L9.20187 39.1978C9.20187 39.0478 9.14184 38.8578 9.05184 38.6578C8.90184 38.2978 8.86179 38.1678 8.87179 38.0678C8.87179 38.0278 8.89184 38.0078 8.92184 38.0178C8.96184 38.0178 9.01185 38.0478 9.06185 38.0978C9.12185 38.1478 9.16187 38.1778 9.20187 38.2478L9.72188 38.1378C9.72188 38.1378 9.61187 38.0378 9.58187 37.9378C9.55187 37.8378 9.55185 37.7578 9.56185 37.6478C9.60185 37.1978 9.84185 36.8078 10.0619 36.8278C10.1519 36.8278 10.2019 36.9378 10.1919 37.0478C10.1919 37.1478 10.1318 37.2478 10.0518 37.3278C9.98184 37.3978 9.94186 37.4578 9.94186 37.4878V37.7778C9.91186 37.9678 9.85188 38.1478 9.72188 38.1378L9.20187 38.2478C9.24187 38.3178 9.28183 38.4278 9.29183 38.5078C9.36183 38.8678 9.42188 39.0778 9.46187 39.1378L9.67184 39.4678L9.73189 39.7678L10.0018 40.1778L10.4018 40.5878H10.6618C10.6418 40.5378 10.6119 40.4478 10.5619 40.3378C10.5419 40.2978 10.5418 40.2478 10.5418 40.1978C10.5618 39.9878 10.6918 39.8078 10.8818 39.7378L11.3618 39.5678C11.6818 39.4478 11.8418 39.2678 11.8718 38.9978L11.8918 38.6878C11.8918 38.6878 11.9619 38.5778 12.0819 38.4778C12.1919 38.3778 12.2518 38.2678 12.2418 38.1878L12.1818 37.7478C12.1818 37.6978 12.1818 37.6378 12.1818 37.5878C12.2118 37.3178 12.3519 37.0578 12.5819 36.8678C12.6619 36.7978 12.7119 36.7578 12.7119 36.7578C12.7419 36.7578 12.7618 36.8078 12.7818 36.8678C12.8018 36.9378 12.8018 37.0078 12.7918 37.0778C12.7918 37.1578 12.7618 37.2278 12.7418 37.2978L12.5518 37.7578C12.5118 37.8578 12.4718 38.1278 12.4218 38.5478C12.4018 38.7078 12.3819 38.8678 12.3519 38.9778L12.8519 39.0978L12.9719 38.8178L13.1919 38.4978C13.1919 38.4178 13.1819 38.3278 13.1919 38.2478C13.2119 38.0078 13.2918 37.8878 13.4118 37.8978C13.5718 37.9178 13.6319 38.0878 13.6019 38.4278C13.5919 38.5278 13.5718 38.6178 13.5418 38.7078C13.4718 38.9078 13.4218 39.0178 13.4018 39.0478L13.3018 39.1478L13.7019 39.3478C13.7019 39.3478 13.7619 39.2778 13.8119 39.2378C14.2219 38.9278 14.5018 38.6278 14.6418 38.3578C14.7518 38.1478 14.8319 38.0178 14.8519 37.9778C14.8819 37.9278 14.9419 37.8878 14.9819 37.8878C15.0619 37.8878 15.0919 37.9578 15.0919 38.0578C15.0919 38.0878 15.0919 38.1178 15.0719 38.1378L14.9819 38.3778L15.4619 38.5278C15.5919 38.3578 15.6218 38.2678 15.6418 38.0978C15.6518 37.9778 15.6419 37.8578 15.6019 37.7378L15.3419 36.9478C15.2619 36.7178 15.1818 36.5678 15.1418 36.5578C15.0018 36.5478 14.8818 36.6078 14.8718 36.7078V37.4678C14.8418 37.6778 14.6919 37.7878 14.4519 37.7578C14.4119 37.7578 14.3818 37.7378 14.3818 37.7178C14.3818 37.6978 14.4619 37.5778 14.5919 37.3578C14.6219 37.3078 14.6418 37.2478 14.6518 37.1778C14.6918 36.8378 14.5318 36.3978 14.3018 36.1678L13.6218 35.4978L12.7418 34.2978L12.5418 33.9078L12.5919 33.7778L12.5118 33.3878L11.7818 33.4478L11.7418 33.7078L11.8219 33.8978L11.7918 34.3378L11.7418 34.6278L11.6218 34.8478V35.1178L11.3818 35.4578L11.1518 35.5778L11.0418 35.7978C10.9718 35.9378 10.8618 36.0278 10.7618 36.0178L10.7019 35.9178L10.4318 36.1378L10.5118 36.2378L10.4018 36.3778C10.4018 36.3778 10.3518 36.4078 10.3018 36.4078C10.2218 36.4078 10.1718 36.3478 10.1818 36.2778C10.1918 36.1678 10.2918 36.0878 10.3918 36.0978L10.4419 36.1578L10.7119 35.9378L10.6518 35.7778L10.7019 35.6778L11.0118 35.2778L11.1418 35.0178L11.3818 34.7778L11.4118 34.5478L11.5018 34.2778L11.4419 34.1178L11.5518 33.4878C11.5718 33.3778 11.6118 33.3078 11.6418 33.3078C11.7218 33.3078 11.7918 33.3378 11.7918 33.3578V33.4478L12.5218 33.3978L12.4819 33.1678L12.4218 32.3878L11.8618 31.2678C11.8318 31.1978 11.8218 31.0678 11.8618 30.8978L11.8818 30.7678C11.9218 30.4078 11.9118 30.0978 11.6718 29.8578L11.4218 30.1378C11.4818 30.1378 11.5018 30.2478 11.4918 30.4278C11.4918 30.5378 11.4618 30.6478 11.4318 30.7678C11.3818 30.9578 11.3418 31.0778 11.3018 31.1078L11.0719 31.3578L10.7119 31.9778L10.2618 32.3678L9.56185 32.7378C9.49185 32.7778 9.41189 32.8678 9.35189 32.9878L9.14181 33.4278L8.67184 33.8478C8.53184 33.9678 8.50184 34.0278 8.30184 34.4978C8.19184 34.7578 8.03182 34.9278 7.90182 34.9178C7.87182 34.9178 7.81183 34.8778 7.79183 34.8578L7.53182 35.1578C7.69182 35.1278 7.78182 35.3178 7.78182 35.3278C7.78182 35.3478 7.74184 35.4378 7.67184 35.5978C7.64184 35.6778 7.58182 35.7178 7.53182 35.7178C7.53182 35.7178 7.5218 35.7178 7.5118 35.7178L7.44186 35.9178C7.44186 35.9178 7.50181 35.9178 7.52181 35.9178C7.53181 35.9178 7.54184 35.9178 7.55184 35.9378L7.64181 36.0878C7.64181 36.0878 7.60188 36.1678 7.59188 36.2678C7.57188 36.3878 7.49183 36.4778 7.41183 36.4778L7.48189 36.8578C7.48189 36.8578 7.54187 36.8578 7.58187 36.8578C7.64187 36.8578 7.70178 36.8878 7.74178 36.9178C7.82178 36.9878 7.87189 37.1078 7.85189 37.2278C7.84189 37.3378 7.77182 37.3978 7.65182 37.3878C7.56182 37.3878 7.48186 37.3078 7.44186 37.2178H7.08187C7.16187 37.4978 7.27179 37.6778 7.37179 37.7278L7.54183 37.8078L8.02181 39.2478L8.37179 39.5878L8.73189 40.2778L9.00179 40.5878H9.89181L9.86178 40.5778ZM14.6318 40.5778L14.6518 40.6278L14.7119 40.8978L14.5719 41.2778L14.5418 41.5178C14.5418 41.8878 14.4218 42.1978 14.2418 42.3778C14.0718 42.5378 13.9819 42.6678 13.9819 42.7278V42.9778L13.7918 43.2578L13.6818 43.5178L13.5819 43.4378C13.5819 43.4378 13.5519 43.3378 13.5819 43.2578L13.7019 42.9978C13.7019 42.9978 13.7319 42.8778 13.7319 42.7778C13.7319 42.5178 13.7518 42.3278 13.8018 42.2178L13.9519 41.9078L14.0218 41.0878L14.0719 40.7278L14.0118 40.5878H12.2119C12.1819 40.8978 12.1419 41.0978 12.0919 41.1878C12.0019 41.3678 11.9819 41.4678 11.9819 41.4778C11.9819 41.5278 12.0019 41.7178 12.1019 42.0278C12.1519 42.1678 12.1518 42.5078 12.1218 43.0078C12.1118 43.2478 12.1218 43.5678 12.1518 43.9878C12.2018 44.5478 12.2118 44.9779 12.1818 45.2579C12.1418 45.6679 11.9918 46.0979 11.7518 46.5379C11.6218 46.7779 11.6119 46.8078 11.5919 46.9378C11.5519 47.3378 11.7618 48.0078 12.0418 48.3978L12.3319 48.7978L12.3918 48.9878L12.2518 49.0079C12.2518 49.0079 12.1618 49.0778 12.1518 49.1678C12.1418 49.3078 12.2719 49.4978 12.4419 49.5878C12.6119 49.6678 12.6919 49.7178 12.7119 49.7278C12.7819 49.7678 12.8319 49.8378 12.8219 49.8978V50.1778C12.8219 50.1778 12.9018 50.2978 13.0518 50.3578C13.1818 50.4178 13.4119 50.6379 13.7019 51.0079C13.8419 51.1779 13.9818 51.2679 14.1518 51.2879C14.3018 51.3079 14.3418 51.2478 14.4318 50.9378L14.5619 50.4978L14.5018 50.2178L14.1318 49.8878L13.7918 49.5778C13.7918 49.5778 13.6918 49.5079 13.6318 49.5079C13.5618 49.5079 13.4919 49.5278 13.4419 49.5878L13.2618 49.8078L13.1718 49.6878C13.1118 49.6178 13.2218 49.4378 13.4118 49.2978C13.5418 49.1978 13.6218 49.0979 13.6218 49.0379C13.6218 48.9379 13.5218 48.8478 13.3918 48.8378H13.1218V48.5778L13.3618 48.1378C13.4818 47.9178 13.4518 47.5979 13.2818 47.2879C13.1518 47.0579 13.0819 46.8879 13.0919 46.8179L13.1919 46.1478L12.8618 46.0079L12.8219 46.5278L12.6518 46.7278L12.4218 46.7078L12.1518 46.7579C12.0918 46.7579 12.0518 46.6978 12.0518 46.6378C12.0618 46.5178 12.1218 46.4178 12.1818 46.4278L12.4018 46.4578L12.5619 46.2678L12.7119 45.6378C12.7119 45.6378 12.7419 45.5578 12.8119 45.5578C12.8719 45.5578 12.9218 45.5778 12.9118 45.6578L12.8718 46.0178L13.2019 46.1478L13.2718 45.3978L13.5318 44.7879L13.6218 44.3078C13.6318 44.2378 13.7218 44.0878 13.8918 43.8578C13.9818 43.7278 14.0818 43.5378 14.1718 43.2978C14.3718 42.7978 14.5119 42.4878 14.5719 42.3678C14.9819 41.6078 15.2119 41.1778 15.2319 40.9878C15.2519 40.8378 15.2118 40.7778 15.1818 40.5978C15.1818 40.5978 15.1818 40.5778 15.1818 40.5678H14.6218L14.6318 40.5778ZM10.4118 40.5778L10.5819 40.7578L10.6818 40.6378C10.6818 40.6378 10.6818 40.6178 10.6718 40.5778H10.4118ZM10.9719 40.5778L11.0619 41.2678C11.0619 41.2678 11.0619 41.3078 11.0619 41.3178C11.0619 41.3978 11.0219 41.4378 10.9619 41.4278C10.8819 41.4278 10.7519 41.3478 10.5919 41.2078L9.85189 40.5778H8.96187L9.0118 40.6378L9.34188 41.1378L10.3119 41.5878L10.6518 41.8178L11.1818 41.9778L11.6019 42.2278L11.7918 42.1078L11.8119 41.6678L11.8918 41.4678L11.8018 40.6178C11.8018 40.6178 11.8018 40.5978 11.8018 40.5778H10.9918H10.9719ZM6.08187 33.3478L6.75179 35.2878C6.82179 35.4778 6.85189 35.5778 6.85189 35.5878C6.85189 35.6178 6.85188 35.7278 6.84188 35.9278C6.84188 35.9978 6.88188 36.3078 6.96187 36.8378C6.98187 36.9778 6.99182 37.0678 7.03182 37.2178H7.39181C7.36181 37.1478 7.34189 37.0978 7.35189 37.0078C7.35189 36.9278 7.35187 36.8778 7.45187 36.8578L7.3818 36.4778C7.3018 36.4778 7.23179 36.2778 7.25179 36.0478C7.25179 35.9778 7.29184 35.8878 7.42184 35.9178L7.47188 35.7178C7.36188 35.6978 7.33188 35.5778 7.34188 35.4678C7.34188 35.3778 7.35181 35.2578 7.52181 35.1078L7.74178 34.8778C7.74178 34.8778 7.70187 34.7978 7.71187 34.7378C7.71187 34.6578 7.75185 34.5878 7.81185 34.5378L8.16183 34.2178L8.32186 33.9378L8.46187 33.8478L8.52181 33.5278L8.67184 33.2978L9.19186 32.9278C9.24186 32.8878 9.32185 32.7878 9.43185 32.6278C9.61185 32.3678 9.76181 32.2478 10.1418 32.0378C10.3518 31.9278 10.4918 31.7978 10.5218 31.6978L10.6019 31.4278C10.6019 31.4278 10.6818 31.2978 10.7818 31.1878C10.8818 31.0778 10.9718 30.9478 11.0318 30.7978C11.2818 30.1878 11.2818 30.0878 11.4018 30.1478L11.6518 29.8678C11.6518 29.8678 11.5119 29.7978 11.4619 29.7578L10.8018 29.0778L10.5318 29.0378C10.3718 29.0078 10.2219 28.9478 10.0919 28.7978L9.90182 28.9178C9.90182 28.9178 9.97179 28.9678 10.0018 29.0078C10.2318 29.2778 10.3818 29.7278 10.3618 30.0878L10.3319 30.5178V30.6178C10.2719 31.1378 10.1918 31.3378 10.0418 31.3278C9.94183 31.3278 9.89184 31.1678 9.92184 30.9378C9.92184 30.8778 9.94187 30.8178 9.96187 30.7578L10.1218 30.2778L10.0719 30.0078C10.0219 29.7078 9.90189 29.4378 9.73189 29.2278C9.65189 29.1278 9.61178 29.0478 9.61178 28.9978C9.61178 28.9278 9.69182 28.8778 9.78182 28.8778C9.82182 28.8778 9.88183 28.8978 9.91183 28.9278L10.1019 28.8178C9.88189 28.5878 9.68183 28.1678 9.54183 27.6778L9.23189 27.7678C9.30189 27.9378 9.38188 28.1178 9.47188 28.2778C9.51188 28.3578 9.53182 28.4178 9.53182 28.4678C9.53182 28.5178 9.47183 28.5678 9.41183 28.5678H9.39181C9.34181 28.5678 9.30183 28.5378 9.29183 28.4978L9.20187 28.1778L9.03182 27.8278C9.03182 27.8278 8.97184 27.6778 8.92184 27.4978C8.89184 27.3978 8.8318 27.2578 8.7618 27.0978C8.7218 27.0178 8.71187 26.9478 8.71187 26.8978C8.71187 26.8378 8.76187 26.8078 8.83187 26.8078C8.92187 26.8078 9.03187 27.0278 9.08187 27.2878C9.10187 27.4078 9.16178 27.5978 9.24178 27.7878L9.55184 27.7178L9.28182 26.9778C9.15182 26.6178 8.95183 26.3578 9.16183 26.3478C9.21183 26.3478 9.38179 26.4278 9.37179 26.3778V25.8178L9.28182 25.8578C9.16182 25.9078 9.00187 25.8978 8.95187 25.7878C8.92187 25.7178 8.9118 25.6578 8.8818 25.5478C8.7818 25.0478 8.71183 24.7578 8.66183 24.4978H8.22188C8.24189 24.5578 8.24178 24.6278 8.24178 24.6978C8.21178 24.9578 8.20182 24.9978 8.15182 24.9978C8.04182 24.9878 8.00188 24.9278 7.97188 24.7078L7.93185 24.3778C7.93185 24.3778 7.93185 24.3478 7.93185 24.3278C7.93185 24.2578 7.96179 24.2178 8.00179 24.2178C8.04179 24.2178 8.0918 24.2578 8.1318 24.3178C8.1718 24.3678 8.20188 24.4478 8.22188 24.5178H8.66183C8.62183 24.3178 8.57184 24.0778 8.55184 24.0178L8.02181 22.1578H7.97188L7.96187 23.1478V23.2578L7.61178 21.7378L7.30184 21.9078C7.30184 21.9078 7.32185 21.9678 7.31185 22.0178C7.28185 22.3178 7.10181 22.8378 6.89181 23.2378L6.68185 23.6278L6.44186 24.0978C6.35186 24.2778 6.20185 24.3878 6.06185 24.3678C6.03185 24.3678 6.01178 24.3678 5.99178 24.3078L5.72188 24.5178L5.74178 24.5978C5.74178 24.5978 5.75179 24.6278 5.75179 24.6478C5.74179 24.7978 5.55178 24.9278 5.36178 24.9078C5.31178 24.9278 5.25185 24.9378 5.18185 24.9278C5.15185 24.9278 5.13178 24.9078 5.11178 24.8878L4.72188 25.0378C4.82188 25.3878 4.92184 25.9278 5.05184 26.6678C5.20184 27.5578 5.31181 28.2278 5.39181 28.6578C5.53181 29.4378 5.76183 30.0078 6.04183 30.2878C6.28183 30.5278 6.40181 30.7378 6.39181 30.8878C6.39181 30.9678 6.35184 31.0078 6.30184 31.0078C6.19184 30.9978 6.00179 30.8278 5.87179 30.6178L5.6318 30.2478C5.5818 30.1678 5.51188 30.1078 5.46187 30.1078C5.42188 30.1078 5.3818 30.1278 5.3818 30.1478L5.32186 30.8378L5.21187 31.1778L5.27181 31.5478L6.02181 33.1478L6.09188 33.3478L6.58187 33.1278L6.55184 32.5978C6.55184 32.5178 6.53178 32.4578 6.49178 32.4078C6.47178 32.3778 6.41185 32.3078 6.31185 32.1878C6.16185 32.0078 6.08189 31.7978 6.10189 31.6078C6.11189 31.4878 6.18179 31.3978 6.25179 31.4078C6.41179 31.4278 6.62183 31.7478 6.79183 32.2478C6.81183 32.3178 6.82186 32.3778 6.82186 32.4478V32.4978C6.82186 32.4978 6.79178 32.5578 6.74178 32.6678L6.56185 33.1278L6.07186 33.3178L6.08187 33.3478ZM6.90182 20.9478L6.95187 21.1678L6.90182 21.5678C6.89182 21.6578 6.82186 21.7378 6.69186 21.7078L6.58187 21.7778C6.58187 21.7778 6.75178 21.8278 6.61178 22.0678L6.57186 22.1378L6.21187 22.6478L5.87179 23.2278C5.81179 23.3378 5.66184 23.4178 5.55184 23.4078L5.33187 23.5978C5.33187 23.5978 5.37179 23.6478 5.37179 23.6878C5.37179 23.7578 5.29182 23.8978 5.15182 24.0878C5.00182 24.3078 4.83184 24.4078 4.67184 24.3878C4.64184 24.3878 4.62189 24.3778 4.60189 24.3578L4.48189 24.5078C4.56189 24.5578 4.64189 24.7378 4.73189 25.0578L5.1318 24.8978C5.1318 24.8978 5.11178 24.8678 5.11178 24.8478C5.11178 24.7878 5.57178 24.1278 5.74178 24.5078L6.00179 24.2978C6.00179 24.2978 5.97189 24.2378 5.98189 24.1978C5.98189 24.1178 6.03189 24.0378 6.10189 23.9478C6.30189 23.7078 6.44181 23.4978 6.52181 23.3378L6.83187 22.6578L7.07186 22.2078L7.14181 21.8878C7.14181 21.8878 7.2018 21.8278 7.2618 21.8378C7.2918 21.8378 7.32187 21.8678 7.33187 21.8978L7.64181 21.7378L7.47188 20.9478L7.42184 20.7078L6.92184 20.9378L6.90182 20.9478ZM6.45187 20.8578C6.45187 20.8578 6.48189 20.9578 6.48189 21.0178C6.48189 21.0678 6.45184 21.1178 6.42184 21.1578C6.28184 21.2978 6.25182 21.3978 6.15182 21.3578L5.93185 21.7978C5.93185 21.7978 5.99189 21.8878 5.98189 21.9578C5.98189 22.0378 5.94181 22.1078 5.89181 22.1778C5.81181 22.2978 5.66187 22.3878 5.58187 22.3778L5.42184 22.7278C5.42184 22.7278 5.46186 22.7678 5.44186 22.8078L4.98189 23.4978L4.62179 23.7278C4.62179 23.7278 4.60188 23.7278 4.59188 23.7278C4.57188 23.7278 4.55182 23.7278 4.53182 23.7078L4.34188 23.9678C4.34188 23.9678 4.37178 23.9978 4.36178 24.0178C4.36178 24.0578 4.30188 24.1178 4.22188 24.2078L3.99178 24.4178L3.92184 24.4778L3.99178 24.6978C4.23178 24.5578 4.34182 24.5178 4.40182 24.5178C4.42182 24.5178 4.45188 24.5378 4.47188 24.5478L4.57186 24.3878C4.57186 24.3878 4.54183 24.3578 4.54183 24.3378C4.54183 24.2978 4.60186 24.2078 4.69186 24.0978L4.94186 23.8378C5.08186 23.6878 5.10181 23.6478 5.14181 23.6178C5.18181 23.5878 5.21189 23.5878 5.23189 23.5878C5.26189 23.5878 5.31187 23.6078 5.33187 23.6278L5.53182 23.4278C5.53182 23.4278 5.46187 23.3978 5.46187 23.3878C5.46187 23.3678 5.49183 23.3278 5.54183 23.2778C5.68183 23.1278 5.81185 22.9378 5.93185 22.7078C6.07185 22.4278 6.20186 22.1778 6.32186 21.9578C6.38186 21.8478 6.45186 21.7478 6.57186 21.7878L6.70187 21.7178C6.62187 21.7178 6.58188 21.6078 6.59188 21.4878C6.60188 21.3778 6.65188 21.2678 6.72188 21.1778L6.89181 20.9678L7.3818 20.7578L7.40182 20.6578L6.97188 19.6278L6.6318 19.7378C6.6318 19.7978 6.59179 19.8778 6.50179 19.8778L6.62179 20.2378C6.62179 20.2378 6.7218 20.1978 6.7618 20.2078C6.8618 20.2178 6.92183 20.3078 6.91183 20.4278V20.4578C6.87183 20.5678 6.79187 20.6378 6.71187 20.6378C6.70187 20.6378 6.64189 20.6178 6.60189 20.5978L6.44186 20.8778L6.45187 20.8578ZM4.64181 22.1578C4.70181 22.1878 4.75182 22.2278 4.78182 22.2778C4.82182 22.3378 4.84187 22.3778 4.83187 22.3978C4.83187 22.3978 4.72186 22.4278 4.57186 22.4578C4.49186 22.4778 4.41187 22.5378 4.33187 22.6378L4.06185 22.9978C4.03185 22.9178 4.03181 22.8778 4.02181 22.8478L3.70187 22.9578C3.72187 23.0578 3.73189 23.1378 3.73189 23.1778C3.73189 23.3378 3.73189 23.4478 3.73189 23.4678L3.80184 23.5978L3.78182 23.9878C3.78182 23.9878 3.83181 24.0478 3.89181 24.0578C3.92181 24.0578 3.95178 24.0578 3.99178 24.0378C4.16178 23.9578 4.24182 23.9278 4.28182 23.9278C4.31182 23.9278 4.34189 23.9578 4.35189 23.9678L4.53182 23.6978C4.53182 23.6978 4.49179 23.6378 4.50179 23.5978C4.50179 23.5278 4.54189 23.4578 4.60189 23.3978L4.8818 23.1078C5.0918 22.8878 5.17188 22.8578 5.21187 22.8178C5.30188 22.7378 5.37183 22.7178 5.41183 22.7278L5.57186 22.3778C5.57186 22.3778 5.45186 22.3278 5.57186 22.1878L5.69186 21.9878C5.76186 21.8578 5.8418 21.7778 5.8818 21.7778C5.8918 21.7778 5.92185 21.7878 5.93185 21.7978L6.14181 21.3478C6.14181 21.3478 6.11189 21.2978 6.10189 21.2678C6.10189 21.2478 6.10189 21.2378 6.10189 21.2178C6.10189 21.1978 6.10178 21.1778 6.11178 21.1678C6.20178 20.9578 6.30189 20.8378 6.35189 20.8278C6.39189 20.8178 6.42186 20.8278 6.44186 20.8478L6.62179 20.5778C6.62179 20.5778 6.57183 20.5578 6.54183 20.5378C6.49183 20.5078 6.46188 20.4678 6.47188 20.4178C6.47188 20.3378 6.54181 20.2578 6.64181 20.2078L6.5118 19.8578C6.4318 19.8578 6.3718 19.7878 6.3818 19.7078C6.3818 19.6378 6.45181 19.5678 6.52181 19.5778C6.59181 19.5778 6.65182 19.6678 6.65182 19.7378L6.98189 19.6378C6.96189 19.5678 6.96187 19.5078 6.96187 19.4378C6.98187 19.2778 7.12178 19.0478 7.36178 18.8278C7.33178 18.7578 7.31184 18.7078 7.30184 18.6678C7.25184 18.5278 7.21183 18.4778 7.16183 18.4778C7.04183 18.4678 6.82186 18.5878 6.69186 18.7478L6.35189 19.1478C6.27189 19.2478 6.16185 19.2978 6.06185 19.2878C5.97185 19.2878 5.8218 19.1878 5.2618 18.7678L5.23189 18.7478C5.13189 18.6778 4.69185 18.3978 4.68185 18.2378L4.33187 18.6178C4.33187 18.6178 4.38188 18.7178 4.34188 18.7878L4.30184 18.8278C4.30184 18.8278 4.26187 18.8778 4.20187 18.9478L4.30184 19.0578C4.30184 19.0578 4.38186 18.9978 4.44186 19.0078C4.48186 19.0078 4.52184 19.0178 4.55184 19.0378L5.64181 19.5578L6.06185 19.8178C6.06185 19.8178 6.07186 19.8378 6.07186 19.8478C6.07186 19.9078 6.02188 19.9478 5.97188 19.9378C5.91188 19.9378 5.83189 19.8878 5.73189 19.8078C5.62189 19.7178 5.47183 19.6478 5.29183 19.5878L4.45187 19.3378C4.35187 19.3078 4.27181 19.2178 4.27181 19.1478C4.27181 19.1078 4.29184 19.0778 4.30184 19.0578L4.21187 18.9378C4.21187 18.9378 4.14178 19.0078 4.11178 19.0578C4.01178 19.1878 3.90182 19.2878 3.78182 19.3378C3.24182 19.5678 2.84186 20.0678 2.69186 20.2778C2.46186 20.6078 2.32181 20.9178 2.27181 21.1878V21.2178C2.26181 21.2978 2.28187 21.3778 2.33187 21.4378L2.80184 21.6678L3.48189 22.4678C3.58189 22.5978 3.67187 22.7878 3.70187 22.9778L4.02181 22.8678C4.02181 22.8678 4.02181 22.8178 4.02181 22.7978C4.02181 22.7978 4.07183 22.6578 4.16183 22.3978C4.23183 22.1978 4.34189 22.1078 4.48189 22.1178C4.53189 22.1178 4.5918 22.1378 4.6318 22.1578L4.83187 21.5778L4.70187 21.4578L4.60189 21.2978C4.55189 21.2178 4.52181 21.1678 4.52181 21.1578V21.1278C4.52181 21.0678 4.57183 20.9878 4.66183 20.9178C4.77183 20.8178 4.87184 20.7578 4.92184 20.7578C4.92184 20.7578 5.00178 20.7178 5.11178 20.7778C5.29178 20.8778 5.49178 20.8378 5.49178 20.8478L5.43185 21.0478V21.3778C5.40185 21.5878 5.07185 21.7378 4.81185 21.5678L4.62179 22.1478L4.64181 22.1578ZM5.29183 18.6278C5.29183 18.6278 5.40188 18.6778 5.46187 18.6878C5.70187 18.7178 5.97182 18.3178 6.03182 17.8278C6.05182 17.6578 6.03184 17.5978 5.92184 17.5778C5.82184 17.5678 5.68188 17.6378 5.59188 17.7478L5.31185 18.1078C5.18185 18.2678 5.16182 18.3078 5.15182 18.3478C5.15182 18.3778 5.15184 18.4078 5.17184 18.4478C5.19184 18.5178 5.25185 18.5878 5.31185 18.6278H5.30184H5.29183ZM19.7418 40.7078C19.7918 40.6178 19.8719 40.5578 19.9519 40.5678L20.2219 40.5978C20.2219 40.5978 20.3318 40.5378 20.4218 40.4378C20.4818 40.3778 20.5419 40.3378 20.5819 40.3478C20.6219 40.3478 20.6518 40.4178 20.6518 40.4978V40.5478C20.6218 40.7878 20.4418 40.8978 20.0418 40.9278C19.9718 40.9278 19.8919 40.9278 19.8219 40.9278C19.7319 40.9178 19.6919 40.8878 19.6919 40.8378C19.6919 40.7978 19.7119 40.7578 19.7319 40.7178H19.4419C19.4419 40.7178 19.4419 40.7878 19.4419 40.8178C19.4419 40.8878 19.4118 40.9178 19.3718 40.9178C19.3418 40.9178 19.3118 40.9078 19.2718 40.8878C19.7818 41.7278 19.9319 42.2178 19.8519 42.8078C19.8219 43.0778 19.7518 43.2378 19.6818 43.2578L19.5518 43.2778L19.5118 43.4578L19.6318 43.8278L19.5619 44.2678L19.4519 44.5378L19.4118 44.9778L19.3718 45.5778L19.4419 46.1078V46.5278C19.4219 46.6978 19.4919 46.8078 19.6019 46.8278C19.6519 46.8278 19.7319 46.8278 19.8319 46.8278C19.8619 46.8278 19.8918 46.8278 19.9218 46.8278C20.0418 46.8478 20.1119 46.9279 20.0919 47.0379C20.0919 47.0979 20.0618 47.1478 20.0218 47.1878C19.9218 47.2878 19.8018 47.3678 19.6518 47.4178C19.5118 47.4578 19.4318 47.4778 19.4218 47.4778C19.4218 47.4778 19.3918 47.4678 19.3618 47.4478L19.3119 47.6378L19.2219 47.8978C19.2219 47.8978 19.2218 48.0378 19.2618 48.1978C19.2918 48.2878 19.2619 48.6178 19.1919 49.1578L19.1618 49.4178C19.1318 49.6278 19.0619 49.8278 18.9519 50.0278C18.7419 50.3878 18.6318 50.6278 18.6318 50.7278V51.3078V51.6578L18.7618 51.9578L18.7818 52.2579L18.6218 52.6578C18.6018 52.7978 18.6819 52.9678 18.8219 53.1378C18.9219 53.2478 19.0418 53.3278 19.1718 53.3578L19.6118 53.3278C19.7918 53.3178 19.9218 53.2379 19.9318 53.1278C19.9318 53.0878 19.9318 53.0478 19.9118 53.0178L19.5719 52.5278C19.4719 52.3878 19.4319 52.2478 19.4519 52.0878C19.4719 51.9178 19.5518 51.7478 19.6718 51.6178C19.7818 51.4978 19.8419 51.3979 19.8219 51.3479L19.7518 51.1178C19.7518 51.1178 19.7818 50.9578 19.8718 50.7978C19.9418 50.6878 19.9818 50.3878 19.9918 49.9178C19.9918 49.7778 20.0418 49.4678 20.1318 48.9978L20.5819 46.5979L20.6418 46.4678L20.9318 46.0478C20.9818 45.9778 21.0218 45.8778 21.0318 45.7678C21.0318 45.7178 21.0318 45.6578 21.0318 45.6078C21.0118 45.2878 20.9718 45.1678 20.9018 45.1578C20.8418 45.1578 20.7818 45.1778 20.7418 45.2278L20.5619 45.4678L20.5218 45.4978L20.3519 45.1278L20.0518 44.3778L20.1618 43.3978V42.9978C20.1818 42.8978 20.3118 42.8778 20.3618 42.9578C20.3818 42.9878 20.4018 43.0578 20.4018 43.1678L20.4318 43.5878L20.3618 43.9378L20.5018 44.2578L20.5619 44.6178C20.5619 44.6678 20.6219 44.7178 20.6919 44.7178C20.7919 44.7278 20.9119 44.5378 20.9419 44.3278L21.0919 43.3678L21.2718 42.9878L21.2918 42.4278L21.4819 41.9278C21.5219 41.8278 21.5419 41.5478 21.5619 41.0878C21.5819 40.7178 21.6719 40.2878 21.8319 39.8178L22.7718 37.1478C22.8618 36.8978 22.9219 36.6278 22.9619 36.3378C23.1519 34.8478 22.7618 33.2878 21.6218 31.9778C19.8718 29.9778 19.2118 29.5378 18.2818 29.3978C17.7918 29.3178 17.4518 29.2578 17.2918 29.1678C17.2118 29.1278 17.1618 29.1078 17.1218 29.0978C17.0918 29.0978 17.0719 29.1178 17.0619 29.1578C17.0419 29.2878 17.1518 29.4878 17.4018 29.7878C17.5718 29.9978 17.6718 30.2478 17.6718 30.4878V30.7878L17.8419 31.3178L17.6418 32.0878L17.5318 32.3578L17.4118 32.4278L17.3319 32.6578L16.9419 32.9378V33.0678L17.0518 33.2178L16.9619 33.3078L17.1718 33.5178V33.8278L17.2718 34.7878L17.1118 35.0578L16.8818 35.1678C16.8318 35.1978 16.7918 35.2578 16.7818 35.3378C16.7618 35.4678 16.8918 35.7678 17.0518 35.9978C17.3518 36.4178 17.5819 36.8678 17.7219 37.3178C17.8219 37.6278 17.8918 37.8378 17.9318 37.9378C17.9718 38.0478 18.0419 38.1178 18.0919 38.1278C18.2019 38.1378 18.3019 38.0578 18.3319 37.9478L18.4719 37.3678C18.4819 37.3178 18.5418 37.1978 18.6118 37.0178C18.7818 36.5578 18.8318 36.0978 18.6518 35.7778C18.4818 35.4778 18.4018 35.2478 18.4318 35.1878L18.5719 34.9478L18.6118 34.6478V34.1978L18.5719 33.8078C18.5819 33.7178 18.6419 33.6478 18.7119 33.6278H18.7319C18.8519 33.6378 18.9019 33.8378 18.9419 34.3678C18.9619 34.5978 19.0619 34.8078 19.2119 34.9278L19.4519 35.1178L19.5719 35.9978L19.6019 36.6178L19.4519 37.2478L19.2319 37.5378C19.2319 37.5378 19.2119 37.6878 19.2319 37.8778C19.2519 38.0278 19.2019 38.1778 19.1019 38.2978L18.9619 38.4578L18.8219 38.7678L18.6718 39.0478C18.5718 39.8678 18.6718 40.1378 19.1818 40.4978C19.3018 40.5878 19.3718 40.6578 19.3918 40.7478H19.6818L19.7418 40.7078ZM16.7618 41.9478L16.9018 42.7778C16.9818 43.2478 17.0318 43.3278 17.2518 43.3578C17.4818 43.3878 17.7018 43.2578 17.9118 42.9578C18.3018 42.3878 18.6818 41.5378 18.7418 41.0878C18.7618 40.9378 18.7519 40.8078 18.7219 40.7178L18.5318 40.1378L18.3219 39.2378L18.1818 39.1678L18.0218 39.3578L17.8718 39.4178C17.8718 39.4178 17.7918 39.4878 17.7818 39.5578C17.7718 39.6578 17.8618 39.8278 18.0318 40.0478C18.1118 40.1478 18.1518 40.2578 18.1418 40.3378C18.1418 40.4078 18.0718 40.4478 17.9918 40.4378C17.9318 40.4378 17.8719 40.3978 17.8319 40.3378L17.4619 39.8478C17.4219 39.7978 17.3618 39.7578 17.2918 39.7478C17.2218 39.7478 17.1119 39.7778 16.9819 39.8678C16.5919 40.1278 16.5019 40.2178 16.4819 40.3178C16.4819 40.3178 16.4819 40.3378 16.4819 40.3478L16.6618 41.1878L17.2219 41.2078C17.1419 41.1178 17.1218 40.9778 17.1218 40.7678C17.1218 40.7378 17.1218 40.6878 17.1218 40.6078C17.1218 40.5678 17.1218 40.5178 17.1218 40.4778C17.1418 40.3278 17.2019 40.2678 17.3119 40.2778C17.3619 40.2778 17.4118 40.3178 17.5218 40.4078C17.8318 40.6678 17.9619 40.8878 17.9419 41.0678C17.9219 41.2378 17.7419 41.3678 17.5719 41.3378C17.4019 41.3178 17.2619 41.3078 17.2019 41.1778L16.6618 41.1478L16.6818 41.5078L16.7618 41.9678L17.2918 41.8978C17.2918 41.8978 17.2618 41.8378 17.2718 41.8078C17.2718 41.7678 17.3118 41.7178 17.3718 41.6778C17.4118 41.6478 17.4718 41.6378 17.5218 41.6478C17.6218 41.6578 17.6919 41.6978 17.6919 41.7378C17.6919 41.7778 17.6419 41.8278 17.5719 41.8878C17.5219 41.9278 17.4618 41.9478 17.3918 41.9378C17.3518 41.9378 17.3118 41.9378 17.2918 41.8778L16.7718 41.9478H16.7618ZM22.8419 30.8878L23.3618 31.1378L23.9018 31.5078C24.0018 31.5778 24.1218 31.6278 24.2518 31.6378C24.5818 31.6778 24.8418 31.4478 24.8918 31.0578C24.9218 30.7778 24.7819 30.4778 24.5819 30.4078L24.1718 30.2678C24.1718 30.2678 24.0418 30.1478 23.9118 29.9678C23.7118 29.6778 23.2919 29.5278 22.8119 29.5678L22.2019 29.6278C22.0219 29.6478 21.9519 29.7078 21.9419 29.7978C21.9419 29.8478 21.9419 29.9078 21.9419 29.9578C21.9719 30.1078 22.0318 30.2278 22.1118 30.3678C22.2018 30.5278 22.2718 30.6078 22.3618 30.6678L22.9118 30.9178L23.0619 30.5578C23.0019 30.5378 22.8218 30.4678 22.7618 30.4578C22.6518 30.4278 22.5719 30.3878 22.5719 30.3678C22.5719 30.3478 22.6018 30.2878 22.6618 30.2078C22.7218 30.1278 22.7419 30.0478 22.7119 30.0178L22.6318 29.8978L22.9218 29.8778L23.2219 30.0178L23.2418 30.1978L23.4419 30.4078L23.4719 30.3478C23.4719 30.3478 23.5118 30.3178 23.5518 30.3178C23.5918 30.3178 23.6218 30.3478 23.6318 30.3678C23.6318 30.3778 23.6318 30.4178 23.6318 30.4978C23.6318 30.5578 23.7318 30.6378 23.8818 30.6878C24.1218 30.7678 24.2818 30.9178 24.2718 31.0378C24.2718 31.0878 24.2319 31.1278 24.1919 31.1178L23.9719 31.0478L23.7119 30.9778L23.3519 30.6478C23.2119 30.5878 23.1718 30.5678 23.0518 30.5278L22.8718 30.8878H22.8419ZM9.02181 14.8878C9.02181 14.8878 9.07188 14.8578 9.09188 14.8578C9.12188 14.8578 9.18183 14.9178 9.16183 14.9978C9.09183 15.3278 8.99178 15.3078 8.99178 15.3078L8.93185 15.6178C9.31185 15.5978 9.12188 16.0078 8.97188 16.1878L8.8818 16.1578C8.7318 15.8478 8.78182 15.6278 8.90182 15.6278C8.91182 15.6278 8.94186 15.6278 8.95187 15.6278L9.00179 15.3178C9.00179 15.3178 8.95185 15.2778 8.93185 15.2078C8.93185 15.1678 8.92185 15.1378 8.93185 15.0978C8.93185 15.0378 8.96179 14.9778 9.00179 14.9378C9.02179 14.9178 9.04185 14.8878 9.06185 14.8778L8.94186 14.6178L8.82186 14.6878C8.77186 14.7178 8.69188 14.7278 8.59188 14.7178C8.32188 14.6778 8.04179 14.4978 7.87179 14.2478C7.77179 14.0978 7.72178 13.9378 7.74178 13.7778C7.76178 13.6478 7.81179 13.5378 7.87179 13.5078L8.18185 13.3178C8.26185 13.2678 8.31186 13.1878 8.32186 13.0878C8.34186 12.9678 8.29185 12.8678 8.18185 12.8578C8.09185 12.8478 7.99181 12.8778 7.89181 12.9578C7.87181 12.9778 7.82185 12.9878 7.81185 12.9978L6.93185 13.3778C6.93185 13.3778 6.88189 13.3878 6.85189 13.3878C6.77189 13.3878 6.73178 13.3178 6.74178 13.2378C6.74178 13.2278 6.74179 13.2078 6.75179 13.1978C6.78179 13.1578 6.84184 13.1078 6.92184 13.0578C7.18184 12.9078 7.43183 12.8178 7.66183 12.7478C7.89183 12.6878 8.10178 12.6078 8.11178 12.4978C8.12178 12.4178 8.09182 12.3578 8.03182 12.3578C7.97182 12.3578 7.87189 12.3778 7.73189 12.4278C7.66189 12.4478 7.60183 12.4578 7.54183 12.4478C7.47183 12.4478 7.4218 12.4078 7.3818 12.3678L7.15182 12.4378C7.15182 12.4378 7.17184 12.4978 7.17184 12.5278C7.17184 12.5878 7.08181 12.6378 7.02181 12.6678C6.93181 12.7078 6.66188 12.8778 6.59188 12.7578C6.49188 12.5978 6.79186 12.5378 6.82186 12.5278L6.98189 12.3878C6.98189 12.3878 7.02183 12.3778 7.04183 12.3778C7.10183 12.3778 7.15184 12.4178 7.17184 12.4678L7.39181 12.3878C7.39181 12.3878 7.36178 12.3278 7.36178 12.2978C7.36178 12.2678 7.40188 12.2178 7.46187 12.1478C7.51188 12.0878 7.55184 12.0278 7.55184 11.9778C7.57184 11.8478 7.20183 11.6678 6.79183 11.6178C6.47183 11.5778 6.18182 11.6178 5.90182 11.7578C5.23182 12.0778 4.70181 12.6578 4.64181 13.1078C4.62181 13.2678 4.64189 13.3278 4.73189 13.7278C4.77189 13.8978 4.78189 14.0378 4.73189 14.1178L4.60189 14.4278V14.4478C4.59189 14.5178 4.63187 14.5878 4.70187 14.5878C4.82187 14.6078 4.97181 14.4978 5.14181 14.2978C5.24181 14.1678 5.32179 14.0878 5.37179 14.0678L5.75179 13.8578L6.19186 13.5078C6.19186 13.5078 6.27185 13.4678 6.31185 13.4678C6.35185 13.4678 6.37178 13.5078 6.36178 13.5478C6.36178 13.6078 6.32182 13.6578 6.28182 13.6778L6.00179 13.8978L6.11178 14.0878C6.11178 14.0878 6.17179 14.0178 6.25179 14.0178C6.39179 14.0378 6.42181 14.2478 6.39181 14.4778C6.39181 14.5078 6.37189 14.5378 6.35189 14.5378L6.17184 14.5078L5.98189 14.5878L5.96187 14.4678C5.98187 14.3678 6.03185 14.3478 6.06185 14.2378C6.08185 14.1678 6.08189 14.1078 6.10189 14.0678L5.99178 13.8778L5.57186 14.2178C5.39186 14.4178 5.59181 14.6778 5.39181 14.7778C5.30181 14.8178 5.19186 14.6778 5.19186 14.6778L5.07186 14.6178L4.99178 14.5878C4.94178 14.8078 4.81186 14.9278 4.69186 14.9078L4.45187 14.7778C4.16187 14.7378 3.7518 15.0378 3.3818 15.5478C3.2518 15.7278 3.13179 15.9878 3.12179 16.1278C3.10179 16.2778 3.14189 16.4378 3.23189 16.5678C3.33189 16.7078 3.38178 16.8178 3.36178 16.8478L3.18185 17.0978C3.18185 17.0978 3.18186 17.1378 3.19186 17.1778C3.19186 17.1978 3.19186 17.2178 3.19186 17.2478C3.19186 17.2678 3.18184 17.2978 3.17184 17.3178C3.11184 17.4178 3.01184 17.4778 2.92184 17.4678L2.64181 17.4378C2.57181 17.4378 2.50178 17.4978 2.49178 17.5978C2.47178 17.7278 2.55185 17.8778 2.68185 17.9878L2.96187 17.8678C2.96187 17.8678 2.94187 17.7978 2.96187 17.7778L3.17184 17.5878L3.31185 17.6078L3.22188 17.8478L3.03182 17.8978C3.03182 17.8978 2.97187 17.8878 2.95187 17.8678L2.66183 17.9878L3.3818 18.6178L3.59188 18.8278C3.59188 18.8278 3.64185 18.8578 3.68185 18.8678C3.77185 18.8778 3.89178 18.8678 3.99178 18.7978C4.09178 18.7178 4.2718 18.3378 4.3818 18.7178C4.4218 18.8478 4.48188 18.4778 4.72188 18.3278L4.66183 18.1378L4.08187 17.5778C3.75187 17.2178 3.63186 16.8378 3.69186 16.3478C3.77186 15.7278 4.22185 15.2478 4.68185 15.2778C4.75185 15.2778 4.80186 15.2778 4.82186 15.2678L4.89181 15.1978C4.89181 15.1978 4.95178 15.1578 4.99178 15.1578C5.02178 15.1578 5.04182 15.1878 5.03182 15.2378C5.03182 15.2878 5.00186 15.3278 4.94186 15.3878C5.07186 15.3878 5.17189 15.3878 5.23189 15.3578C5.36189 15.2978 5.44187 15.2678 5.46187 15.2678C5.49188 15.2678 5.53184 15.2978 5.55184 15.3478L5.65182 15.5478C5.68182 15.6078 5.79187 15.6678 5.95187 15.6978C6.09187 15.7278 6.19188 15.7878 6.22188 15.8478L6.40182 16.2278C6.45182 16.3378 6.5318 16.4078 6.6318 16.4178C6.8318 16.4478 7.11178 16.2878 7.24178 16.0878L7.47188 15.7278C7.52188 15.6578 7.61186 15.6078 7.69186 15.6178C7.75186 15.6178 7.78181 15.6478 7.77181 15.6778C7.77181 15.7078 7.74186 15.7678 7.69186 15.8478C7.63186 15.9378 7.60189 16.0678 7.60189 16.2178V16.5178C7.60189 16.6378 7.76184 16.8978 8.05184 17.2278C8.21184 17.4078 8.30184 17.6178 8.30184 17.8178C8.30184 17.9178 8.32178 17.9778 8.36178 17.9778C8.44178 17.9778 8.51181 17.9378 8.52181 17.8678L8.60189 17.5078L8.78182 17.3078L8.68185 17.2078C8.68185 17.2078 8.66183 17.1778 8.66183 17.1478C8.66183 17.0878 8.69179 17.0678 8.75179 17.0778C8.79179 17.0778 8.82178 17.0878 8.86178 17.0978H8.90182C8.96182 17.1178 9.06185 17.0978 9.18185 17.0278C9.53185 16.8678 9.71178 16.6778 9.74178 16.4178C9.74178 16.3578 9.74178 16.2278 9.74178 16.1078C9.74178 16.1078 9.64183 15.5878 9.79183 15.5878C9.96183 15.5978 9.8818 15.5778 9.8818 15.5778L9.83187 15.3278C9.68187 15.3678 9.66181 15.2278 9.64181 15.1878C9.62181 15.1578 9.60188 15.0678 9.59188 14.9478C9.57188 14.7278 9.43188 14.5578 9.22188 14.5278C9.17188 14.5278 9.12187 14.5278 9.08187 14.5578L8.90182 14.6678L9.02181 14.9378V14.8878ZM8.36178 19.6878C8.36178 19.6878 8.43184 19.8078 8.42184 19.8978C8.40184 20.0678 8.26189 20.1878 8.10189 20.1678C8.05189 20.1678 7.9518 20.0678 8.0118 19.8678V19.8478C8.1018 19.6978 8.18183 19.6278 8.29183 19.6378C8.32183 19.6378 8.3618 19.6678 8.3818 19.6878L8.52181 19.4578C8.43181 19.4578 8.40182 19.4178 8.40182 19.3778C8.40182 19.3378 8.43188 19.3078 8.46187 19.2978C8.46187 19.2978 8.65179 19.2978 9.00179 19.2978C9.10179 19.2978 9.22186 19.2378 9.32186 19.1278C9.41186 19.0378 9.47179 18.9878 9.50179 18.9878C9.60179 18.9978 9.65178 19.3278 9.61178 19.6778L9.59188 19.8178L9.57186 19.9378C9.55186 20.1178 9.55188 20.2578 9.59188 20.3278C9.59188 20.3278 9.71186 20.4578 9.94186 20.7078C10.0219 20.7978 10.1019 20.9278 10.0919 20.9778C10.0919 21.0178 10.0319 21.0378 9.95187 21.0278H9.92184L9.5118 20.9178L9.30184 21.0778L9.20187 21.3178C9.16187 21.4178 9.06186 21.4878 8.94186 21.5078C8.77186 21.5378 8.69185 21.5478 8.68185 21.5578C8.65185 21.5778 8.63179 21.6178 8.62179 21.6678C8.61179 21.7578 8.67187 21.8878 8.83187 22.0878C9.09187 22.4278 9.15179 22.4778 9.37179 22.4978C9.40179 22.4978 9.42187 22.4978 9.45187 22.4978H9.79183C9.79183 22.4978 9.85179 22.4878 9.87179 22.4978C9.98179 22.5078 10.0618 22.5278 10.1218 22.5878L10.4218 22.2978C10.4218 22.2978 10.3818 22.2378 10.3818 22.1978C10.3918 22.1078 10.4618 22.0378 10.6118 21.9678C10.8018 21.8878 10.9318 21.7878 10.9918 21.6878C11.0718 21.5478 11.1018 21.4778 11.1318 21.4578C11.1618 21.4378 11.2319 21.4378 11.3419 21.4578H11.3718L11.4318 21.4678C11.8318 21.5178 12.2418 21.4678 12.5218 21.3078C12.7918 21.1678 12.8919 21.1178 12.9619 21.1278C13.0219 21.1278 13.0418 21.1778 13.0418 21.2378C13.0418 21.2578 13.0418 21.2678 13.0218 21.2878L12.7219 21.7378L12.5819 21.9778C12.5519 22.0378 12.4918 22.0678 12.4318 22.0578C12.3718 22.0578 12.2619 22.0078 12.1019 21.9378C12.0519 21.9178 12.0019 21.8978 11.9419 21.8878C11.7919 21.8678 11.6019 21.8878 11.3519 21.9178C11.0819 21.9678 10.9019 22.0078 10.8419 22.0578C10.7019 22.1578 10.6018 22.2178 10.5418 22.2378L10.4719 22.2878C10.4719 22.2878 10.4318 22.3078 10.4018 22.2878L10.1019 22.5778C10.1019 22.5778 10.1718 22.7078 10.1718 22.7678C10.1618 22.8778 10.0519 22.9478 9.82186 23.0078C9.45186 23.0978 9.26188 23.3078 9.21187 23.6578C9.18188 23.9078 9.25181 24.0978 9.39181 24.1178C9.48181 24.1278 9.5618 24.1078 9.6318 24.0478L10.0719 23.6978L10.5819 23.4378L10.9419 23.1578L11.4118 22.9278L12.0218 22.8378L12.9519 22.6478C13.0619 22.6278 13.2018 22.6178 13.3818 22.6178C13.6518 22.6178 13.7718 22.5578 13.7918 22.4178C13.7918 22.3678 13.7918 22.3078 13.7618 22.2578L13.5118 21.7678C13.4318 21.6178 13.4318 21.4178 13.5118 21.2278C13.5818 21.0378 13.6019 20.8978 13.5719 20.8578L13.3219 20.5778C13.3219 20.5778 13.2618 20.4078 13.2718 20.2978C13.2818 20.2078 13.3118 20.1278 13.3618 20.0578C13.5018 19.8578 13.5719 19.7278 13.5819 19.6978C13.5819 19.6378 13.5319 19.5678 13.4419 19.5278C13.4219 19.5278 13.4018 19.5178 13.3818 19.5078C13.1518 19.4778 12.9518 19.6478 12.9218 19.8878L12.8818 20.2078C12.8618 20.3378 12.7518 20.4178 12.6218 20.3978C12.5618 20.3978 12.5119 20.3678 12.4719 20.3378L12.2418 20.1378C11.7118 20.0678 11.0718 20.3778 10.8618 20.7878C10.8018 20.8978 10.7419 20.9678 10.6919 20.9578C10.6219 20.9578 10.5618 20.8778 10.5218 20.7778L10.3818 20.4178L10.1418 19.9878C10.1118 19.9278 10.0618 19.7478 10.0118 19.4478L9.94186 19.0678C9.94186 19.0678 9.94186 19.0078 9.94186 18.9678C9.95186 18.8578 10.0119 18.7878 10.0719 18.7978L10.3519 18.8378L10.7518 18.6778L11.1718 18.3478L11.5018 18.1878C11.6218 18.1278 11.7019 18.0478 11.7119 17.9678C11.7119 17.9178 11.6918 17.8478 11.6418 17.7978C11.5918 17.7378 11.5219 17.7078 11.4519 17.6978C11.4319 17.6978 11.4118 17.6978 11.3918 17.6978L11.2418 17.7378L11.1718 17.4678L11.1118 17.1178L10.9619 16.8578C10.9619 16.8578 10.9319 16.7778 10.9419 16.7278C10.9419 16.6778 10.9718 16.6378 11.0118 16.6478C11.0318 16.6478 11.0718 16.6678 11.1218 16.7078L11.2618 16.9778C11.3218 17.0978 11.5219 17.2278 11.8319 17.3378C11.9019 17.3578 11.9618 17.3778 12.0218 17.3878C12.1218 17.3978 12.2118 17.3678 12.2518 17.3078L12.5619 16.8278C12.6519 16.6878 12.8118 16.6078 13.1618 16.5578C13.3618 16.5278 13.4519 16.4678 13.4619 16.3478C13.4919 16.1478 13.2319 15.9078 12.8219 15.7378C12.5319 15.6178 12.2918 15.4978 12.1218 15.3778L11.4118 14.8778L10.5619 14.6378C10.4019 14.5878 10.3118 14.5678 10.3018 14.5678H10.2718C10.1018 14.5378 9.95185 14.6378 9.93185 14.7878C9.93185 14.8078 9.93185 14.8178 9.93185 14.8378L9.97188 15.0678C9.97188 15.1778 9.96182 15.2378 9.90182 15.2878C9.84182 15.3478 9.54186 15.2378 9.69186 15.5378L9.77181 15.5678C10.1218 15.4478 10.0918 16.2778 10.0418 16.6178C9.98183 17.0978 9.80187 17.3878 9.58187 17.3578C9.53187 17.3578 9.49185 17.3378 9.43185 17.3178C9.34185 17.2778 9.2918 17.2578 9.2618 17.2578C9.0618 17.2378 9.00183 17.3778 8.91183 18.0578C8.86183 18.4478 8.72189 18.6178 8.48189 18.5878C8.44189 18.5878 8.41179 18.5778 8.37179 18.5578C8.20179 18.4978 8.10188 18.4678 8.09188 18.4478L7.8818 18.1778C7.8818 18.1778 7.85188 18.1578 7.84188 18.1578C7.68188 18.1378 7.50187 18.3978 7.46187 18.7178C7.46187 18.7578 7.46187 18.7878 7.46187 18.8278C7.46187 18.8678 7.46187 18.9178 7.46187 18.9578C7.46187 18.9778 7.45186 18.9878 7.44186 18.9878C7.43186 18.9878 7.39181 18.9178 7.39181 18.8578L7.1318 19.1578C7.1318 19.1578 7.10187 19.2078 7.21187 19.2778C7.32188 19.3478 7.15179 19.6178 7.25179 19.7578L7.39181 19.8978C7.50181 20.0178 7.60183 20.2578 7.66183 20.5878C7.73183 20.9578 7.8418 21.1278 8.0118 21.1478L8.52181 21.0878L8.93185 21.0378C8.93185 21.0378 9.02182 20.9578 9.15182 20.8278C9.29182 20.6878 9.38182 20.5178 9.40182 20.3978C9.42182 20.2378 9.36189 20.0378 9.23189 19.8178C9.14189 19.6678 8.99185 19.5578 8.81185 19.5378L8.60189 19.5178C8.60189 19.5178 8.5418 19.5178 8.5118 19.5078L8.39181 19.7378L8.36178 19.6878ZM14.9018 28.7478L14.7319 29.1478C14.6819 29.2778 14.5719 29.3578 14.4619 29.3378C14.4219 29.3378 14.4018 29.3078 14.4018 29.2778C14.4018 29.2278 14.4518 29.1378 14.5218 29.0178C14.5618 28.9578 14.6319 28.8178 14.7219 28.6078C14.7619 28.5278 14.8119 28.4678 14.8519 28.4778C14.9219 28.4778 14.9819 28.5278 14.9719 28.5678L14.8718 28.7678L15.6318 28.8578C15.6718 28.7078 15.6819 28.6278 15.7019 28.4778C15.8119 27.6478 15.7419 27.3578 15.4519 27.3178C15.4119 27.3178 15.3818 27.3178 15.3718 27.3378L15.2718 27.8678C15.2618 27.9378 15.1918 27.9778 15.1118 27.9778C15.0418 27.9778 15.0118 27.8378 15.0418 27.6478C15.0518 27.5278 15.0918 27.4078 15.1418 27.2878C15.2118 27.1278 15.2618 26.9778 15.2818 26.8378C15.3118 26.5878 15.2518 26.4378 15.1218 26.4178C15.0718 26.4178 15.0019 26.4578 14.9619 26.5278L14.8918 26.6378L14.8718 26.3978L14.9419 26.0778V26.0378C14.9619 25.9178 14.9418 25.7878 14.8918 25.6678C14.8118 25.4978 14.7118 25.3778 14.6318 25.3678C14.5118 25.3578 14.4318 25.4678 14.4018 25.6878C14.3818 25.8378 14.3818 26.0178 14.4018 26.2178C14.4018 26.2478 14.4018 26.2778 14.4018 26.2978C14.3818 26.4678 14.2919 26.5878 14.1919 26.5678C14.1519 26.5678 14.1318 26.5478 14.1318 26.5278L14.2019 25.3878C14.2119 25.2078 14.1018 25.0578 13.9318 25.0378C13.8518 25.0278 13.7719 25.0378 13.6919 25.0778C13.4419 25.1878 13.3018 25.2678 13.2818 25.2878L13.1118 25.5878C13.0618 25.6778 12.9619 25.7178 12.8519 25.7078C12.7619 25.6978 12.7218 25.5978 12.7418 25.4478C12.7618 25.2978 12.8618 25.1678 12.9918 25.1278L14.2219 24.7278C14.2719 24.7078 14.3119 24.6478 14.3219 24.5678C14.3419 24.4278 14.2118 24.2978 14.0218 24.2678C13.6518 24.2178 13.5519 24.1678 13.5619 24.0478C13.5619 24.0178 13.5719 23.9878 13.5919 23.9778L13.7219 23.8478C13.7219 23.8478 13.7818 23.7278 13.8018 23.5878C13.8418 23.2578 13.7019 23.0178 13.4419 22.9878H13.3818L13.0819 23.0378L12.6318 23.0978L12.2718 23.2278L11.7518 23.2978L11.2219 23.5078L10.7718 23.5478L10.5719 23.6878C10.5119 23.7478 10.3918 23.8578 10.3618 23.9678C10.3318 24.0478 10.3119 24.1078 10.2219 24.2478C10.1519 24.3578 9.97187 24.2978 9.83187 24.5078C9.70187 24.7078 9.70184 24.8378 9.67184 24.9178L9.57186 25.1578L9.40182 25.6478C9.34182 25.8078 9.29189 25.8578 9.10189 25.8878L9.14181 26.3378L9.23189 26.3578C9.51189 26.4378 9.57181 26.5078 9.64181 26.7978C9.72181 27.1578 9.79189 27.3778 9.85189 27.4478C9.97189 27.5978 10.0418 27.6978 10.0418 27.7378V28.0278C10.0418 28.0978 10.0619 28.1678 10.0919 28.2578C10.2019 28.5278 10.5218 28.8078 10.7718 28.8378C10.9118 28.8578 10.9918 28.8278 11.0018 28.7378C11.0018 28.6778 11.0019 28.6278 10.9619 28.5778L10.7119 28.2478C10.7119 28.2478 10.6718 28.1578 10.6818 28.0978C10.7018 27.9278 10.8218 27.8078 11.0518 27.7378L11.1718 27.6978V27.8578C11.1718 27.8578 11.1419 27.9378 11.0819 27.9978C11.0319 28.0678 11.0018 28.1278 10.9918 28.1578C10.9918 28.1778 11.0219 28.2478 11.0819 28.3778L11.2319 28.7078C11.2519 28.7578 11.3018 28.8178 11.3718 28.8778C11.9918 29.4378 12.3318 29.7978 12.3718 29.9278L12.4619 30.2678L12.6818 30.6078C12.8018 30.7878 12.8818 31.1378 12.9218 31.6178C12.9918 32.4278 13.0519 32.6978 13.1919 32.8478L13.6318 33.3278L13.6019 33.5278L13.9018 34.1778L14.1818 34.5478L14.3718 34.9578L14.6418 35.1078L14.8119 35.4478L15.1318 35.5978L15.2618 35.4778C15.2618 35.4778 15.3518 35.4578 15.4918 35.4378C15.6918 35.4178 15.9119 35.1478 15.9419 34.8778C15.9719 34.6278 15.9118 34.3578 15.7718 34.0978C15.7018 33.9678 15.5819 33.8778 15.4719 33.8578C15.4219 33.8578 15.3918 33.8778 15.3918 33.9178C15.3918 33.9778 15.3918 34.0678 15.4218 34.1778C15.4518 34.2878 15.4719 34.3778 15.4619 34.4378C15.4619 34.4778 15.4218 34.5078 15.3818 34.4978C15.2418 34.4778 15.1518 34.3078 15.1318 34.0378L15.1019 33.5178L14.8818 33.6178C14.8818 33.6178 14.8619 33.6178 14.8519 33.6178C14.8119 33.6178 14.7818 33.5878 14.7818 33.5578C14.7818 33.5278 14.8419 33.4478 14.9419 33.3478C14.9919 33.2978 15.0118 33.2378 15.0218 33.1678C15.0318 33.0578 14.9818 32.9678 14.8818 32.9578H14.8519L14.6418 32.9978C14.5718 32.9978 14.5418 32.9078 14.5518 32.7978C14.5518 32.7378 14.5818 32.6778 14.6118 32.6278L14.9819 31.9278L15.2219 30.5778L15.5018 29.9078L15.5619 29.4178C15.5619 29.3078 15.6118 29.0478 15.6618 28.8478L14.9118 28.7678L14.9018 28.7478ZM6.94186 38.4678L6.91183 38.6978C6.91183 38.6978 6.84182 38.6578 6.78182 38.5978C6.70182 38.4978 6.64183 38.2878 6.66183 38.1278C6.66183 38.0478 6.72184 38.0078 6.80184 38.0178C6.90184 38.0178 6.98187 38.1578 6.96187 38.2978C6.96187 38.3078 6.96187 38.3278 6.95187 38.3478V38.4878L7.19186 38.5078L7.03182 37.9878C6.95182 37.7378 6.81182 37.5578 6.65182 37.4878H6.62179C6.56179 37.4778 6.51178 37.4878 6.49178 37.5378L6.39181 37.7178L6.24178 37.6778L5.78182 36.8378L5.28182 36.3078L5.19186 36.0278L5.24178 35.7578C5.28178 35.9578 5.35178 36.0378 5.49178 36.0478C5.58178 36.0478 5.66184 35.9978 5.67184 35.9078L5.60189 35.3978C5.60189 35.3978 5.65188 35.3578 5.71187 35.3578C5.81187 35.3578 5.88179 35.5078 5.87179 35.6778V36.0578L6.10189 36.4878C6.27189 36.7978 6.41178 36.9878 6.49178 36.9878C6.53178 36.9878 6.58181 36.9578 6.64181 36.9078L6.36178 35.6478L6.31185 34.9978L5.58187 33.2878L5.44186 32.9578C5.44186 32.9578 5.40178 32.9178 5.36178 32.9078C5.27178 32.9078 5.26188 32.9378 5.22188 33.2078C5.22188 33.2478 5.17187 33.3378 5.08187 33.4678C5.02187 33.5478 5.0018 33.6378 5.0118 33.6878L5.27181 34.6878C5.27181 34.6878 5.24185 34.7778 5.18185 34.8378C5.09185 34.9178 5.03189 35.0378 4.98189 35.1678C4.90189 35.3878 4.85189 35.5178 4.85189 35.5378C4.84189 35.6678 4.85182 35.8878 4.90182 36.1978C5.00182 36.8178 5.07178 37.1778 5.11178 37.2778L5.25179 37.6178C5.68179 38.5278 6.03183 39.2178 6.29183 39.6878C6.32183 39.7378 6.34188 39.7978 6.34188 39.8278C6.34188 39.9078 6.26186 39.9678 6.19186 39.9678C6.15186 39.9678 6.10184 39.9278 6.05184 39.8678L5.87179 39.6678L5.64181 39.3678L5.56185 40.4678C5.53185 40.6678 5.50184 40.7078 5.42184 40.8078C5.36184 40.8778 5.29184 41.1678 5.30184 41.2478L5.15182 42.3278L5.00179 42.6178L4.86178 43.3178C4.61178 43.9978 4.41181 44.5079 4.27181 44.8479C4.18181 45.0679 4.15181 45.1678 4.14181 45.2778C4.14181 45.3378 4.14181 45.4279 4.14181 45.5379L4.09188 46.0578L4.15182 46.4878L4.11178 46.8278C4.22178 47.1978 4.24183 47.4778 4.16183 47.6178C4.08183 47.7578 4.05184 47.8278 4.05184 47.8578C4.05184 47.9278 4.07178 47.9878 4.11178 47.9978L4.46187 48.1178H4.36178L4.94186 48.3078L5.34188 48.0478V47.6878L5.56185 47.3778L5.6318 47.0478H5.24178C5.24178 47.0478 5.22188 47.1378 5.22188 47.1678C5.21188 47.2878 5.15185 47.4278 5.06185 47.5578C4.95185 47.7078 4.85179 47.7679 4.75179 47.7579C4.69179 47.7579 4.63188 47.7278 4.59188 47.6978C4.53188 47.6478 4.49179 47.5978 4.50179 47.5578V47.5478L4.75179 47.4878C4.75179 47.4878 4.86185 47.3178 4.93185 47.0778C4.96185 46.9978 4.97189 46.9178 4.98189 46.8378C4.98189 46.7878 4.98189 46.7378 4.98189 46.6878C4.97189 46.5778 4.97189 46.4778 4.98189 46.3878C4.99189 46.2578 5.0418 46.1878 5.1318 46.1978C5.1618 46.1978 5.18185 46.2478 5.18185 46.3378V46.7078L5.23189 47.0679H5.62179L5.64181 46.9078L5.60189 46.1578C5.59189 45.9578 5.59189 45.8078 5.60189 45.6978C5.62189 45.5178 5.6718 45.3279 5.7618 45.1278L5.35189 45.0379C5.30189 45.1079 5.16189 45.1478 4.98189 45.1378C4.80189 45.1178 4.71189 45.0378 4.73189 44.8978C4.73189 44.8478 4.75182 44.7978 4.78182 44.7678C4.85182 44.6778 4.92188 44.6278 4.97188 44.6278C4.99188 44.6278 5.03186 44.6878 5.07186 44.7678C5.11186 44.8578 5.16187 44.9178 5.21187 44.9278L5.36178 44.9078C5.36178 44.9078 5.3818 44.9478 5.3818 44.9678C5.3818 44.9878 5.36189 45.0278 5.35189 45.0478L5.7618 45.1378C6.0118 44.5778 6.5518 43.9578 7.2618 43.4278L7.82186 42.8278L7.33187 42.5278C7.06187 42.9278 6.98181 42.7678 7.02181 42.6278L7.20187 42.1178L7.32186 41.8378V41.8078C7.33186 41.7278 7.32183 41.6278 7.29183 41.5178C7.26183 41.4278 7.2518 41.3678 7.2618 41.3278C7.2618 41.2678 7.37189 41.2278 7.48189 41.2378C7.65189 41.2578 7.74188 41.3778 7.72188 41.5478C7.71188 41.6978 7.65186 41.8578 7.57186 42.0278C7.44186 42.2578 7.40186 42.4178 7.32186 42.5378L7.80184 42.8378L8.80184 41.7778C8.86184 41.6978 8.89186 41.6578 8.95187 41.4178C9.00187 41.2278 8.62179 41.4678 8.62179 41.4678L8.31185 41.6578C8.31185 41.6578 8.30183 41.6578 8.29183 41.6578C8.21183 41.6578 8.16183 41.5478 8.16183 41.4378C8.16183 41.3978 8.18187 41.3578 8.21187 41.3578L8.50179 41.3078C8.50179 41.3078 8.58188 41.2578 8.59188 41.1978C8.60188 41.0878 8.30178 40.9378 7.99178 40.8778C7.49178 40.7878 7.15186 40.4678 7.19186 40.1078C7.20186 39.9978 7.25185 39.9278 7.31185 39.9378C7.40185 39.9378 7.49184 40.0278 7.55184 40.1378L7.73189 40.4878L8.15182 40.7178L8.39181 40.8478L8.6318 40.9178C8.6018 40.7978 8.57185 40.7278 8.56185 40.6978C8.48185 40.5278 8.25179 40.2078 7.87179 39.7478C7.58179 39.3878 7.36178 38.9978 7.24178 38.5978L7.19186 38.4178H6.95187L6.94186 38.4678ZM13.4519 53.3378C13.4519 53.3378 13.4819 53.4178 13.4819 53.4578C13.4719 53.5778 13.3919 53.6678 13.2319 53.7478L13.0218 53.6178C12.9618 53.5778 12.9218 53.5178 12.9218 53.4578C12.9218 53.3978 13.0519 53.3379 13.2219 53.2879C13.2519 53.2879 13.2718 53.2879 13.3018 53.2879C13.3818 53.2879 13.4319 53.2979 13.4619 53.3479L13.8319 53.3778C13.8319 53.0578 13.8719 52.7978 13.9719 52.6278C14.1819 52.2678 14.2918 52.0378 14.3018 51.9278C14.3018 51.8478 14.2618 51.7578 14.1718 51.6978L13.9419 51.5578L13.6418 51.2278C13.6418 51.2278 13.5919 51.1978 13.5619 51.1878C13.4419 51.1778 13.3919 51.2478 13.3319 51.5778C13.3219 51.6478 13.2718 51.7578 13.1818 51.9078C13.1018 52.0378 13.0518 52.1578 13.0218 52.2678C12.9418 52.5678 12.8819 52.7378 12.8419 52.7778L12.6118 52.9878L12.5819 53.2978L12.4719 53.5979V53.6278C12.4619 53.6978 12.4818 53.8778 12.5318 54.1278C12.5618 54.2779 12.5719 54.3979 12.5619 54.5079C12.5519 54.6279 12.5218 54.6978 12.4318 54.7778L12.1518 55.0679C12.0818 55.1379 12.0418 55.2078 12.0418 55.2678C12.0418 55.2778 12.0418 55.2878 12.0418 55.3078C12.0418 55.3178 12.1019 55.3878 12.2219 55.4978C12.2919 55.5678 12.3719 55.6179 12.4519 55.6278L12.6618 55.6578C12.7618 55.6778 12.8219 55.7178 12.8219 55.7678C12.8219 55.7978 12.8018 55.8378 12.7718 55.8778C12.7118 55.9678 12.6118 56.0278 12.5018 56.0178C12.4318 56.0178 12.3318 55.9478 12.2418 55.8378C12.1618 55.7478 12.1119 55.7178 12.0719 55.7078C12.0219 55.7078 11.9618 55.7278 11.8818 55.7678C11.8218 55.8078 11.7718 55.8678 11.7618 55.9378L11.6718 56.4478C11.6518 56.5578 11.6418 56.6578 11.6318 56.7278C11.6118 56.9278 11.6918 57.0278 11.8818 57.0478C11.8818 57.0478 11.9018 57.0478 11.9118 57.0478C11.9218 57.0478 12.0418 56.9678 12.2718 56.8278L13.2918 56.1678C13.3918 56.0978 13.4619 55.9878 13.4719 55.8578C13.4719 55.7678 13.4718 55.6779 13.4218 55.5979L13.2119 55.1478C13.1819 55.0878 13.1718 55.0078 13.1818 54.9278C13.2018 54.6878 13.3618 54.4678 13.6118 54.3378C13.7118 54.2878 13.7718 54.2478 13.7818 54.2378C13.8218 54.1878 13.8519 54.1178 13.8519 54.0178C13.8619 53.8978 13.8619 53.7778 13.8519 53.6578C13.8419 53.5678 13.8419 53.4579 13.8419 53.3778L13.4719 53.3578L13.4519 53.3378ZM15.4118 50.4378C15.4118 50.4978 15.5018 50.5478 15.6218 50.5578C15.8118 50.5778 15.9618 50.3979 15.9918 50.1278C15.9918 50.0478 15.9919 49.9678 15.9519 49.8978L15.7818 49.5679C15.6618 49.3279 15.5618 49.2278 15.4218 49.2178C15.3718 49.2178 15.3218 49.2179 15.3018 49.2579L15.1418 49.4578L15.1019 49.5478L15.1618 49.6978C15.1618 49.6978 15.1419 49.8178 15.2019 49.8878L15.3519 50.0679L15.4018 50.4578L15.4118 50.4378ZM14.6919 51.1178C14.6919 51.1178 14.6619 51.2179 14.6019 51.2879C14.4919 51.4179 14.4318 51.5278 14.4218 51.6078C14.4218 51.6978 14.5118 51.7878 14.6318 51.7978C14.8018 51.8178 14.9819 51.7379 15.1019 51.5979L15.3119 51.3479C15.4819 51.1479 15.5418 51.0678 15.5418 50.9878C15.5418 50.9178 15.5318 50.8578 15.4918 50.8378L15.2718 50.7579C15.2218 50.7379 15.1919 50.6379 15.1919 50.5079C15.1919 50.2779 15.1318 50.0878 15.0318 50.0778C14.8518 50.0578 14.7119 50.0579 14.7119 50.0679L14.7918 50.4678L14.6618 50.8479L14.6818 51.1178H14.6919ZM15.0619 48.1778C15.0619 48.1778 15.0219 48.2178 14.9719 48.2078C14.9119 48.2078 14.8818 48.1378 14.8918 48.0278C14.8918 47.9478 14.9119 47.8778 14.9419 47.8078C14.9819 47.7078 15.0118 47.5978 15.0218 47.4878C15.0318 47.3478 15.0219 47.1778 14.9619 46.8078L14.7219 46.6278C14.6319 46.5578 14.6018 46.3678 14.6418 46.1178C14.6718 45.9378 14.6718 45.7878 14.6218 45.7178L14.3818 45.2879C14.3218 45.1779 14.2918 45.0478 14.3018 44.8978C14.3318 44.5578 14.2818 44.4278 14.1318 44.4178C14.0718 44.4178 13.9519 44.5078 13.8219 44.6678C13.6419 44.9078 13.5418 45.1078 13.5218 45.2778C13.4918 45.5878 13.6019 45.9278 13.9519 46.6578C14.1419 47.0478 14.2319 47.3678 14.2119 47.5578L14.1019 48.3078L14.1418 49.2978C14.1418 49.5478 14.2519 49.6778 14.4519 49.6978C14.5419 49.6978 14.6218 49.6778 14.6618 49.6378L15.0118 49.1878L15.2219 48.9478C15.4019 48.7378 15.5019 48.4478 15.4819 48.1278C15.4819 48.0079 15.4818 47.9278 15.5118 47.8878L15.7618 47.5278L15.8018 47.1978L15.0619 43.8978L14.9018 42.7078C14.9018 42.6378 14.8318 42.5878 14.7618 42.5778C14.7018 42.5778 14.6418 42.6778 14.6218 42.8178V42.8778C14.6218 43.0978 14.6119 43.2478 14.5719 43.2778L14.1518 43.6578C14.1518 43.6578 14.1119 43.7678 14.0619 43.9578V44.0078C14.0419 44.1678 14.0919 44.2778 14.2019 44.2878C14.2519 44.2878 14.3019 44.2778 14.3119 44.2478L14.3818 44.1078C14.3818 44.1078 14.4518 44.0578 14.5118 44.0578C14.5418 44.0578 14.5619 44.0678 14.5819 44.0878L14.6019 44.3778L14.8618 44.9778V45.3479L15.0118 45.8878L14.9318 46.3278L15.0118 46.5478L15.2818 46.8179L15.3818 47.2278L15.3119 47.5878L15.1218 47.9478L15.0518 48.1978L15.0619 48.1778ZM4.36178 48.3878L4.1318 48.3578C4.1318 48.3578 4.12182 48.4878 4.15182 48.6078L4.24178 48.9678L4.2618 49.1778L4.46187 49.9278L4.57186 50.6378C4.71186 51.2378 4.77178 51.7179 4.74178 52.0379C4.69178 52.5379 4.76188 52.7779 4.96187 52.7879C5.00187 52.7879 5.06181 52.7879 5.14181 52.7579L5.48189 52.6778H5.5118C5.6218 52.6778 5.71188 52.8178 5.72188 52.9778V53.3278L6.08187 53.6178L6.5118 53.8978C6.5918 53.9478 6.68182 53.9778 6.78182 53.9878C6.98182 54.0078 7.16187 53.9178 7.21187 53.7678L7.29183 53.5379L7.73189 52.8778C7.73189 52.8778 7.78183 52.7778 7.79183 52.7278C7.80183 52.5878 7.68178 52.4678 7.49178 52.4578C7.35178 52.4478 7.21189 52.5079 7.10189 52.6278C6.94189 52.7878 6.93186 52.8078 6.82186 52.7978C6.70186 52.7878 6.61184 52.7378 6.55184 52.6478L6.3818 52.3578L6.14181 52.1478C6.14181 52.1478 6.09189 52.0378 6.10189 51.9178C6.10189 51.7778 6.09183 51.6578 6.04183 51.5778C6.01183 51.5378 5.93182 51.4479 5.78182 51.3179C5.65182 51.1979 5.61186 51.1378 5.57186 50.9378L5.47188 50.7078L5.43185 50.2879L5.25179 49.0379V48.8378L5.03182 48.6278L4.72188 48.5679L4.37179 48.3778L4.36178 48.3878ZM7.49178 53.5778C7.40178 53.7278 7.32181 53.8278 7.27181 53.9078C7.18181 54.0178 7.1318 54.1178 7.1318 54.1778C7.1118 54.3378 7.22181 54.4579 7.52181 54.5979C7.70181 54.6879 7.92182 54.7578 8.03182 54.7678C8.28182 54.7878 8.37184 54.6578 8.42184 54.1878C8.48184 53.6378 8.30182 53.1678 8.03182 53.1378C7.94182 53.1378 7.8718 53.1678 7.7618 53.2978L7.68185 53.3878L7.49178 53.5778ZM12.3319 30.7578C12.2519 30.6378 12.2019 30.5778 12.1919 30.5678H12.1718C12.0818 30.5678 12.0118 30.6478 12.0018 30.7878C11.9818 30.9678 12.0318 31.1578 12.1318 31.3078L12.2918 31.5078L12.3918 31.6278C12.3918 31.6278 12.4319 31.6578 12.4619 31.6578C12.5419 31.6578 12.5819 31.6378 12.5919 31.5678C12.5919 31.3078 12.5919 31.1578 12.5919 31.1378L12.3319 30.7678V30.7578ZM12.8519 33.6078C12.8519 33.6078 12.7718 33.6878 12.7618 33.7978C12.7618 33.8978 12.8018 33.9878 12.9018 34.0478C12.9818 34.0978 13.0418 34.1478 13.0318 34.1678L12.9918 34.2978C12.9918 34.3778 13.1318 34.5378 13.2718 34.7578C13.4918 35.1078 13.7718 35.3278 14.0318 35.5378C14.0618 35.5578 14.1018 35.5678 14.1418 35.5678C14.3018 35.5878 14.4118 35.5178 14.4218 35.4078C14.4418 35.2278 14.3218 35.0978 13.8918 34.8078C13.5818 34.5978 13.3518 34.1878 13.2718 33.6878C13.2018 33.2578 13.0319 32.9778 12.8419 32.9578C12.7419 32.9578 12.6818 32.9878 12.6718 33.0678C12.6718 33.1378 12.6719 33.2078 12.7119 33.2878L12.8419 33.6078H12.8519ZM15.4018 39.1778C15.4018 39.1778 15.3718 39.2378 15.3718 39.2678C15.3718 39.3178 15.4318 39.3578 15.5518 39.3678C15.8418 39.3978 16.1318 39.2078 16.1518 38.9778V38.9378L15.9419 38.6378C15.9019 38.5778 15.8518 38.5478 15.7918 38.5378C15.7318 38.5378 15.6718 38.5878 15.6418 38.6678L15.5719 38.8878L15.4018 39.1678V39.1778ZM15.2119 39.8178C15.2319 39.9078 15.3119 39.9678 15.4519 39.9778C15.7919 40.0078 15.9419 39.9478 15.9619 39.7778C15.9719 39.6478 15.8918 39.5378 15.7718 39.5278C15.4318 39.4978 15.2319 39.5778 15.2119 39.7678C15.2119 39.7778 15.2119 39.7978 15.2119 39.8078M0.59188 24.9478C0.65188 24.9278 0.701802 24.7278 0.761802 24.6478C0.821802 24.5778 0.97189 24.5178 1.10189 24.5378C1.25189 24.5678 1.41183 24.3578 1.41183 24.3578C1.45183 24.3278 1.50184 24.2778 1.55184 24.2878C1.59184 24.2878 1.62179 24.3478 1.62179 24.3678C1.57179 24.8378 1.39186 25.1578 1.19186 25.1278C1.19186 25.1278 1.17183 25.1278 1.16183 25.1178L0.961875 24.9878C0.881875 24.9878 0.811841 25.0378 0.801841 25.1178C0.791841 25.2278 0.89186 25.3878 1.07186 25.5378C1.14186 25.5978 1.22184 25.6278 1.30184 25.6378C1.43184 25.6478 1.52178 25.5878 1.61178 25.4278L1.95187 24.7778C1.99187 24.6978 2.06181 24.6578 2.14181 24.6678C2.18181 24.6678 2.21187 24.7278 2.21187 24.7978C2.21187 24.8978 2.17179 24.9978 2.12179 25.0778L1.72188 25.7678C1.72188 25.8578 1.75185 25.9378 1.81185 25.9478C1.82185 25.9478 1.93189 25.8478 2.10189 25.6678L2.6318 25.1178L2.77181 24.8578L2.91183 24.6078C2.97183 24.4978 3.01181 24.3778 3.02181 24.2378C3.05181 23.9578 3.02184 23.6378 2.92184 23.2878C2.83184 22.9478 2.67186 22.6378 2.44186 22.3778C2.30186 22.2178 2.17187 22.1178 2.08187 22.1078C2.06187 22.1078 2.05182 22.1078 2.03182 22.1078L1.80184 22.4478L1.3818 22.8278L1.02181 23.2778L0.701865 23.4878C0.621865 23.5378 0.561821 23.6978 0.531821 23.9278C0.511821 24.1178 0.471826 24.2678 0.411826 24.3578C0.311826 24.5278 0.251782 24.6678 0.241782 24.7678C0.231782 24.9078 0.291865 24.9778 0.451865 24.9878C0.491865 24.9878 0.55187 24.9578 0.58187 24.9478M3.35189 24.3778C3.35189 24.3778 3.35189 24.6878 3.35189 24.7778C3.36189 24.8678 3.18179 25.0978 3.00179 25.1578C2.79179 25.2378 2.50179 25.6378 2.50179 25.6378L2.27181 25.7478C2.21181 25.7778 2.17184 25.8378 2.17184 25.9078C2.17184 25.9278 2.17184 25.9478 2.17184 25.9678C2.22184 26.1078 2.39183 26.1978 2.54183 26.2178C2.60183 26.2178 2.65187 26.2178 2.70187 26.1978C2.76187 26.1678 2.80185 26.1578 2.81185 26.1578C2.89185 26.1578 2.99181 26.1778 3.02181 26.4178L4.62179 32.2478C4.64179 32.3278 4.71182 32.3878 4.78182 32.3978C4.92182 32.4078 5.01182 32.2978 5.03182 32.1078C5.06182 31.8478 4.93182 31.3578 4.65182 30.5878C3.93182 28.6078 3.50179 26.9178 3.37179 25.5478C3.37179 25.5178 3.37179 25.4978 3.37179 25.4678C3.37179 25.3878 3.39186 25.1278 3.94186 24.7078L3.98189 24.6878L3.94186 24.4378C3.90186 24.4978 3.85185 24.5178 3.81185 24.5078C3.64185 24.4878 3.50189 24.1678 3.48189 23.7578C3.46189 23.3378 3.37188 22.9578 3.21187 22.6278C3.00187 22.1878 2.56186 21.7378 2.32186 21.7078C2.22186 21.6978 2.1418 21.7578 2.1318 21.8678C2.1318 21.9278 2.18187 21.9778 2.33187 22.0578C2.43187 22.1078 2.65188 22.3878 2.96187 22.8778C3.08187 23.0678 3.15182 23.2678 3.15182 23.4478V23.8378L3.32186 24.3778H3.35189ZM16.4619 35.1078C16.4619 35.1078 16.4418 35.0778 16.4218 35.0778C16.3718 35.0778 16.3118 35.0778 16.2518 35.1078C16.0518 35.1778 15.8918 35.3778 15.8618 35.5678C15.8418 35.7478 15.9818 36.0678 16.3818 36.6678C16.5518 36.9278 16.6518 37.3078 16.6218 37.5578C16.6118 37.6578 16.5818 37.6978 16.5318 37.6878C16.3718 37.6678 16.1718 37.3078 16.1118 36.9378C16.0018 36.2678 15.7118 35.7978 15.3718 35.7578C15.2918 35.7478 15.2319 35.7578 15.1919 35.7678C15.0319 35.8078 14.9218 35.8678 14.9218 35.9178C14.9118 36.0378 15.0918 36.3078 15.4318 36.6678C15.6618 36.9078 15.9118 37.4278 16.1818 38.1878L16.5318 39.1878L16.6919 39.4278L16.8918 39.3978L17.4519 39.3578C17.6619 39.3478 17.7819 39.2078 17.8219 38.9678C17.8519 38.7378 17.8219 38.4878 17.7219 38.2778L16.8818 36.3278L16.4719 35.0878L16.4619 35.1078ZM18.8818 53.4078C18.8818 53.4078 18.7819 53.3578 18.7219 53.3479C18.5619 53.3279 18.5418 53.3478 18.5218 53.4678V53.4978L18.5118 53.6678C18.5118 53.7378 18.4718 53.8678 18.4118 54.0578C18.3918 54.1078 18.3818 54.1478 18.3818 54.1878C18.3618 54.3278 18.4319 54.4178 18.5719 54.4378C18.6519 54.4478 18.7418 54.4379 19.0018 54.3479C19.5318 54.1879 19.6619 54.0878 19.6919 53.8078C19.7219 53.5978 19.6918 53.5478 19.5418 53.5278C19.4918 53.5278 19.4418 53.5278 19.3918 53.5278C19.2118 53.5478 19.0918 53.5379 19.0518 53.5079L18.8918 53.3978L18.8818 53.4078ZM19.2019 35.2078C19.1919 35.0378 19.0919 34.8978 18.9819 34.8878C18.9119 34.8878 18.8219 35.0078 18.8119 35.1478C18.8019 35.2578 18.8619 35.5778 18.9519 35.9678C19.0319 36.3578 19.0119 36.6778 18.9519 37.1178C18.9119 37.4278 18.8018 37.6478 18.7418 37.8078L18.5719 38.0478L18.4018 38.3578L18.1618 38.5678C18.1618 38.5678 18.1518 38.5778 18.1518 38.5878C18.1518 38.6278 18.1619 38.6778 18.2119 38.7478C18.2419 38.7878 18.2719 38.8078 18.3219 38.8178H18.3419C18.3419 38.8178 18.4619 38.7778 18.5719 38.6978C18.7719 38.5678 18.9119 38.3778 18.9619 38.1778L19.1618 37.3878L19.3119 37.0278L19.4318 36.4778L19.3918 36.1578L19.3718 35.7578L19.2518 35.4578L19.2319 35.2178L19.2019 35.2078ZM16.8018 32.4778L17.2119 32.2278C17.3219 32.1578 17.4419 31.8978 17.4719 31.6578C17.5019 31.4478 17.4718 31.1978 17.4018 30.9378L17.1218 29.9878C16.9918 29.5378 16.7618 29.2078 16.5018 29.0978H16.4719C16.4719 29.0978 16.3918 29.0978 16.3918 29.1178C16.3918 29.1378 16.4119 29.1678 16.4519 29.2278C16.5819 29.4078 16.6719 29.6378 16.7119 29.8978L16.8119 30.5478C16.8419 30.7478 16.8519 30.8778 16.8519 30.9378L16.8219 31.2978L16.9118 31.5878C16.9118 31.5878 16.9118 31.6278 16.9118 31.6478C16.9018 31.7478 16.8618 31.8478 16.6618 32.2878L16.8018 32.4878V32.4778ZM16.2718 32.0378C16.4618 31.8478 16.5819 31.6878 16.6019 31.5578C16.6019 31.5178 16.6018 31.4678 16.6118 31.4078C16.6118 30.9578 16.5818 30.5178 16.5218 30.3978L16.2818 29.9178L16.2119 29.6078L15.9918 29.3078L15.8718 28.9978C15.8718 28.9978 15.8419 28.9678 15.8119 28.9578C15.7519 28.9578 15.7019 28.9678 15.7019 29.0078C15.7019 29.0278 15.7218 29.1078 15.7618 29.2478L15.8618 29.5578C15.8918 29.6478 15.9018 29.7078 15.8918 29.7178L15.6818 30.0978L15.6318 31.0078L15.5018 31.3378C15.5018 31.3378 15.5418 31.4778 15.6618 31.5778C15.8018 31.7078 15.8618 31.7878 16.0118 32.0978L16.2818 32.0178L16.2718 32.0378ZM21.6318 30.6778C21.6818 30.7578 21.7618 30.8078 21.8618 30.8178C21.9818 30.8378 22.0619 30.8178 22.0619 30.7478C22.0619 30.7078 22.0518 30.6478 22.0118 30.5678L21.8419 30.2278L21.7618 29.9678C21.7518 29.9178 21.6719 29.8778 21.5819 29.8678C21.4319 29.8478 21.2918 29.9478 21.2818 30.0678C21.2718 30.1478 21.2819 30.2178 21.3319 30.2678L21.5018 30.4678L21.6318 30.6678V30.6778ZM20.7818 30.8078C20.8918 30.9178 21.0118 30.9878 21.1118 30.9978C21.3418 31.0278 21.4419 30.9878 21.4619 30.8578C21.4619 30.8278 21.4619 30.7978 21.4619 30.7678C21.3819 30.5378 21.1118 30.2978 20.9018 30.2778C20.7218 30.2578 20.5819 30.3578 20.5619 30.5178C20.5619 30.5378 20.5619 30.5578 20.5819 30.5778L20.8018 30.7978L20.7818 30.8078ZM17.9719 2.64784C17.9219 2.76784 17.8918 2.78785 17.7918 2.93785V2.95783C14.4818 6.28784 12.8118 7.57784 8.17184 11.3378L8.04183 11.4478C7.99183 11.5078 7.91184 11.5578 7.92184 11.6478V11.6878C7.92184 11.7578 7.94178 11.8178 7.99178 11.8678C8.05178 11.9278 8.15188 11.9578 8.21187 11.9578C8.34188 11.9578 8.49187 11.8278 8.71187 11.6478C8.87187 11.5178 9.09188 11.3378 9.09188 11.3378C9.09188 11.3378 15.4318 6.28784 18.0518 3.44784L18.1919 3.34783L18.3319 3.31784L18.4318 3.23783H18.4819C18.5419 3.23783 18.6319 3.35784 18.7219 3.53784C18.9419 3.98784 18.9919 4.08784 19.1019 4.25784C19.3719 4.67784 19.5519 4.56783 19.5819 4.54783C19.6519 4.51783 19.7218 4.47784 19.8018 4.41784C19.9018 4.33784 19.8718 4.36783 19.8818 4.34783C19.9818 4.21783 19.9019 4.11785 19.8119 3.93785L19.7319 3.76783L18.2119 0.797831C18.0719 0.487831 17.9819 0.567836 17.9819 0.567836L17.8018 0.667842C17.6218 0.717842 17.3819 0.807841 17.4619 1.05784C17.4919 1.16784 17.5219 1.25784 17.6019 1.44784L18.0518 2.38784C18.1018 2.50784 18.0819 2.53784 17.9819 2.60784V2.62783L17.9719 2.64784ZM10.1418 19.3578C10.3518 20.0178 10.5118 20.2478 10.7518 20.2878C10.7818 20.2878 10.8119 20.2878 10.8419 20.2778L11.1718 20.1378L11.6718 20.0478L12.4118 19.6678L13.0318 19.2878L13.2418 19.0878L13.9918 18.8078C14.1618 18.7478 14.2819 18.5578 14.3119 18.3078C14.3519 17.9878 14.2819 17.5878 14.0919 17.1178C13.9919 16.8778 13.8419 16.6978 13.7019 16.6878C13.6519 16.6878 13.5918 16.6878 13.5518 16.7078L13.3219 16.8378L12.7718 17.0378C12.5418 17.1178 12.3118 17.3678 12.2918 17.5478C12.2918 17.5778 12.2919 17.5978 12.3119 17.6178L12.4719 17.7878C12.4719 17.7878 12.4819 17.8078 12.4819 17.8278C12.4719 17.9178 12.3918 17.9978 12.3018 18.0078L12.1518 18.0278L11.8618 18.1478L11.2918 18.4978L10.3618 19.1278L10.3119 19.2378L10.2518 19.3078L10.1618 19.3478L10.1418 19.3578ZM16.1318 34.6578C16.1318 34.6578 16.1719 34.7378 16.2219 34.7378C16.3019 34.7478 16.4019 34.5278 16.4419 34.2578C16.5119 33.7078 16.3718 33.1878 16.0418 32.8178C15.9618 32.7278 15.9118 32.6478 15.8918 32.6078L15.7319 32.2078C15.6719 32.0578 15.5318 31.9178 15.4218 31.9078C15.2818 31.8878 15.2319 31.9578 15.2019 32.2178C15.1719 32.4578 15.1719 32.6178 15.2119 32.6578L15.3419 32.8078L15.5218 33.0178L15.6919 33.3878L15.9118 33.7778L16.1318 34.6678V34.6578ZM16.7319 33.2478C16.7119 33.1078 16.7018 33.0978 16.6618 33.0978C16.5518 33.0878 16.4719 33.1678 16.4619 33.2778C16.4619 33.3378 16.5018 33.5378 16.5418 33.6678C16.5718 33.7678 16.6118 33.8178 16.6618 33.8178C16.7418 33.8278 16.7818 33.7678 16.8018 33.6778C16.8018 33.6578 16.8018 33.6478 16.8018 33.6278L16.7418 33.2478H16.7319ZM16.7418 34.6578C16.7418 34.6578 16.8418 34.6378 16.8818 34.5778C16.9218 34.5378 16.9419 34.4778 16.9519 34.4278V34.4078C16.9519 34.3178 16.9218 34.2078 16.8618 34.1178C16.8018 34.0278 16.7618 33.9778 16.7418 33.9778C16.6618 33.9678 16.6119 34.0778 16.5919 34.1978C16.5819 34.3178 16.5918 34.4178 16.6518 34.5078L16.7418 34.6578ZM7.92184 17.6578L7.97188 17.5978L7.73189 17.2978L7.50179 16.8578C7.50179 16.8578 7.45184 16.7978 7.42184 16.7978C7.38184 16.7978 7.35188 16.8378 7.34188 16.8978L7.32186 17.2978C7.30186 17.6678 7.32183 17.7178 7.54183 17.7378C7.57183 17.7378 7.6018 17.7378 7.6318 17.7378L7.92184 17.6578ZM2.99178 16.4878C2.97178 16.3278 2.83183 16.1978 2.66183 16.1678C2.61183 16.1678 2.58186 16.1878 2.57186 16.2478C2.55186 16.4378 2.69181 16.6178 2.89181 16.6478C2.95181 16.6478 2.98178 16.6178 2.99178 16.5378C2.99178 16.5178 2.99178 16.5078 2.99178 16.4878ZM2.49178 16.9578V16.9178C2.49178 16.9178 2.51182 16.8378 2.53182 16.8178C2.54182 16.8178 2.62179 16.8178 2.75179 16.8378C2.87179 16.8578 2.96187 16.9478 2.95187 17.0478C2.94187 17.1278 2.83187 17.1778 2.71187 17.1578C2.49187 17.1278 2.48189 17.1178 2.48189 16.9578" fill="#0F4F79"/>
</svg>
