<svg width="218" height="14" viewBox="0 0 218 14" fill="none" xmlns="http://www.w3.org/2000/svg">
<path d="M89.6458 4.2001H85.6558C85.2658 2.5001 82.1358 2.9001 82.7758 4.1401C82.9558 4.5001 83.4757 4.7101 83.8357 4.8001L87.0358 5.6701C88.2658 6.0101 89.6758 7.0201 89.9058 8.3601C90.7658 13.3801 84.3157 14.5401 80.8757 12.8501C80.0057 12.4201 79.3757 11.7901 78.8657 10.9601C78.6057 10.5301 78.3857 9.8401 78.3857 9.3401V9.2801H82.3857C82.9557 11.3701 86.6057 10.7301 85.8857 9.3401C85.7257 9.0401 85.1457 8.7801 84.8257 8.7001L82.3757 8.0701C80.8157 7.6701 79.1057 6.8501 78.7657 5.1001C77.6457 -0.689896 87.4257 -1.4299 89.2357 2.8301C89.3157 3.0101 89.4057 3.1901 89.4657 3.3801C89.5457 3.6401 89.6458 3.9101 89.6458 4.1801V4.2101V4.2001Z" fill="#231815"/>
<path d="M12.0156 4.20003V4.17003C12.0156 3.90003 11.9156 3.63003 11.8356 3.37003C11.7756 3.18003 11.6856 3.00003 11.6056 2.82003C9.78559 -1.42997 0.0156103 -0.69997 1.12561 5.09003C1.45561 6.80003 3.14566 7.64003 4.67566 8.04003L7.30566 8.73003C7.67566 8.83003 8.09564 9.04003 8.28564 9.39003C8.94564 10.61 5.33561 11.42 4.74561 9.27003H0.765625V9.33003C0.765625 9.82003 0.965586 10.52 1.22559 10.95C1.72559 11.78 2.3556 12.41 3.2356 12.84C6.5756 14.49 13.3056 13.34 12.2656 8.35003C11.9156 6.66003 10.3157 5.89003 8.80566 5.49003L6.15564 4.78003C5.83564 4.69003 4.93565 4.29003 5.04565 3.82003L5.1156 3.54003C5.1156 3.54003 5.11562 3.50003 5.13562 3.48003L5.34558 3.29003C5.77558 2.90003 7.48566 3.08003 7.80566 3.61003C7.91566 3.79003 7.99565 3.99003 8.04565 4.18003H12.0056L12.0156 4.20003Z" fill="#231815"/>
<path d="M47.0458 0.48999H42.8557V13.22H47.0458V0.48999Z" fill="#231815"/>
<path d="M121.366 0.48999V13.21H131.266V10.23H125.556V0.48999H121.366Z" fill="#231815"/>
<path d="M162.596 0.48999V13.21H173.226V10.23H166.786V8.24999H172.026V5.26999H166.786V3.46999H172.996V0.48999H162.596Z" fill="#231815"/>
<path d="M212.446 13.21V8.51L217.186 0.5H212.566L210.396 4.79L208.216 0.5H203.536L208.246 8.57L208.256 10.89V13.21H212.446Z" fill="#231815"/>
</svg>
