<svg width="209" height="21" viewBox="0 0 209 21" fill="none" xmlns="http://www.w3.org/2000/svg">
<path d="M4.64996 13.97C5.05996 14.74 5.83997 15.32 6.96997 15.32C7.95997 15.32 8.29997 14.74 8.29997 14.19C8.29997 11.9 0.789963 13.06 0.789963 6.36996C0.789963 3.60996 3.46997 0.679962 6.91997 0.679962C10.37 0.679962 12.11 1.97996 13.6 4.76996L9.45996 7.44997C9.09996 6.58997 8.79997 5.92996 7.85997 5.92996C6.97997 5.92996 6.58997 6.50997 6.58997 7.05997C6.58997 8.74997 13.83 8.29996 13.83 14.88C13.83 18.86 10.29 20.57 7.47997 20.57C4.04997 20.57 2.06996 19.46 0.459961 17.14L4.65997 13.96L4.64996 13.97Z" fill="#221F1F"/>
<path d="M29.1701 13.14C29.1701 17.81 26.4101 20.57 22.5401 20.57C18.6701 20.57 15.9102 17.81 15.9102 13.14V0.959991H21.4301V12.45C21.4301 14.05 21.7101 15.05 22.5401 15.05C23.3701 15.05 23.6501 14.06 23.6501 12.45V0.959991H29.1701V13.14Z" fill="#221F1F"/>
<path d="M45.69 0.959991V20.3H40.17V20.21L37.05 11.76V20.3H31.52V0.959991H37.05L40.17 9.43999V0.959991H45.69Z" fill="#221F1F"/>
<path d="M62.3001 0.959991V20.3H56.7701V20.21L53.6501 11.76V20.3H48.1201V0.959991H53.6501L56.7701 9.43999V0.959991H62.3001Z" fill="#221F1F"/>
<path d="M70.25 0.959991H64.73V20.3H70.25V0.959991Z" fill="#221F1F"/>
<path d="M72.6802 20.3V0.959991H84.1202V6.48H78.2302V8.46999H83.1502V12.7H78.2302V14.77H84.1202V20.3H72.6802Z" fill="#221F1F"/>
<path d="M90.3301 13.97C90.7401 14.74 91.5201 15.32 92.6501 15.32C93.6401 15.32 93.9802 14.74 93.9802 14.19C93.9802 11.9 86.4702 13.06 86.4702 6.36996C86.4702 3.60996 89.1502 0.679962 92.6002 0.679962C96.0502 0.679962 97.7902 1.97996 99.2802 4.76996L95.1401 7.44997C94.7801 6.58997 94.4802 5.92996 93.5402 5.92996C92.6602 5.92996 92.2701 6.50997 92.2701 7.05997C92.2701 8.74997 99.5102 8.29996 99.5102 14.88C99.5102 18.86 95.9702 20.57 93.1602 20.57C89.7302 20.57 87.7501 19.46 86.1401 17.14L90.3401 13.96L90.3301 13.97Z" fill="#221F1F"/>
<path d="M114.28 13.97C114.69 14.74 115.47 15.32 116.6 15.32C117.59 15.32 117.93 14.74 117.93 14.19C117.93 11.9 110.42 13.06 110.42 6.36996C110.42 3.60996 113.1 0.679962 116.55 0.679962C120 0.679962 121.74 1.97996 123.23 4.76996L119.09 7.44997C118.73 6.58997 118.43 5.92996 117.49 5.92996C116.61 5.92996 116.22 6.50997 116.22 7.05997C116.22 8.74997 123.46 8.29996 123.46 14.88C123.46 18.86 119.92 20.57 117.11 20.57C113.68 20.57 111.7 19.46 110.09 17.14L114.29 13.96L114.28 13.97Z" fill="#221F1F"/>
<path d="M125.22 0.959991H139.03V6.48H134.89V20.3H129.36V6.48H125.22V0.959991Z" fill="#221F1F"/>
<path d="M154.31 13.14C154.31 17.81 151.55 20.57 147.68 20.57C143.81 20.57 141.05 17.81 141.05 13.14V0.959991H146.57V12.45C146.57 14.05 146.85 15.05 147.68 15.05C148.51 15.05 148.79 14.06 148.79 12.45V0.959991H154.31V13.14Z" fill="#221F1F"/>
<path d="M163.01 20.3H156.66V0.959991H163.01C166.88 0.959991 170.77 4.54999 170.77 10.63C170.77 16.71 166.87 20.3 163.01 20.3ZM163.01 6.51999H162.21V14.75H163.01C164.25 14.75 165.22 13.4 165.22 10.63C165.22 7.85999 164.25 6.50999 163.01 6.50999" fill="#221F1F"/>
<path d="M178.34 0.959991H172.82V20.3H178.34V0.959991Z" fill="#221F1F"/>
<path d="M187.1 20.57C183.23 20.57 180.47 17.81 180.47 13.14V8.10995C180.47 3.43995 183.23 0.679962 187.1 0.679962C190.97 0.679962 193.73 3.43995 193.73 8.10995V13.14C193.73 17.81 190.97 20.57 187.1 20.57ZM185.99 12.45C185.99 14.05 186.27 15.05 187.1 15.05C187.93 15.05 188.2 14.06 188.2 12.45V8.79996C188.2 7.19996 187.92 6.19997 187.1 6.19997C186.28 6.19997 185.99 7.18996 185.99 8.79996V12.45Z" fill="#221F1F"/>
<path d="M199.75 13.97C200.16 14.74 200.94 15.32 202.07 15.32C203.06 15.32 203.4 14.74 203.4 14.19C203.4 11.9 195.89 13.06 195.89 6.36996C195.89 3.60996 198.57 0.679962 202.02 0.679962C205.47 0.679962 207.21 1.97996 208.7 4.76996L204.56 7.44997C204.2 6.58997 203.9 5.92996 202.96 5.92996C202.08 5.92996 201.69 6.50997 201.69 7.05997C201.69 8.74997 208.93 8.29996 208.93 14.88C208.93 18.86 205.39 20.57 202.58 20.57C199.15 20.57 197.17 19.46 195.56 17.14L199.76 13.96L199.75 13.97Z" fill="#221F1F"/>
</svg>
