<?xml version="1.0" encoding="utf-8"?>
<!-- Generator: Adobe Illustrator 27.1.0, SVG Export Plug-In . SVG Version: 6.00 Build 0)  -->
<svg version="1.1" id="Layer_1" xmlns="http://www.w3.org/2000/svg" xmlns:xlink="http://www.w3.org/1999/xlink" x="0px" y="0px"
	 viewBox="0 0 1218 142" style="enable-background:new 0 0 1218 142;" xml:space="preserve">
<style type="text/css">
	.st0{clip-path:url(#SVGID_00000098909974189571446210000007314808612752534179_);}
</style>
<g>
	<g>
		<defs>
			<rect id="SVGID_1_" y="0" width="1218" height="142"/>
		</defs>
		<clipPath id="SVGID_00000029007872149471414030000006020075008503330723_">
			<use xlink:href="#SVGID_1_"  style="overflow:visible;"/>
		</clipPath>
		<g style="clip-path:url(#SVGID_00000029007872149471414030000006020075008503330723_);">
			<path d="M30,94.9c2.9,5.5,8.5,9.7,16.5,9.7c7.1,0,9.5-4.1,9.5-8.1c0-16.4-53.6-8.1-53.6-55.8C2.4,20.9,21.5,0,46.1,0
				s37,9.3,47.7,29.2L64.2,48.3c-2.6-6.1-4.7-10.8-11.4-10.8c-6.3,0-9.1,4.1-9.1,8.1c0,12,51.6,8.9,51.6,55.8
				c0,28.4-25.2,40.6-45.3,40.6c-24.4,0-38.6-7.9-50-24.5L30,94.9L30,94.9z"/>
			<path d="M208.9,88.9c0,33.3-19.7,53.1-47.3,53.1s-47.3-19.7-47.3-53.1V2h39.4V84c0,11.4,2,18.5,7.9,18.5c5.9,0,7.9-7.1,7.9-18.5
				V2H209L208.9,88.9L208.9,88.9z"/>
			<path d="M330.7,2V140h-39.4v-0.6L269,79.1V140h-39.4V2H269l22.3,60.5V2H330.7z"/>
			<path d="M453.1,2V140h-39.4v-0.6l-22.3-60.4V140H352V2h39.4l22.3,60.5V2H453.1z"/>
			<path d="M513.8,2V140h-39.4V2H513.8z"/>
			<path d="M535.1,140V2h81.6v39.5h-42v14.2h35.1v30.2h-35.1v14.8h42V140H535.1z"/>
			<path d="M664.9,94.9c3,5.5,8.5,9.7,16.5,9.7c7.1,0,9.5-4.1,9.5-8.1c0-16.4-53.6-8.1-53.6-55.8c0-19.7,19.1-40.6,43.7-40.6
				c24.6,0,37,9.3,47.7,29.2l-29.6,19.1c-2.6-6.1-4.7-10.8-11.4-10.8c-6.3,0-9.1,4.1-9.1,8.1c0,12,51.6,8.9,51.6,55.8
				c0,28.4-25.2,40.6-45.3,40.6c-24.4,0-38.6-7.9-50-24.5L664.9,94.9L664.9,94.9z"/>
			<path d="M816.7,2h81.6v39.5h-42v14.2h35.1v30.2h-35.1V140h-39.6L816.7,2L816.7,2z"/>
			<path d="M972.6,140l-4.3-16.2h-24.6l-4.1,16.2h-41L935.5,2h40.8l37,138.1H972.6z M956,59.9l-7.6,31.6h14.7L956,59.9z"/>
			<path d="M1136.4,140V2h81.6v39.5h-42v14.2h35.1v30.2h-35.1v14.8h42V140H1136.4z"/>
			<path d="M1016,70.7c0-44.2,18.7-70.6,55.2-70.6c32.6,0,50.3,21.9,51.9,57h-38.6c-0.9-14.4-3.6-20-13.6-20
				c-12.7,0-15.6,8.7-15.6,33.6s2.9,34.3,15.6,34.3c10,0,13-6.2,13.8-20.6h38.4c-1.6,35.1-19.2,56.9-51.9,56.9
				C1034.7,141.3,1016,114.9,1016,70.7z"/>
		</g>
	</g>
</g>
</svg>
