<svg width="148" height="20" viewBox="0 0 148 20" fill="none" xmlns="http://www.w3.org/2000/svg">
<path d="M112.516 7.89C114.216 8.55 116.486 8.83 118.216 9.36C120.206 9.97 121.836 11.16 121.826 13.94C121.826 17.25 119.436 20 114.706 19.98C112.906 19.99 110.466 19.26 108.926 18.32L108.536 13.69H108.996C109.596 16.92 111.806 18.97 115.016 18.99C117.496 19 119.476 17.85 119.926 15.64C120.546 12.63 118.276 11.89 117.706 11.68C116.236 11.16 113.996 10.86 112.016 10.21C109.876 9.5 108.436 8.14 108.436 5.73C108.436 2.31 111.576 0.210002 115.606 0.240002C118.076 0.260002 120.086 1.07 120.386 1.24L120.696 5.3H120.286C119.806 2.67 117.766 1.17 115.146 1.16C112.286 1.15 110.586 2.85 110.356 4.48C110.086 6.41 111.196 7.39 112.506 7.9M4.57587 7.9C3.26587 7.39 2.15584 6.41 2.42584 4.48C2.65584 2.86 4.35582 1.15 7.21582 1.16C9.83582 1.17 11.8758 2.67 12.3558 5.3H12.7659L12.4559 1.24C12.1559 1.07 10.1458 0.260002 7.67584 0.240002C3.65584 0.210002 0.515859 2.31 0.505859 5.73C0.505859 8.15 1.94582 9.51 4.08582 10.21C6.07582 10.87 8.31582 11.16 9.77582 11.68C10.3558 11.89 12.6158 12.63 11.9958 15.64C11.5458 17.85 9.56581 19 7.08582 18.99C3.87582 18.98 1.66586 16.93 1.06586 13.7H0.605835L0.99585 18.33C2.53585 19.27 4.97582 20 6.77582 19.99C11.4958 20.01 13.8858 17.26 13.8958 13.95C13.8958 11.17 12.2758 9.98 10.2858 9.37C8.55583 8.84 6.27582 8.56 4.58582 7.9M145.366 2.22C145.366 0.940002 146.496 0.990002 147.246 0.990002V0.580001H141.166V0.990002C141.916 0.990002 143.056 0.940002 143.056 2.22V18.08C143.056 19.36 141.916 19.31 141.166 19.31V19.72H147.246V19.31C146.496 19.31 145.356 19.36 145.356 18.08V2.22H145.366ZM92.1959 3.4L98.1258 19.72H99.8858L105.696 2.96C106.316 1.16 107.156 0.980002 108.346 0.980002V0.570002H102.586V0.980002C103.186 0.980002 103.626 0.990002 103.946 1.07C104.756 1.27 104.796 1.97 104.736 2.44C104.676 2.89 104.486 3.35 104.366 3.72L99.7259 17.24H99.6758L95.0558 4.54C94.7058 3.57 94.5059 2.93 94.4359 2.47C94.3359 1.8 94.5758 1.38 94.8758 1.2C95.1658 1.02 95.4458 0.980002 96.1458 0.980002V0.570002H89.4459V0.980002C91.0059 0.980002 91.5559 1.65 92.1859 3.39M44.4858 2.43C44.7658 1.64 44.4858 1.24 44.0358 1.08C43.7758 0.980001 43.4459 0.980002 43.1259 0.980002V0.570002H46.8358L52.9958 16.89C53.6658 18.55 54.1258 19.3 55.7758 19.3V19.71H49.0759V19.3C49.7759 19.3 50.0558 19.26 50.3458 19.08C50.6358 18.9 50.8759 18.47 50.7659 17.8C50.6959 17.34 50.4859 16.7 50.1259 15.73L49.1758 13.19H41.6859L40.4958 16.55C40.3658 16.92 40.1758 17.38 40.1058 17.83C40.0358 18.31 40.0759 19 40.8759 19.2C41.1959 19.28 41.6358 19.29 42.2358 19.29V19.7H36.4758V19.29C37.6758 19.29 38.5158 19.1 39.1558 17.31L44.5059 2.41M48.8358 12.27L45.3558 3.02H45.2958L42.0159 12.27H48.8358ZM61.4559 10.96V11.01L69.1658 19.7H73.2558V19.29C72.4458 19.29 71.2358 18.85 70.0258 17.49L64.7059 11.51C68.1059 11.13 70.9659 9.35 70.9659 5.74C70.9659 2.69 68.5359 0.550002 63.9559 0.550002H56.7659V0.960002C57.5259 0.960002 58.6558 0.910002 58.6558 2.19V18.05C58.6558 19.33 57.5159 19.28 56.7659 19.28V19.69H62.8458V19.28C62.0858 19.28 60.9559 19.33 60.9559 18.05V1.42H62.4559C64.2859 1.42 68.7059 1.33 68.7059 5.93C68.7059 10.53 64.2859 10.97 62.4559 10.97H61.4559V10.96ZM126.846 2.2C126.846 0.920002 127.976 0.970002 128.726 0.970002V0.560002H122.646V0.970002C123.396 0.970002 124.536 0.920002 124.536 2.2V18.06C124.536 19.34 123.396 19.29 122.646 19.29V19.7H128.726V19.29C127.976 19.29 126.836 19.34 126.836 18.06V2.2H126.846ZM136.936 17.75L129.406 9.18C129.406 9.18 134.896 3.18 135.476 2.56C136.316 1.64 137.176 0.980002 138.906 0.980002V0.570002H132.596V0.980002C132.776 0.980002 133.766 0.960001 134.096 1.08C134.716 1.3 134.806 1.93 134.036 2.78L127.296 10.12V10.15L135.626 19.72H139.676V19.31C138.766 19.31 137.626 18.55 136.936 17.77M35.1658 0.580001V0.990002C35.7658 0.990002 36.2058 1 36.5358 1.08C37.3458 1.28 37.4258 1.98 37.3558 2.45C37.2958 2.9 37.1158 3.36 36.9958 3.73L32.3558 17.25H32.3058L28.0358 4.55C27.7158 3.59 27.5258 2.95 27.4758 2.48C27.3958 1.81 27.6459 1.39 27.9459 1.2C28.2459 1.01 28.5358 0.980002 29.2258 0.980002V0.570002H22.5858V0.980002C24.1458 0.980002 24.6759 1.65 25.2659 3.39L26.8658 8.19L23.8159 17.25H23.7659L19.4258 4.55C19.0958 3.59 18.9058 2.95 18.8458 2.48C18.7658 1.81 19.0058 1.39 19.3058 1.2C19.5958 1.02 19.8858 0.980002 20.5858 0.980002V0.570002H13.9058V0.980002C15.4658 0.980002 16.0058 1.65 16.5958 3.39L22.1458 19.71H23.9258L27.3259 9.6L30.7059 19.71H32.4858L38.2559 2.95C38.8759 1.16 39.7158 0.970002 40.9158 0.970002V0.560002H35.1558L35.1658 0.580001ZM82.0158 0.240002C88.2758 0.240002 90.7558 5.55 90.7558 9.88C90.7558 14.98 87.1759 20 81.5959 20C76.0159 20 72.7658 15.55 72.7658 10.18C72.7658 4.37 77.0458 0.240002 82.0058 0.240002M76.0959 14.3C77.1159 16.17 78.5759 17.57 80.2159 18.26C81.5959 18.84 83.3059 18.9 84.8159 18.3C88.4559 16.84 88.5659 12.17 88.5959 11.66C88.7859 7.89 87.1558 3.96 84.1458 2.32C82.5458 1.45 80.0858 1.09 77.8958 2.35C76.3258 3.25 74.8759 5.02 74.6859 8.41C74.5559 10.63 75.2059 12.66 76.0959 14.3Z" fill="#221F1F"/>
</svg>
