<svg width="259" height="15" viewBox="0 0 259 15" fill="none" xmlns="http://www.w3.org/2000/svg">
<path d="M133.71 3.7981H122.94V10.8281H133.71V3.7981Z" fill="#D53A34"/>
<path d="M122.94 3.81812H112.17V10.8281H122.94V3.81812Z" fill="white"/>
<path d="M133.71 0.328125H112.17V3.81813H133.71V0.328125Z" fill="#1D234C"/>
<path d="M133.71 10.8081H112.17V14.3081H133.71V10.8081Z" fill="#1D234C"/>
<path d="M12.0206 2.12811H7.17053V14.3281H5.16052V2.12811H0.310547V0.318115H12.0206V2.12811Z" fill="#1D234C"/>
<path d="M26.9103 12.668C30.0503 12.668 32.3704 10.3879 32.3704 7.32794C32.3704 4.26794 30.0503 1.98795 26.9103 1.98795C23.7703 1.98795 21.4703 4.24794 21.4703 7.32794C21.4703 10.4079 23.7903 12.668 26.9103 12.668ZM26.9103 0.137939C31.5303 0.137939 34.4504 3.41794 34.4504 7.32794C34.4504 11.2379 31.6104 14.5179 26.8704 14.5179C22.1304 14.5179 19.3904 11.1279 19.3904 7.32794C19.3904 3.52794 22.3703 0.137939 26.9103 0.137939Z" fill="#1D234C"/>
<path d="M56.9603 14.3281H54.9404V3.42812H54.9003L50.5903 8.84811H50.2604L45.9504 3.42812H45.9103V14.3281H43.8904V0.318115H45.7803L50.4304 6.07811L55.0903 0.318115H56.9603V14.3281Z" fill="#1D234C"/>
<path d="M81.4005 14.3281H79.3806V3.42812H79.3405L75.0305 8.84811H74.7006L70.3906 3.42812H70.3505V14.3281H68.3306V0.318115H70.2205L74.8705 6.07811L79.5305 0.318115H81.4005V14.3281Z" fill="#1D234C"/>
<path d="M100.111 0.328125H102.531L97.3306 6.93813V14.3281H95.3206V6.91814L90.1306 0.328125H92.5506L96.3106 5.14813L100.111 0.328125Z" fill="#1D234C"/>
<path d="M156.99 14.3281H154.98V8.22812H147.13V14.3281H145.12V0.318115H147.13V6.42812H154.98V0.318115H156.99V14.3281Z" fill="#1D234C"/>
<path d="M167.341 0.328125H165.331V14.3381H167.341V0.328125Z" fill="#1D234C"/>
<path d="M177.611 12.5181H183.931V14.3281H175.591V0.328125H177.611V12.5181Z" fill="#1D234C"/>
<path d="M197.19 2.12811H191.73V6.00812H197.19V7.81812H191.73V14.3281H189.71V0.318115H197.19V2.12811Z" fill="#1D234C"/>
<path d="M206.24 0.328125H204.23V14.3381H206.24V0.328125Z" fill="#1D234C"/>
<path d="M225.411 13.368C223.541 14.188 222.021 14.5179 220.071 14.5179C215.781 14.5179 212.611 11.5179 212.611 7.40794C212.611 3.29794 215.861 0.137939 220.131 0.137939C221.771 0.137939 222.921 0.407942 225.121 1.32794V3.35794C223.481 2.45794 221.771 1.97795 220.091 1.97795C217.051 1.97795 214.691 4.29795 214.691 7.33795C214.691 10.378 217.031 12.6579 220.361 12.6579C221.451 12.6579 222.441 12.4079 223.401 12.0979V9.21794H220.711V7.40794H225.411V13.3479V13.368Z" fill="#1D234C"/>
<path d="M241.021 2.12811H235.081V6.35811H240.811V8.16812H235.081V12.5181H241.201V14.3281H233.071V0.318115H241.021V2.12811Z" fill="#1D234C"/>
<path d="M250.101 6.44814H251.391C253.551 6.44814 254.171 5.33814 254.141 4.16814C254.121 2.84814 253.341 2.04813 251.391 2.04813H250.101V6.44814ZM251.621 0.328125C254.461 0.328125 256.221 1.82812 256.221 4.24812C256.221 5.86812 255.381 7.07813 253.881 7.67813C255.151 8.51813 255.931 9.81814 257.001 11.5581C257.601 12.5181 257.951 12.9981 258.911 14.3281H256.511L254.661 11.4581C252.811 8.57813 251.971 8.25813 250.941 8.25813H250.101V14.3381H248.091V0.328125H251.621Z" fill="#1D234C"/>
</svg>
