<svg width="118" height="31" viewBox="0 0 118 31" fill="none" xmlns="http://www.w3.org/2000/svg">
<path d="M66.4415 14.1698V5.08984H73.9716C78.1116 5.08984 80.1416 6.78984 80.1416 9.62984C80.1416 12.4698 78.1816 14.1698 74.1616 14.1698H66.4415ZM61.9415 29.9698H66.4515V18.4898H75.0216C81.4116 18.4898 84.8115 14.9098 84.8115 9.47984C84.8115 4.04984 81.4116 0.799835 75.0216 0.799835H61.9515V29.9698H61.9415Z" fill="#221F1F"/>
<path d="M42.8414 29.9799H47.3114V18.6798L59.6014 0.809845H54.5415L45.0914 14.5798L35.6415 0.809845H30.5814L42.8414 18.6798V29.9799Z" fill="#221F1F"/>
<path d="M12.2716 29.9799H16.7416V5.19984H28.2216V0.809845H0.791626V5.19984H12.2716V29.9799Z" fill="#221F1F"/>
<path d="M103.121 26.29C97.0313 26.29 92.8914 21.64 92.8914 15.06C92.8914 8.89 97.0313 4.5 103.121 4.5C109.211 4.5 113.131 8.89 113.131 15.06C113.131 21.63 109.111 26.29 103.121 26.29ZM103.121 30.57C111.831 30.57 117.821 24.22 117.821 15.25C117.821 6.28 111.841 0.220001 103.121 0.220001C94.4013 0.220001 88.2013 6.46 88.2013 15.25C88.2013 24.04 94.2913 30.57 103.121 30.57Z" fill="#221F1F"/>
</svg>
